Hack-Regular-esperanto.ufo
<glyph name="exclam" format="1">
  <advance width="1233"/>
  <unicode hex="0021"/>
  <note>
	exclam
  </note>
  <outline>
    <contour>
      <point x="679" y="486" type="line"/>
      <point x="746" y="1053" type="line"/>
      <point x="746" y="1498" type="line"/>
      <point x="481" y="1498" type="line"/>
      <point x="481" y="1053" type="line"/>
      <point x="558" y="486" type="line"/>
    </contour>
    <contour>
      <point x="663" y="-60"/>
      <point x="701" y="-44"/>
      <point x="732" y="-12" type="curve" smooth="yes"/>
      <point x="764" y="20"/>
      <point x="778" y="58"/>
      <point x="778" y="113" type="curve" smooth="yes"/>
      <point x="778" y="181"/>
      <point x="748" y="235"/>
      <point x="699" y="263" type="curve" smooth="yes"/>
      <point x="674" y="277"/>
      <point x="647" y="284"/>
      <point x="616" y="284" type="curve" smooth="yes"/>
      <point x="555" y="284"/>
      <point x="503" y="254"/>
      <point x="475" y="202" type="curve" smooth="yes"/>
      <point x="461" y="176"/>
      <point x="454" y="146"/>
      <point x="454" y="113" type="curve" smooth="yes"/>
      <point x="454" y="45"/>
      <point x="484" y="-10"/>
      <point x="533" y="-38" type="curve" smooth="yes"/>
      <point x="558" y="-53"/>
      <point x="585" y="-60"/>
      <point x="616" y="-60" type="curve" smooth="yes"/>
    </contour>
  </outline>
</glyph>
<glyph name="dollar" format="1">
  <advance width="1233"/>
  <unicode hex="0024"/>
  <note>
	dollar
  </note>
  <outline>
    <contour>
      <point x="693" y="-301" type="line"/>
      <point x="693" y="2" type="line"/>
      <point x="946" y="14"/>
      <point x="1114" y="166"/>
      <point x="1114" y="373" type="curve" smooth="yes"/>
      <point x="1114" y="574"/>
      <point x="967" y="707"/>
      <point x="692" y="750" type="curve"/>
      <point x="692" y="1181" type="line"/>
      <point x="747" y="1178"/>
      <point x="801" y="1169"/>
      <point x="853" y="1154" type="curve" smooth="yes"/>
      <point x="897" y="1142"/>
      <point x="963" y="1116"/>
      <point x="1018" y="1087" type="curve"/>
      <point x="1018" y="1260" type="line"/>
      <point x="915" y="1291"/>
      <point x="791" y="1316"/>
      <point x="692" y="1321" type="curve"/>
      <point x="692" y="1556" type="line"/>
      <point x="592" y="1556" type="line"/>
      <point x="592" y="1321" type="line"/>
      <point x="424" y="1310"/>
      <point x="301" y="1248"/>
      <point x="238" y="1145" type="curve" smooth="yes"/>
      <point x="206" y="1093"/>
      <point x="190" y="1033"/>
      <point x="190" y="964" type="curve" smooth="yes"/>
      <point x="190" y="861"/>
      <point x="223" y="783"/>
      <point x="291" y="722" type="curve" smooth="yes"/>
      <point x="359" y="659"/>
      <point x="457" y="621"/>
      <point x="592" y="600" type="curve"/>
      <point x="592" y="142" type="line"/>
      <point x="457" y="145"/>
      <point x="323" y="191"/>
      <point x="190" y="272" type="curve"/>
      <point x="190" y="92" type="line"/>
      <point x="330" y="35"/>
      <point x="466" y="5"/>
      <point x="591" y="0" type="curve"/>
      <point x="591" y="-301" type="line"/>
    </contour>
    <contour>
      <point x="592" y="770" type="line"/>
      <point x="447" y="791"/>
      <point x="371" y="858"/>
      <point x="371" y="974" type="curve" smooth="yes"/>
      <point x="371" y="1098"/>
      <point x="453" y="1176"/>
      <point x="592" y="1183" type="curve"/>
    </contour>
    <contour>
      <point x="692" y="580" type="line"/>
      <point x="853" y="555"/>
      <point x="926" y="492"/>
      <point x="926" y="363" type="curve" smooth="yes"/>
      <point x="926" y="232"/>
      <point x="839" y="150"/>
      <point x="692" y="146" type="curve"/>
    </contour>
  </outline>
</glyph>
<glyph name="percent" format="1">
  <advance width="1233"/>
  <unicode hex="0025"/>
  <note>
	percent
  </note>
  <outline>
    <contour>
      <point x="440" y="793"/>
      <point x="523" y="828"/>
      <point x="580" y="885" type="curve" smooth="yes"/>
      <point x="639" y="944"/>
      <point x="672" y="1025"/>
      <point x="672" y="1113" type="curve" smooth="yes"/>
      <point x="672" y="1200"/>
      <point x="639" y="1278"/>
      <point x="578" y="1339" type="curve" smooth="yes"/>
      <point x="518" y="1399"/>
      <point x="437" y="1432"/>
      <point x="352" y="1432" type="curve" smooth="yes"/>
      <point x="263" y="1432"/>
      <point x="182" y="1398"/>
      <point x="125" y="1341" type="curve" smooth="yes"/>
      <point x="68" y="1284"/>
      <point x="33" y="1204"/>
      <point x="33" y="1112" type="curve" smooth="yes"/>
      <point x="33" y="1024"/>
      <point x="65" y="944"/>
      <point x="125" y="884" type="curve" smooth="yes"/>
      <point x="182" y="827"/>
      <point x="262" y="793"/>
      <point x="351" y="793" type="curve" smooth="yes"/>
    </contour>
    <contour>
      <point x="298" y="928"/>
      <point x="252" y="949"/>
      <point x="221" y="980" type="curve" smooth="yes"/>
      <point x="186" y="1015"/>
      <point x="168" y="1059"/>
      <point x="168" y="1112" type="curve" smooth="yes"/>
      <point x="168" y="1164"/>
      <point x="189" y="1211"/>
      <point x="222" y="1244" type="curve" smooth="yes"/>
      <point x="257" y="1279"/>
      <point x="301" y="1296"/>
      <point x="353" y="1296" type="curve" smooth="yes"/>
      <point x="418" y="1296"/>
      <point x="479" y="1261"/>
      <point x="512" y="1205" type="curve" smooth="yes"/>
      <point x="529" y="1177"/>
      <point x="537" y="1146"/>
      <point x="537" y="1113" type="curve" smooth="yes"/>
      <point x="537" y="1060"/>
      <point x="516" y="1014"/>
      <point x="483" y="981" type="curve" smooth="yes"/>
      <point x="447" y="946"/>
      <point x="400" y="928"/>
      <point x="351" y="928" type="curve" smooth="yes"/>
    </contour>
    <contour>
      <point x="1192" y="883" type="line"/>
      <point x="1192" y="996" type="line"/>
      <point x="42" y="560" type="line"/>
      <point x="42" y="453" type="line"/>
    </contour>
    <contour>
      <point x="968" y="0"/>
      <point x="1044" y="31"/>
      <point x="1107" y="92" type="curve" smooth="yes"/>
      <point x="1169" y="154"/>
      <point x="1200" y="230"/>
      <point x="1200" y="319" type="curve" smooth="yes"/>
      <point x="1200" y="406"/>
      <point x="1161" y="488"/>
      <point x="1104" y="545" type="curve" smooth="yes"/>
      <point x="1043" y="606"/>
      <point x="966" y="639"/>
      <point x="879" y="639" type="curve" smooth="yes"/>
      <point x="790" y="639"/>
      <point x="710" y="605"/>
      <point x="653" y="548" type="curve" smooth="yes"/>
      <point x="596" y="491"/>
      <point x="561" y="410"/>
      <point x="561" y="318" type="curve" smooth="yes"/>
      <point x="561" y="230"/>
      <point x="591" y="152"/>
      <point x="651" y="92" type="curve" smooth="yes"/>
      <point x="712" y="31"/>
      <point x="788" y="0"/>
      <point x="879" y="0" type="curve" smooth="yes"/>
    </contour>
    <contour>
      <point x="811" y="135"/>
      <point x="752" y="170"/>
      <point x="720" y="226" type="curve" smooth="yes"/>
      <point x="704" y="254"/>
      <point x="696" y="285"/>
      <point x="696" y="319" type="curve" smooth="yes"/>
      <point x="696" y="388"/>
      <point x="730" y="447"/>
      <point x="786" y="480" type="curve" smooth="yes"/>
      <point x="814" y="496"/>
      <point x="845" y="504"/>
      <point x="879" y="504" type="curve" smooth="yes"/>
      <point x="946" y="504"/>
      <point x="1005" y="468"/>
      <point x="1038" y="412" type="curve" smooth="yes"/>
      <point x="1055" y="384"/>
      <point x="1063" y="353"/>
      <point x="1063" y="319" type="curve" smooth="yes"/>
      <point x="1063" y="251"/>
      <point x="1028" y="192"/>
      <point x="972" y="160" type="curve" smooth="yes"/>
      <point x="944" y="143"/>
      <point x="913" y="135"/>
      <point x="879" y="135" type="curve" smooth="yes"/>
    </contour>
  </outline>
</glyph>
<glyph name="ampersand" format="1">
  <advance width="1233"/>
  <unicode hex="0026"/>
  <note>
	ampersand
  </note>
  <outline>
    <contour>
      <point x="689" y="-30"/>
      <point x="818" y="14"/>
      <point x="930" y="109" type="curve"/>
      <point x="1008" y="0" type="line"/>
      <point x="1221" y="0" type="line"/>
      <point x="1051" y="229" type="line"/>
      <point x="1151" y="346"/>
      <point x="1200" y="502"/>
      <point x="1200" y="721" type="curve" smooth="yes"/>
      <point x="1200" y="760" type="line"/>
      <point x="1036" y="760" type="line"/>
      <point x="1037" y="753" type="line"/>
      <point x="1039" y="722"/>
      <point x="1040" y="686"/>
      <point x="1040" y="647" type="curve" smooth="yes"/>
      <point x="1040" y="612"/>
      <point x="1039" y="581"/>
      <point x="1036" y="555" type="curve" smooth="yes"/>
      <point x="1027" y="468"/>
      <point x="1003" y="399"/>
      <point x="963" y="348" type="curve"/>
      <point x="547" y="907" type="line" smooth="yes"/>
      <point x="500" y="970"/>
      <point x="453" y="1043"/>
      <point x="430" y="1102" type="curve" smooth="yes"/>
      <point x="418" y="1131"/>
      <point x="412" y="1163"/>
      <point x="412" y="1197" type="curve" smooth="yes"/>
      <point x="412" y="1302"/>
      <point x="489" y="1366"/>
      <point x="624" y="1366" type="curve" smooth="yes"/>
      <point x="712" y="1366"/>
      <point x="798" y="1343"/>
      <point x="874" y="1290" type="curve"/>
      <point x="874" y="1473" type="line"/>
      <point x="767" y="1506"/>
      <point x="695" y="1520"/>
      <point x="608" y="1520" type="curve" smooth="yes"/>
      <point x="377" y="1520"/>
      <point x="236" y="1396"/>
      <point x="236" y="1197" type="curve" smooth="yes"/>
      <point x="236" y="1100"/>
      <point x="266" y="1011"/>
      <point x="334" y="915" type="curve"/>
      <point x="241" y="848"/>
      <point x="171" y="775"/>
      <point x="126" y="698" type="curve" smooth="yes"/>
      <point x="79" y="621"/>
      <point x="56" y="530"/>
      <point x="56" y="439" type="curve" smooth="yes"/>
      <point x="56" y="307"/>
      <point x="110" y="190"/>
      <point x="198" y="106" type="curve" smooth="yes"/>
      <point x="289" y="21"/>
      <point x="412" y="-30"/>
      <point x="552" y="-30" type="curve" smooth="yes"/>
    </contour>
    <contour>
      <point x="484" y="125"/>
      <point x="396" y="161"/>
      <point x="332" y="225" type="curve" smooth="yes"/>
      <point x="266" y="291"/>
      <point x="233" y="374"/>
      <point x="233" y="473" type="curve" smooth="yes"/>
      <point x="233" y="597"/>
      <point x="292" y="703"/>
      <point x="416" y="803" type="curve"/>
      <point x="844" y="223" type="line"/>
      <point x="839" y="219" type="line"/>
      <point x="835" y="216" type="line"/>
      <point x="827" y="210" type="line"/>
      <point x="825" y="208"/>
      <point x="823" y="206"/>
      <point x="820" y="205" type="curve"/>
      <point x="817" y="203"/>
      <point x="814" y="201"/>
      <point x="811" y="199" type="curve" smooth="yes"/>
      <point x="797" y="190"/>
      <point x="782" y="181"/>
      <point x="766" y="172" type="curve" smooth="yes"/>
      <point x="717" y="144"/>
      <point x="645" y="125"/>
      <point x="585" y="125" type="curve" smooth="yes"/>
    </contour>
  </outline>
</glyph>
<glyph name="parenleft" format="1">
  <advance width="1233"/>
  <unicode hex="0028"/>
  <note>
	parenleft
  </note>
  <outline>
    <contour>
      <point x="755" y="-270" type="line"/>
      <point x="663" y="-111"/>
      <point x="601" y="34"/>
      <point x="557" y="187" type="curve" smooth="yes"/>
      <point x="513" y="340"/>
      <point x="491" y="492"/>
      <point x="491" y="643" type="curve" smooth="yes"/>
      <point x="491" y="794"/>
      <point x="513" y="947"/>
      <point x="557" y="1100" type="curve" smooth="yes"/>
      <point x="601" y="1253"/>
      <point x="663" y="1398"/>
      <point x="755" y="1554" type="curve"/>
      <point x="595" y="1554" type="line"/>
      <point x="497" y="1401"/>
      <point x="422" y="1247"/>
      <point x="370" y="1092" type="curve" smooth="yes"/>
      <point x="321" y="939"/>
      <point x="296" y="789"/>
      <point x="296" y="643" type="curve" smooth="yes"/>
      <point x="296" y="348"/>
      <point x="391" y="54"/>
      <point x="595" y="-270" type="curve"/>
    </contour>
  </outline>
</glyph>
<glyph name="slash" format="1">
  <advance width="1233"/>
  <unicode hex="002F"/>
  <note>
	slash
  </note>
  <outline>
    <contour>
      <point x="293" y="-190" type="line"/>
      <point x="1079" y="1493" type="line"/>
      <point x="889" y="1493" type="line"/>
      <point x="102" y="-190" type="line"/>
    </contour>
  </outline>
</glyph>
<glyph name="zero" format="1">
  <advance width="1233"/>
  <unicode hex="0030"/>
  <note>
	zero
  </note>
  <outline>
    <contour>
      <point x="935" y="-29"/>
      <point x="1100" y="234"/>
      <point x="1100" y="745" type="curve" smooth="yes"/>
      <point x="1100" y="1257"/>
      <point x="936" y="1520"/>
      <point x="616" y="1520" type="curve" smooth="yes"/>
      <point x="297" y="1520"/>
      <point x="133" y="1256"/>
      <point x="133" y="745" type="curve" smooth="yes"/>
      <point x="133" y="236"/>
      <point x="297" y="-29"/>
      <point x="616" y="-29" type="curve" smooth="yes"/>
    </contour>
    <contour>
      <point x="523" y="131"/>
      <point x="453" y="182"/>
      <point x="406" y="283" type="curve" smooth="yes"/>
      <point x="359" y="382"/>
      <point x="336" y="536"/>
      <point x="336" y="745" type="curve" smooth="yes"/>
      <point x="336" y="960"/>
      <point x="358" y="1136"/>
      <point x="434" y="1264" type="curve" smooth="yes"/>
      <point x="471" y="1328"/>
      <point x="532" y="1360"/>
      <point x="616" y="1360" type="curve" smooth="yes"/>
      <point x="713" y="1360"/>
      <point x="783" y="1308"/>
      <point x="828" y="1207" type="curve" smooth="yes"/>
      <point x="874" y="1107"/>
      <point x="897" y="953"/>
      <point x="897" y="745" type="curve" smooth="yes"/>
      <point x="897" y="538"/>
      <point x="874" y="384"/>
      <point x="828" y="283" type="curve" smooth="yes"/>
      <point x="782" y="182"/>
      <point x="711" y="131"/>
      <point x="616" y="131" type="curve" smooth="yes"/>
    </contour>
    <contour>
      <point x="635" y="396"/>
      <point x="651" y="408"/>
      <point x="666" y="432" type="curve"/>
      <point x="693" y="479"/>
      <point x="706" y="564"/>
      <point x="714" y="663" type="curve" smooth="yes"/>
      <point x="716" y="687"/>
      <point x="717" y="713"/>
      <point x="717" y="742" type="curve" smooth="yes"/>
      <point x="717" y="795"/>
      <point x="707" y="897"/>
      <point x="695" y="950" type="curve" smooth="yes"/>
      <point x="686" y="997"/>
      <point x="675" y="1033"/>
      <point x="662" y="1058" type="curve" smooth="yes"/>
      <point x="649" y="1083"/>
      <point x="633" y="1096"/>
      <point x="614" y="1096" type="curve" smooth="yes"/>
      <point x="549" y="1096"/>
      <point x="529" y="937"/>
      <point x="521" y="836" type="curve" smooth="yes"/>
      <point x="518" y="805"/>
      <point x="516" y="777"/>
      <point x="516" y="750" type="curve" smooth="yes"/>
      <point x="516" y="710"/>
      <point x="527" y="593"/>
      <point x="539" y="540" type="curve" smooth="yes"/>
      <point x="558" y="447"/>
      <point x="579" y="396"/>
      <point x="618" y="396" type="curve" smooth="yes"/>
    </contour>
  </outline>
</glyph>
<glyph name="two" format="1">
  <advance width="1233"/>
  <unicode hex="0032"/>
  <note>
	two
  </note>
  <outline>
    <contour>
      <point x="1059" y="0" type="line"/>
      <point x="1059" y="170" type="line"/>
      <point x="363" y="170" type="line"/>
      <point x="415" y="225"/>
      <point x="475" y="287"/>
      <point x="542" y="354" type="curve" smooth="yes"/>
      <point x="560" y="372" type="line" smooth="yes"/>
      <point x="676" y="488"/>
      <point x="739" y="555"/>
      <point x="860" y="695" type="curve" smooth="yes"/>
      <point x="936" y="787"/>
      <point x="974" y="837"/>
      <point x="1005" y="905" type="curve" smooth="yes"/>
      <point x="1034" y="971"/>
      <point x="1049" y="1037"/>
      <point x="1049" y="1102" type="curve" smooth="yes"/>
      <point x="1049" y="1226"/>
      <point x="1000" y="1331"/>
      <point x="917" y="1404" type="curve" smooth="yes"/>
      <point x="828" y="1483"/>
      <point x="706" y="1520"/>
      <point x="563" y="1520" type="curve" smooth="yes"/>
      <point x="434" y="1520"/>
      <point x="300" y="1486"/>
      <point x="164" y="1421" type="curve"/>
      <point x="164" y="1217" type="line"/>
      <point x="313" y="1306"/>
      <point x="447" y="1350"/>
      <point x="566" y="1350" type="curve" smooth="yes"/>
      <point x="738" y="1350"/>
      <point x="842" y="1250"/>
      <point x="842" y="1085" type="curve" smooth="yes"/>
      <point x="842" y="981"/>
      <point x="796" y="896"/>
      <point x="756" y="840" type="curve" smooth="yes"/>
      <point x="717" y="784"/>
      <point x="645" y="699"/>
      <point x="612" y="663" type="curve" smooth="yes"/>
      <point x="575" y="622" type="line" smooth="yes"/>
      <point x="561" y="607"/>
      <point x="546" y="591"/>
      <point x="531" y="574" type="curve" smooth="yes"/>
      <point x="515" y="557"/>
      <point x="498" y="538"/>
      <point x="479" y="518" type="curve" smooth="yes"/>
      <point x="392" y="423"/>
      <point x="291" y="316"/>
      <point x="177" y="196" type="curve" smooth="yes"/>
      <point x="158" y="177"/>
      <point x="152" y="159"/>
      <point x="152" y="134" type="curve" smooth="yes"/>
      <point x="152" y="0" type="line"/>
    </contour>
  </outline>
</glyph>
<glyph name="three" format="1">
  <advance width="1233"/>
  <unicode hex="0033"/>
  <note>
	three
  </note>
  <outline>
    <contour>
      <point x="898" y="-29"/>
      <point x="1091" y="139"/>
      <point x="1091" y="411" type="curve" smooth="yes"/>
      <point x="1091" y="614"/>
      <point x="984" y="747"/>
      <point x="788" y="799" type="curve"/>
      <point x="964" y="846"/>
      <point x="1056" y="955"/>
      <point x="1056" y="1122" type="curve" smooth="yes"/>
      <point x="1056" y="1242"/>
      <point x="1011" y="1342"/>
      <point x="927" y="1411" type="curve" smooth="yes"/>
      <point x="840" y="1483"/>
      <point x="720" y="1520"/>
      <point x="579" y="1520" type="curve" smooth="yes"/>
      <point x="480" y="1520"/>
      <point x="363" y="1499"/>
      <point x="194" y="1456" type="curve"/>
      <point x="194" y="1270" type="line"/>
      <point x="331" y="1325"/>
      <point x="463" y="1350"/>
      <point x="574" y="1350" type="curve" smooth="yes"/>
      <point x="667" y="1350"/>
      <point x="737" y="1330"/>
      <point x="784" y="1289" type="curve" smooth="yes"/>
      <point x="832" y="1249"/>
      <point x="856" y="1188"/>
      <point x="856" y="1115" type="curve" smooth="yes"/>
      <point x="856" y="964"/>
      <point x="749" y="881"/>
      <point x="561" y="881" type="curve" smooth="yes"/>
      <point x="407" y="881" type="line"/>
      <point x="407" y="715" type="line"/>
      <point x="561" y="715" type="line" smooth="yes"/>
      <point x="766" y="715"/>
      <point x="891" y="608"/>
      <point x="891" y="429" type="curve" smooth="yes"/>
      <point x="891" y="246"/>
      <point x="770" y="141"/>
      <point x="547" y="141" type="curve" smooth="yes"/>
      <point x="484" y="141"/>
      <point x="418" y="150"/>
      <point x="350" y="167" type="curve" smooth="yes"/>
      <point x="290" y="184"/>
      <point x="223" y="211"/>
      <point x="149" y="249" type="curve"/>
      <point x="149" y="45" type="line"/>
      <point x="286" y="-3"/>
      <point x="430" y="-29"/>
      <point x="566" y="-29" type="curve" smooth="yes"/>
    </contour>
  </outline>
</glyph>
<glyph name="four" format="1">
  <advance width="1233"/>
  <unicode hex="0034"/>
  <note>
	four
  </note>
  <outline>
    <contour>
      <point x="936" y="0" type="line"/>
      <point x="936" y="356" type="line"/>
      <point x="1135" y="356" type="line"/>
      <point x="1135" y="520" type="line"/>
      <point x="936" y="520" type="line"/>
      <point x="936" y="1493" type="line"/>
      <point x="702" y="1493" type="line"/>
      <point x="102" y="547" type="line"/>
      <point x="102" y="356" type="line"/>
      <point x="735" y="356" type="line"/>
      <point x="735" y="0" type="line"/>
    </contour>
    <contour>
      <point x="735" y="1309" type="line"/>
      <point x="735" y="520" type="line"/>
      <point x="264" y="520" type="line"/>
    </contour>
  </outline>
</glyph>
<glyph name="five" format="1">
  <advance width="1233"/>
  <unicode hex="0035"/>
  <note>
	five
  </note>
  <outline>
    <contour>
      <point x="700" y="-29"/>
      <point x="834" y="16"/>
      <point x="928" y="106" type="curve" smooth="yes"/>
      <point x="1020" y="195"/>
      <point x="1069" y="324"/>
      <point x="1069" y="481" type="curve" smooth="yes"/>
      <point x="1069" y="636"/>
      <point x="1024" y="759"/>
      <point x="934" y="850" type="curve" smooth="yes"/>
      <point x="847" y="937"/>
      <point x="722" y="987"/>
      <point x="566" y="987" type="curve" smooth="yes"/>
      <point x="505" y="987"/>
      <point x="447" y="977"/>
      <point x="391" y="956" type="curve"/>
      <point x="391" y="1323" type="line"/>
      <point x="963" y="1323" type="line"/>
      <point x="963" y="1493" type="line"/>
      <point x="207" y="1493" type="line"/>
      <point x="207" y="743" type="line"/>
      <point x="299" y="792"/>
      <point x="404" y="817"/>
      <point x="508" y="817" type="curve" smooth="yes"/>
      <point x="625" y="817"/>
      <point x="714" y="784"/>
      <point x="773" y="729" type="curve" smooth="yes"/>
      <point x="835" y="669"/>
      <point x="866" y="585"/>
      <point x="866" y="477" type="curve" smooth="yes"/>
      <point x="866" y="262"/>
      <point x="742" y="141"/>
      <point x="513" y="141" type="curve" smooth="yes"/>
      <point x="388" y="141"/>
      <point x="265" y="174"/>
      <point x="143" y="240" type="curve"/>
      <point x="143" y="35" type="line"/>
      <point x="254" y="-9"/>
      <point x="378" y="-29"/>
      <point x="525" y="-29" type="curve" smooth="yes"/>
    </contour>
  </outline>
</glyph>
<glyph name="six" format="1">
  <advance width="1233"/>
  <unicode hex="0036"/>
  <note>
	six
  </note>
  <outline>
    <contour>
      <point x="933" y="-29"/>
      <point x="1100" y="156"/>
      <point x="1100" y="481" type="curve" smooth="yes"/>
      <point x="1100" y="644"/>
      <point x="1061" y="768"/>
      <point x="982" y="855" type="curve" smooth="yes"/>
      <point x="903" y="942"/>
      <point x="790" y="987"/>
      <point x="655" y="987" type="curve" smooth="yes"/>
      <point x="575" y="987"/>
      <point x="512" y="971"/>
      <point x="452" y="934" type="curve" smooth="yes"/>
      <point x="395" y="898"/>
      <point x="351" y="847"/>
      <point x="319" y="780" type="curve"/>
      <point x="319" y="1155"/>
      <point x="452" y="1350"/>
      <point x="711" y="1350" type="curve" smooth="yes"/>
      <point x="814" y="1350"/>
      <point x="906" y="1325"/>
      <point x="991" y="1274" type="curve"/>
      <point x="991" y="1460" type="line"/>
      <point x="882" y="1503"/>
      <point x="802" y="1520"/>
      <point x="698" y="1520" type="curve" smooth="yes"/>
      <point x="331" y="1520"/>
      <point x="217" y="1272"/>
      <point x="169" y="1076" type="curve" smooth="yes"/>
      <point x="145" y="977"/>
      <point x="133" y="860"/>
      <point x="133" y="724" type="curve" smooth="yes"/>
      <point x="133" y="474"/>
      <point x="174" y="286"/>
      <point x="255" y="159" type="curve" smooth="yes"/>
      <point x="336" y="35"/>
      <point x="454" y="-29"/>
      <point x="633" y="-29" type="curve" smooth="yes"/>
    </contour>
    <contour>
      <point x="457" y="129"/>
      <point x="354" y="259"/>
      <point x="354" y="479" type="curve" smooth="yes"/>
      <point x="354" y="699"/>
      <point x="457" y="829"/>
      <point x="634" y="829" type="curve" smooth="yes"/>
      <point x="809" y="829"/>
      <point x="901" y="710"/>
      <point x="901" y="479" type="curve" smooth="yes"/>
      <point x="901" y="250"/>
      <point x="810" y="129"/>
      <point x="633" y="129" type="curve" smooth="yes"/>
    </contour>
  </outline>
</glyph>
<glyph name="eight" format="1">
  <advance width="1233"/>
  <unicode hex="0038"/>
  <note>
	eight
  </note>
  <outline>
    <contour>
      <point x="767" y="-29"/>
      <point x="888" y="11"/>
      <point x="973" y="84" type="curve" smooth="yes"/>
      <point x="1059" y="159"/>
      <point x="1102" y="265"/>
      <point x="1102" y="402" type="curve" smooth="yes"/>
      <point x="1102" y="613"/>
      <point x="994" y="749"/>
      <point x="793" y="793" type="curve"/>
      <point x="968" y="838"/>
      <point x="1067" y="963"/>
      <point x="1067" y="1136" type="curve" smooth="yes"/>
      <point x="1067" y="1372"/>
      <point x="895" y="1520"/>
      <point x="616" y="1520" type="curve" smooth="yes"/>
      <point x="339" y="1520"/>
      <point x="166" y="1368"/>
      <point x="166" y="1137" type="curve" smooth="yes"/>
      <point x="166" y="1049"/>
      <point x="190" y="975"/>
      <point x="239" y="915" type="curve" smooth="yes"/>
      <point x="287" y="856"/>
      <point x="357" y="813"/>
      <point x="440" y="793" type="curve"/>
      <point x="240" y="749"/>
      <point x="131" y="612"/>
      <point x="131" y="400" type="curve" smooth="yes"/>
      <point x="131" y="128"/>
      <point x="315" y="-29"/>
      <point x="615" y="-29" type="curve" smooth="yes"/>
    </contour>
    <contour>
      <point x="455" y="868"/>
      <point x="367" y="954"/>
      <point x="367" y="1114" type="curve" smooth="yes"/>
      <point x="367" y="1277"/>
      <point x="455" y="1364"/>
      <point x="616" y="1364" type="curve" smooth="yes"/>
      <point x="779" y="1364"/>
      <point x="866" y="1275"/>
      <point x="866" y="1114" type="curve" smooth="yes"/>
      <point x="866" y="954"/>
      <point x="777" y="868"/>
      <point x="616" y="868" type="curve" smooth="yes"/>
    </contour>
    <contour>
      <point x="439" y="129"/>
      <point x="334" y="237"/>
      <point x="334" y="421" type="curve" smooth="yes"/>
      <point x="334" y="604"/>
      <point x="437" y="709"/>
      <point x="616" y="709" type="curve" smooth="yes"/>
      <point x="795" y="709"/>
      <point x="899" y="606"/>
      <point x="899" y="418" type="curve" smooth="yes"/>
      <point x="899" y="235"/>
      <point x="798" y="129"/>
      <point x="619" y="129" type="curve" smooth="yes"/>
    </contour>
  </outline>
</glyph>
<glyph name="nine" format="1">
  <advance width="1233"/>
  <unicode hex="0039"/>
  <note>
	nine
  </note>
  <outline>
    <contour>
      <point x="708" y="-29"/>
      <point x="851" y="37"/>
      <point x="950" y="169" type="curve" smooth="yes"/>
      <point x="1049" y="302"/>
      <point x="1094" y="498"/>
      <point x="1094" y="766" type="curve" smooth="yes"/>
      <point x="1094" y="1016"/>
      <point x="1053" y="1205"/>
      <point x="972" y="1332" type="curve" smooth="yes"/>
      <point x="891" y="1456"/>
      <point x="773" y="1520"/>
      <point x="594" y="1520" type="curve" smooth="yes"/>
      <point x="293" y="1520"/>
      <point x="127" y="1339"/>
      <point x="127" y="1010" type="curve" smooth="yes"/>
      <point x="127" y="851"/>
      <point x="167" y="726"/>
      <point x="246" y="637" type="curve" smooth="yes"/>
      <point x="325" y="549"/>
      <point x="436" y="504"/>
      <point x="569" y="504" type="curve" smooth="yes"/>
      <point x="651" y="504"/>
      <point x="720" y="522"/>
      <point x="775" y="557" type="curve" smooth="yes"/>
      <point x="828" y="592"/>
      <point x="876" y="646"/>
      <point x="907" y="711" type="curve"/>
      <point x="907" y="338"/>
      <point x="773" y="141"/>
      <point x="517" y="141" type="curve" smooth="yes"/>
      <point x="420" y="141"/>
      <point x="320" y="168"/>
      <point x="236" y="217" type="curve"/>
      <point x="236" y="31" type="line"/>
      <point x="339" y="-10"/>
      <point x="415" y="-29"/>
      <point x="528" y="-29" type="curve" smooth="yes"/>
    </contour>
    <contour>
      <point x="416" y="662"/>
      <point x="326" y="781"/>
      <point x="326" y="1012" type="curve" smooth="yes"/>
      <point x="326" y="1243"/>
      <point x="418" y="1362"/>
      <point x="593" y="1362" type="curve" smooth="yes"/>
      <point x="770" y="1362"/>
      <point x="872" y="1233"/>
      <point x="872" y="1012" type="curve" smooth="yes"/>
      <point x="872" y="791"/>
      <point x="770" y="662"/>
      <point x="593" y="662" type="curve" smooth="yes"/>
    </contour>
  </outline>
</glyph>
<glyph name="colon" format="1">
  <advance width="1233"/>
  <unicode hex="003A"/>
  <note>
	colon
  </note>
  <outline>
    <contour>
      <point x="680" y="776"/>
      <point x="732" y="806"/>
      <point x="761" y="858" type="curve" smooth="yes"/>
      <point x="775" y="883"/>
      <point x="782" y="912"/>
      <point x="782" y="945" type="curve" smooth="yes"/>
      <point x="782" y="1010"/>
      <point x="751" y="1064"/>
      <point x="702" y="1093" type="curve" smooth="yes"/>
      <point x="677" y="1107"/>
      <point x="650" y="1114"/>
      <point x="620" y="1114" type="curve" smooth="yes"/>
      <point x="560" y="1114"/>
      <point x="508" y="1084"/>
      <point x="480" y="1033" type="curve" smooth="yes"/>
      <point x="465" y="1007"/>
      <point x="458" y="978"/>
      <point x="458" y="945" type="curve" smooth="yes"/>
      <point x="458" y="880"/>
      <point x="489" y="826"/>
      <point x="538" y="798" type="curve" smooth="yes"/>
      <point x="563" y="783"/>
      <point x="590" y="776"/>
      <point x="620" y="776" type="curve" smooth="yes"/>
    </contour>
    <contour>
      <point x="680" y="60"/>
      <point x="732" y="90"/>
      <point x="761" y="142" type="curve" smooth="yes"/>
      <point x="775" y="167"/>
      <point x="782" y="196"/>
      <point x="782" y="229" type="curve" smooth="yes"/>
      <point x="782" y="294"/>
      <point x="751" y="348"/>
      <point x="702" y="377" type="curve" smooth="yes"/>
      <point x="677" y="391"/>
      <point x="650" y="398"/>
      <point x="620" y="398" type="curve" smooth="yes"/>
      <point x="560" y="398"/>
      <point x="508" y="368"/>
      <point x="480" y="317" type="curve" smooth="yes"/>
      <point x="465" y="291"/>
      <point x="458" y="262"/>
      <point x="458" y="229" type="curve" smooth="yes"/>
      <point x="458" y="164"/>
      <point x="489" y="110"/>
      <point x="538" y="82" type="curve" smooth="yes"/>
      <point x="563" y="67"/>
      <point x="590" y="60"/>
      <point x="620" y="60" type="curve" smooth="yes"/>
    </contour>
  </outline>
</glyph>
<glyph name="semicolon" format="1">
  <advance width="1233"/>
  <unicode hex="003B"/>
  <note>
	semicolon
  </note>
  <outline>
    <contour>
      <point x="659" y="703"/>
      <point x="699" y="720"/>
      <point x="731" y="753" type="curve" smooth="yes"/>
      <point x="764" y="785"/>
      <point x="780" y="828"/>
      <point x="780" y="881" type="curve" smooth="yes"/>
      <point x="780" y="950"/>
      <point x="749" y="1006"/>
      <point x="697" y="1036" type="curve" smooth="yes"/>
      <point x="671" y="1051"/>
      <point x="642" y="1058"/>
      <point x="610" y="1058" type="curve" smooth="yes"/>
      <point x="546" y="1058"/>
      <point x="493" y="1027"/>
      <point x="463" y="973" type="curve" smooth="yes"/>
      <point x="448" y="946"/>
      <point x="440" y="915"/>
      <point x="440" y="881" type="curve" smooth="yes"/>
      <point x="440" y="828"/>
      <point x="457" y="785"/>
      <point x="490" y="753" type="curve" smooth="yes"/>
      <point x="522" y="720"/>
      <point x="562" y="703"/>
      <point x="610" y="703" type="curve" smooth="yes"/>
    </contour>
    <contour>
      <point x="442" y="-470" type="line"/>
      <point x="678" y="-385"/>
      <point x="812" y="-205"/>
      <point x="812" y="34" type="curve" smooth="yes"/>
      <point x="812" y="202"/>
      <point x="744" y="302"/>
      <point x="625" y="302" type="curve" smooth="yes"/>
      <point x="576" y="302"/>
      <point x="532" y="285"/>
      <point x="503" y="260" type="curve" smooth="yes"/>
      <point x="471" y="232"/>
      <point x="455" y="193"/>
      <point x="455" y="142" type="curve" smooth="yes"/>
      <point x="455" y="93"/>
      <point x="470" y="55"/>
      <point x="501" y="26" type="curve"/>
      <point x="532" y="-1"/>
      <point x="571" y="-15"/>
      <point x="617" y="-15" type="curve" smooth="yes"/>
      <point x="631" y="-15"/>
      <point x="645" y="-13"/>
      <point x="659" y="-10" type="curve"/>
      <point x="653" y="-168"/>
      <point x="565" y="-285"/>
      <point x="394" y="-361" type="curve"/>
    </contour>
  </outline>
</glyph>
<glyph name="question" format="1">
  <advance width="1233"/>
  <unicode hex="003F"/>
  <note>
	question
  </note>
  <outline>
    <contour>
      <point x="684" y="472" type="line"/>
      <point x="684" y="599" type="line" smooth="yes"/>
      <point x="684" y="640"/>
      <point x="692" y="671"/>
      <point x="723" y="714" type="curve" smooth="yes"/>
      <point x="738" y="735"/>
      <point x="761" y="761"/>
      <point x="791" y="790" type="curve" smooth="yes"/>
      <point x="879" y="876" type="line" smooth="yes"/>
      <point x="1000" y="996"/>
      <point x="1040" y="1071"/>
      <point x="1040" y="1178" type="curve" smooth="yes"/>
      <point x="1040" y="1279"/>
      <point x="1003" y="1368"/>
      <point x="931" y="1432" type="curve" smooth="yes"/>
      <point x="862" y="1493"/>
      <point x="760" y="1528"/>
      <point x="629" y="1528" type="curve" smooth="yes"/>
      <point x="559" y="1528"/>
      <point x="494" y="1519"/>
      <point x="434" y="1500" type="curve" smooth="yes"/>
      <point x="371" y="1482"/>
      <point x="308" y="1454"/>
      <point x="244" y="1415" type="curve"/>
      <point x="244" y="1227" type="line"/>
      <point x="309" y="1272"/>
      <point x="379" y="1314"/>
      <point x="464" y="1343" type="curve" smooth="yes"/>
      <point x="506" y="1357"/>
      <point x="551" y="1364"/>
      <point x="600" y="1364" type="curve" smooth="yes"/>
      <point x="744" y="1364"/>
      <point x="838" y="1283"/>
      <point x="838" y="1166" type="curve" smooth="yes"/>
      <point x="838" y="1099"/>
      <point x="814" y="1054"/>
      <point x="729" y="969" type="curve" smooth="yes"/>
      <point x="639" y="880" type="line" smooth="yes"/>
      <point x="530" y="771"/>
      <point x="494" y="688"/>
      <point x="494" y="583" type="curve" smooth="yes"/>
      <point x="494" y="472" type="line"/>
    </contour>
    <contour>
      <point x="646" y="-40"/>
      <point x="693" y="-13"/>
      <point x="719" y="34" type="curve" smooth="yes"/>
      <point x="732" y="57"/>
      <point x="738" y="84"/>
      <point x="738" y="113" type="curve" smooth="yes"/>
      <point x="738" y="202"/>
      <point x="675" y="264"/>
      <point x="592" y="264" type="curve" smooth="yes"/>
      <point x="549" y="264"/>
      <point x="513" y="247"/>
      <point x="488" y="222" type="curve" smooth="yes"/>
      <point x="460" y="194"/>
      <point x="446" y="158"/>
      <point x="446" y="113" type="curve" smooth="yes"/>
      <point x="446" y="22"/>
      <point x="510" y="-40"/>
      <point x="593" y="-40" type="curve" smooth="yes"/>
    </contour>
  </outline>
</glyph>
<glyph name="at" format="1">
  <advance width="1233"/>
  <unicode hex="0040"/>
  <note>
	at
  </note>
  <outline>
    <contour>
      <point x="884" y="-319"/>
      <point x="974" y="-301"/>
      <point x="1047" y="-270" type="curve"/>
      <point x="999" y="-135" type="line"/>
      <point x="932" y="-160"/>
      <point x="857" y="-176"/>
      <point x="778" y="-176" type="curve" smooth="yes"/>
      <point x="597" y="-176"/>
      <point x="445" y="-107"/>
      <point x="340" y="18" type="curve" smooth="yes"/>
      <point x="232" y="143"/>
      <point x="176" y="324"/>
      <point x="176" y="549" type="curve" smooth="yes"/>
      <point x="176" y="762"/>
      <point x="226" y="937"/>
      <point x="322" y="1062" type="curve" smooth="yes"/>
      <point x="418" y="1189"/>
      <point x="551" y="1253"/>
      <point x="702" y="1253" type="curve" smooth="yes"/>
      <point x="808" y="1253"/>
      <point x="890" y="1222"/>
      <point x="947" y="1159" type="curve" smooth="yes"/>
      <point x="1003" y="1099"/>
      <point x="1034" y="1011"/>
      <point x="1034" y="907" type="curve" smooth="yes"/>
      <point x="1034" y="844" type="line"/>
      <point x="986" y="927"/>
      <point x="890" y="975"/>
      <point x="782" y="975" type="curve" smooth="yes"/>
      <point x="682" y="975"/>
      <point x="588" y="935"/>
      <point x="517" y="854" type="curve" smooth="yes"/>
      <point x="447" y="774"/>
      <point x="412" y="671"/>
      <point x="412" y="546" type="curve" smooth="yes"/>
      <point x="412" y="418"/>
      <point x="452" y="310"/>
      <point x="517" y="235" type="curve" smooth="yes"/>
      <point x="585" y="158"/>
      <point x="678" y="115"/>
      <point x="785" y="115" type="curve" smooth="yes"/>
      <point x="894" y="115"/>
      <point x="985" y="163"/>
      <point x="1034" y="246" type="curve"/>
      <point x="1034" y="135" type="line"/>
      <point x="1178" y="135" type="line"/>
      <point x="1178" y="905" type="line" smooth="yes"/>
      <point x="1178" y="1053"/>
      <point x="1134" y="1178"/>
      <point x="1054" y="1263" type="curve" smooth="yes"/>
      <point x="971" y="1351"/>
      <point x="856" y="1395"/>
      <point x="709" y="1395" type="curve" smooth="yes"/>
      <point x="513" y="1395"/>
      <point x="339" y="1317"/>
      <point x="214" y="1164" type="curve" smooth="yes"/>
      <point x="90" y="1012"/>
      <point x="27" y="800"/>
      <point x="27" y="547" type="curve" smooth="yes"/>
      <point x="27" y="278"/>
      <point x="100" y="64"/>
      <point x="236" y="-87" type="curve" smooth="yes"/>
      <point x="376" y="-242"/>
      <point x="573" y="-319"/>
      <point x="796" y="-319" type="curve" smooth="yes"/>
    </contour>
    <contour>
      <point x="662" y="260"/>
      <point x="567" y="370"/>
      <point x="567" y="546" type="curve" smooth="yes"/>
      <point x="567" y="718"/>
      <point x="662" y="829"/>
      <point x="802" y="829" type="curve" smooth="yes"/>
      <point x="873" y="829"/>
      <point x="933" y="802"/>
      <point x="974" y="753" type="curve" smooth="yes"/>
      <point x="1017" y="702"/>
      <point x="1038" y="630"/>
      <point x="1038" y="545" type="curve" smooth="yes"/>
      <point x="1038" y="457"/>
      <point x="1017" y="388"/>
      <point x="975" y="338" type="curve" smooth="yes"/>
      <point x="932" y="287"/>
      <point x="872" y="260"/>
      <point x="803" y="260" type="curve" smooth="yes"/>
    </contour>
  </outline>
</glyph>
<glyph name="B" format="1">
  <advance width="1233"/>
  <unicode hex="0042"/>
  <note>
	B
  </note>
  <outline>
    <contour>
      <point x="608" y="0" type="line" smooth="yes"/>
      <point x="957" y="0"/>
      <point x="1137" y="140"/>
      <point x="1137" y="409" type="curve" smooth="yes"/>
      <point x="1137" y="625"/>
      <point x="1020" y="770"/>
      <point x="823" y="799" type="curve"/>
      <point x="909" y="812"/>
      <point x="975" y="845"/>
      <point x="1020" y="898" type="curve" smooth="yes"/>
      <point x="1063" y="952"/>
      <point x="1085" y="1024"/>
      <point x="1085" y="1113" type="curve" smooth="yes"/>
      <point x="1085" y="1274"/>
      <point x="1009" y="1389"/>
      <point x="866" y="1449" type="curve" smooth="yes"/>
      <point x="795" y="1478"/>
      <point x="709" y="1493"/>
      <point x="608" y="1493" type="curve" smooth="yes"/>
      <point x="166" y="1493" type="line"/>
      <point x="166" y="0" type="line"/>
    </contour>
    <contour>
      <point x="369" y="1327" type="line"/>
      <point x="604" y="1327" type="line" smooth="yes"/>
      <point x="801" y="1327"/>
      <point x="881" y="1267"/>
      <point x="881" y="1111" type="curve" smooth="yes"/>
      <point x="881" y="1030"/>
      <point x="859" y="971"/>
      <point x="816" y="934" type="curve" smooth="yes"/>
      <point x="772" y="895"/>
      <point x="705" y="877"/>
      <point x="604" y="877" type="curve" smooth="yes"/>
      <point x="369" y="877" type="line"/>
    </contour>
    <contour>
      <point x="369" y="713" type="line"/>
      <point x="608" y="713" type="line" smooth="yes"/>
      <point x="832" y="713"/>
      <point x="934" y="625"/>
      <point x="934" y="430" type="curve" smooth="yes"/>
      <point x="934" y="303"/>
      <point x="892" y="229"/>
      <point x="797" y="193" type="curve" smooth="yes"/>
      <point x="749" y="175"/>
      <point x="686" y="166"/>
      <point x="608" y="166" type="curve" smooth="yes"/>
      <point x="369" y="166" type="line"/>
    </contour>
  </outline>
</glyph>
<glyph name="C" format="1">
  <advance width="1233"/>
  <unicode hex="0043"/>
  <note>
	C
  </note>
  <outline>
    <contour>
      <point x="866" y="-29"/>
      <point x="968" y="-2"/>
      <point x="1073" y="53" type="curve"/>
      <point x="1073" y="260" type="line"/>
      <point x="976" y="179"/>
      <point x="858" y="135"/>
      <point x="743" y="135" type="curve" smooth="yes"/>
      <point x="480" y="135"/>
      <point x="350" y="337"/>
      <point x="350" y="745" type="curve" smooth="yes"/>
      <point x="350" y="1154"/>
      <point x="481" y="1356"/>
      <point x="741" y="1356" type="curve" smooth="yes"/>
      <point x="856" y="1356"/>
      <point x="974" y="1314"/>
      <point x="1073" y="1231" type="curve"/>
      <point x="1073" y="1438" type="line"/>
      <point x="1026" y="1463"/>
      <point x="966" y="1488"/>
      <point x="915" y="1500" type="curve" smooth="yes"/>
      <point x="862" y="1513"/>
      <point x="804" y="1520"/>
      <point x="742" y="1520" type="curve" smooth="yes"/>
      <point x="362" y="1520"/>
      <point x="139" y="1235"/>
      <point x="139" y="744" type="curve" smooth="yes"/>
      <point x="139" y="501"/>
      <point x="192" y="311"/>
      <point x="297" y="174" type="curve" smooth="yes"/>
      <point x="403" y="39"/>
      <point x="551" y="-29"/>
      <point x="742" y="-29" type="curve" smooth="yes"/>
    </contour>
  </outline>
</glyph>
<glyph name="D" format="1">
  <advance width="1233"/>
  <unicode hex="0044"/>
  <note>
	D
  </note>
  <outline>
    <contour>
      <point x="440" y="0" type="line" smooth="yes"/>
      <point x="745" y="0"/>
      <point x="939" y="105"/>
      <point x="1035" y="325" type="curve" smooth="yes"/>
      <point x="1082" y="435"/>
      <point x="1106" y="575"/>
      <point x="1106" y="745" type="curve" smooth="yes"/>
      <point x="1106" y="1088"/>
      <point x="1012" y="1305"/>
      <point x="816" y="1413" type="curve" smooth="yes"/>
      <point x="718" y="1466"/>
      <point x="593" y="1493"/>
      <point x="440" y="1493" type="curve" smooth="yes"/>
      <point x="137" y="1493" type="line"/>
      <point x="137" y="0" type="line"/>
    </contour>
    <contour>
      <point x="340" y="1327" type="line"/>
      <point x="436" y="1327" type="line" smooth="yes"/>
      <point x="779" y="1327"/>
      <point x="893" y="1188"/>
      <point x="893" y="747" type="curve" smooth="yes"/>
      <point x="893" y="523"/>
      <point x="860" y="376"/>
      <point x="792" y="292" type="curve" smooth="yes"/>
      <point x="725" y="208"/>
      <point x="607" y="166"/>
      <point x="436" y="166" type="curve" smooth="yes"/>
      <point x="340" y="166" type="line"/>
    </contour>
  </outline>
</glyph>
<glyph name="J" format="1">
  <advance width="1233"/>
  <unicode hex="004A"/>
  <note>
	J
  </note>
  <outline>
    <contour>
      <point x="666" y="-29"/>
      <point x="777" y="9"/>
      <point x="850" y="89" type="curve" smooth="yes"/>
      <point x="923" y="170"/>
      <point x="956" y="295"/>
      <point x="956" y="487" type="curve" smooth="yes"/>
      <point x="956" y="1493" type="line"/>
      <point x="373" y="1493" type="line"/>
      <point x="373" y="1323" type="line"/>
      <point x="754" y="1323" type="line"/>
      <point x="754" y="487" type="line" smooth="yes"/>
      <point x="754" y="216"/>
      <point x="690" y="135"/>
      <point x="499" y="135" type="curve" smooth="yes"/>
      <point x="360" y="135"/>
      <point x="230" y="189"/>
      <point x="109" y="297" type="curve"/>
      <point x="109" y="61" type="line"/>
      <point x="246" y="0"/>
      <point x="367" y="-29"/>
      <point x="502" y="-29" type="curve" smooth="yes"/>
    </contour>
  </outline>
</glyph>
<glyph name="O" format="1">
  <advance width="1233"/>
  <unicode hex="004F"/>
  <note>
	O
  </note>
  <outline>
    <contour>
      <point x="955" y="-29"/>
      <point x="1116" y="225"/>
      <point x="1116" y="745" type="curve" smooth="yes"/>
      <point x="1116" y="1266"/>
      <point x="955" y="1520"/>
      <point x="616" y="1520" type="curve" smooth="yes"/>
      <point x="445" y="1520"/>
      <point x="325" y="1457"/>
      <point x="241" y="1328" type="curve" smooth="yes"/>
      <point x="158" y="1201"/>
      <point x="117" y="1007"/>
      <point x="117" y="745" type="curve" smooth="yes"/>
      <point x="117" y="221"/>
      <point x="279" y="-29"/>
      <point x="616" y="-29" type="curve" smooth="yes"/>
    </contour>
    <contour>
      <point x="515" y="135"/>
      <point x="441" y="182"/>
      <point x="396" y="276" type="curve" smooth="yes"/>
      <point x="351" y="372"/>
      <point x="328" y="528"/>
      <point x="328" y="745" type="curve" smooth="yes"/>
      <point x="328" y="962"/>
      <point x="351" y="1119"/>
      <point x="396" y="1215" type="curve" smooth="yes"/>
      <point x="441" y="1309"/>
      <point x="515" y="1356"/>
      <point x="616" y="1356" type="curve" smooth="yes"/>
      <point x="719" y="1356"/>
      <point x="793" y="1309"/>
      <point x="838" y="1215" type="curve" smooth="yes"/>
      <point x="883" y="1123"/>
      <point x="905" y="966"/>
      <point x="905" y="745" type="curve" smooth="yes"/>
      <point x="905" y="524"/>
      <point x="883" y="367"/>
      <point x="838" y="276" type="curve" smooth="yes"/>
      <point x="793" y="182"/>
      <point x="719" y="135"/>
      <point x="616" y="135" type="curve" smooth="yes"/>
    </contour>
  </outline>
</glyph>
<glyph name="P" format="1">
  <advance width="1233"/>
  <unicode hex="0050"/>
  <note>
	P
  </note>
  <outline>
    <contour>
      <point x="374" y="0" type="line"/>
      <point x="374" y="600" type="line"/>
      <point x="608" y="600" type="line" smooth="yes"/>
      <point x="945" y="600"/>
      <point x="1116" y="753"/>
      <point x="1116" y="1046" type="curve" smooth="yes"/>
      <point x="1116" y="1192"/>
      <point x="1073" y="1303"/>
      <point x="987" y="1380" type="curve" smooth="yes"/>
      <point x="900" y="1455"/>
      <point x="773" y="1493"/>
      <point x="608" y="1493" type="curve" smooth="yes"/>
      <point x="172" y="1493" type="line"/>
      <point x="172" y="0" type="line"/>
    </contour>
    <contour>
      <point x="374" y="1327" type="line"/>
      <point x="608" y="1327" type="line" smooth="yes"/>
      <point x="797" y="1327"/>
      <point x="905" y="1224"/>
      <point x="905" y="1047" type="curve" smooth="yes"/>
      <point x="905" y="870"/>
      <point x="795" y="766"/>
      <point x="608" y="766" type="curve" smooth="yes"/>
      <point x="374" y="766" type="line"/>
    </contour>
  </outline>
</glyph>
<glyph name="Q" format="1">
  <advance width="1233"/>
  <unicode hex="0051"/>
  <note>
	Q
  </note>
  <outline>
    <contour>
      <point x="1125" y="-270" type="line"/>
      <point x="840" y="20" type="line"/>
      <point x="1027" y="115"/>
      <point x="1116" y="356"/>
      <point x="1116" y="745" type="curve" smooth="yes"/>
      <point x="1116" y="1266"/>
      <point x="955" y="1520"/>
      <point x="616" y="1520" type="curve" smooth="yes"/>
      <point x="445" y="1520"/>
      <point x="325" y="1457"/>
      <point x="241" y="1328" type="curve" smooth="yes"/>
      <point x="158" y="1201"/>
      <point x="117" y="1007"/>
      <point x="117" y="745" type="curve" smooth="yes"/>
      <point x="117" y="486"/>
      <point x="157" y="295"/>
      <point x="241" y="163" type="curve" smooth="yes"/>
      <point x="325" y="31"/>
      <point x="448" y="-29"/>
      <point x="617" y="-29" type="curve" smooth="yes"/>
      <point x="624" y="-29" type="line" smooth="yes"/>
      <point x="628" y="-29"/>
      <point x="632" y="-29"/>
      <point x="635" y="-28" type="curve" smooth="yes"/>
      <point x="638" y="-27"/>
      <point x="642" y="-27"/>
      <point x="647" y="-27" type="curve" smooth="yes"/>
      <point x="655" y="-27" type="line"/>
      <point x="889" y="-270" type="line"/>
    </contour>
    <contour>
      <point x="515" y="135"/>
      <point x="441" y="182"/>
      <point x="396" y="276" type="curve" smooth="yes"/>
      <point x="351" y="372"/>
      <point x="328" y="528"/>
      <point x="328" y="745" type="curve" smooth="yes"/>
      <point x="328" y="962"/>
      <point x="351" y="1119"/>
      <point x="396" y="1215" type="curve" smooth="yes"/>
      <point x="441" y="1309"/>
      <point x="515" y="1356"/>
      <point x="616" y="1356" type="curve" smooth="yes"/>
      <point x="719" y="1356"/>
      <point x="793" y="1309"/>
      <point x="838" y="1215" type="curve" smooth="yes"/>
      <point x="883" y="1123"/>
      <point x="905" y="966"/>
      <point x="905" y="745" type="curve" smooth="yes"/>
      <point x="905" y="524"/>
      <point x="883" y="367"/>
      <point x="838" y="276" type="curve" smooth="yes"/>
      <point x="793" y="182"/>
      <point x="719" y="135"/>
      <point x="616" y="135" type="curve" smooth="yes"/>
    </contour>
  </outline>
</glyph>
<glyph name="R" format="1">
  <advance width="1233"/>
  <unicode hex="0052"/>
  <note>
	R
  </note>
  <outline>
    <contour>
      <point x="346" y="0" type="line"/>
      <point x="346" y="631" type="line"/>
      <point x="539" y="631" type="line" smooth="yes"/>
      <point x="675" y="631"/>
      <point x="739" y="589"/>
      <point x="838" y="377" type="curve" smooth="yes"/>
      <point x="1016" y="0" type="line"/>
      <point x="1233" y="0" type="line"/>
      <point x="1030" y="408" type="line" smooth="yes"/>
      <point x="971" y="524"/>
      <point x="930" y="591"/>
      <point x="893" y="630" type="curve" smooth="yes"/>
      <point x="860" y="665"/>
      <point x="812" y="692"/>
      <point x="760" y="705" type="curve"/>
      <point x="859" y="719"/>
      <point x="934" y="757"/>
      <point x="987" y="820" type="curve" smooth="yes"/>
      <point x="1040" y="884"/>
      <point x="1067" y="961"/>
      <point x="1067" y="1065" type="curve" smooth="yes"/>
      <point x="1067" y="1338"/>
      <point x="888" y="1493"/>
      <point x="559" y="1493" type="curve" smooth="yes"/>
      <point x="143" y="1493" type="line"/>
      <point x="143" y="0" type="line"/>
    </contour>
    <contour>
      <point x="346" y="1327" type="line"/>
      <point x="559" y="1327" type="line" smooth="yes"/>
      <point x="751" y="1327"/>
      <point x="854" y="1234"/>
      <point x="854" y="1059" type="curve" smooth="yes"/>
      <point x="854" y="883"/>
      <point x="760" y="797"/>
      <point x="567" y="797" type="curve" smooth="yes"/>
      <point x="346" y="797" type="line"/>
    </contour>
  </outline>
</glyph>
<glyph name="T" format="1">
  <advance width="1233"/>
  <unicode hex="0054"/>
  <note>
	T
  </note>
  <outline>
    <contour>
      <point x="719" y="0" type="line"/>
      <point x="719" y="1323" type="line"/>
      <point x="1186" y="1323" type="line"/>
      <point x="1186" y="1493" type="line"/>
      <point x="47" y="1493" type="line"/>
      <point x="47" y="1323" type="line"/>
      <point x="516" y="1323" type="line"/>
      <point x="516" y="0" type="line"/>
    </contour>
  </outline>
</glyph>
<glyph name="backslash" format="1">
  <advance width="1233"/>
  <unicode hex="005C"/>
  <note>
	backslash
  </note>
  <outline>
    <contour>
      <point x="1079" y="-190" type="line"/>
      <point x="293" y="1493" type="line"/>
      <point x="102" y="1493" type="line"/>
      <point x="889" y="-190" type="line"/>
    </contour>
  </outline>
</glyph>
<glyph name="underscore" format="1">
  <advance width="1233"/>
  <unicode hex="005F"/>
  <note>
	underscore
  </note>
  <outline>
    <contour>
      <point x="1138" y="-310" type="line"/>
      <point x="1138" y="-190" type="line"/>
      <point x="94" y="-190" type="line"/>
      <point x="94" y="-310" type="line"/>
    </contour>
  </outline>
</glyph>
<glyph name="b" format="1">
  <advance width="1233"/>
  <unicode hex="0062"/>
  <note>
	b
  </note>
  <outline>
    <contour>
      <point x="949" y="-29"/>
      <point x="1112" y="196"/>
      <point x="1112" y="561" type="curve" smooth="yes"/>
      <point x="1112" y="744"/>
      <point x="1073" y="888"/>
      <point x="996" y="993" type="curve" smooth="yes"/>
      <point x="917" y="1096"/>
      <point x="809" y="1147"/>
      <point x="680" y="1147" type="curve" smooth="yes"/>
      <point x="541" y="1147"/>
      <point x="434" y="1086"/>
      <point x="377" y="977" type="curve"/>
      <point x="377" y="1556" type="line"/>
      <point x="193" y="1556" type="line"/>
      <point x="193" y="0" type="line"/>
      <point x="359" y="0" type="line"/>
      <point x="377" y="141" type="line"/>
      <point x="408" y="86"/>
      <point x="449" y="44"/>
      <point x="500" y="15" type="curve" smooth="yes"/>
      <point x="555" y="-16"/>
      <point x="608" y="-29"/>
      <point x="676" y="-29" type="curve" smooth="yes"/>
    </contour>
    <contour>
      <point x="470" y="127"/>
      <point x="377" y="275"/>
      <point x="377" y="559" type="curve" smooth="yes"/>
      <point x="377" y="843"/>
      <point x="470" y="991"/>
      <point x="649" y="991" type="curve" smooth="yes"/>
      <point x="828" y="991"/>
      <point x="918" y="844"/>
      <point x="918" y="559" type="curve" smooth="yes"/>
      <point x="918" y="275"/>
      <point x="827" y="127"/>
      <point x="650" y="127" type="curve" smooth="yes"/>
    </contour>
  </outline>
</glyph>
<glyph name="e" format="1">
  <advance width="1233"/>
  <unicode hex="0065"/>
  <note>
	e
  </note>
  <outline>
    <contour>
      <point x="812" y="-29"/>
      <point x="933" y="1"/>
      <point x="1070" y="57" type="curve"/>
      <point x="1070" y="240" type="line"/>
      <point x="925" y="164"/>
      <point x="800" y="127"/>
      <point x="680" y="127" type="curve" smooth="yes"/>
      <point x="449" y="127"/>
      <point x="316" y="267"/>
      <point x="316" y="510" type="curve" smooth="yes"/>
      <point x="316" y="516" type="line"/>
      <point x="1113" y="516" type="line"/>
      <point x="1113" y="606" type="line" smooth="yes"/>
      <point x="1113" y="945"/>
      <point x="938" y="1147"/>
      <point x="649" y="1147" type="curve" smooth="yes"/>
      <point x="496" y="1147"/>
      <point x="363" y="1094"/>
      <point x="267" y="987" type="curve" smooth="yes"/>
      <point x="172" y="880"/>
      <point x="124" y="737"/>
      <point x="124" y="558" type="curve" smooth="yes"/>
      <point x="124" y="376"/>
      <point x="173" y="232"/>
      <point x="271" y="127" type="curve" smooth="yes"/>
      <point x="367" y="24"/>
      <point x="505" y="-29"/>
      <point x="677" y="-29" type="curve" smooth="yes"/>
    </contour>
    <contour>
      <point x="323" y="659" type="line"/>
      <point x="336" y="796"/>
      <point x="395" y="898"/>
      <point x="487" y="951" type="curve" smooth="yes"/>
      <point x="533" y="978"/>
      <point x="586" y="991"/>
      <point x="645" y="991" type="curve" smooth="yes"/>
      <point x="733" y="991"/>
      <point x="805" y="963"/>
      <point x="853" y="907" type="curve" smooth="yes"/>
      <point x="901" y="852"/>
      <point x="926" y="769"/>
      <point x="929" y="660" type="curve"/>
    </contour>
  </outline>
</glyph>
<glyph name="f" format="1">
  <advance width="1233"/>
  <unicode hex="0066"/>
  <note>
	f
  </note>
  <outline>
    <contour>
      <point x="650" y="0" type="line"/>
      <point x="650" y="977" type="line"/>
      <point x="1035" y="977" type="line"/>
      <point x="1035" y="1120" type="line"/>
      <point x="650" y="1120" type="line"/>
      <point x="650" y="1219" type="line" smooth="yes"/>
      <point x="650" y="1358"/>
      <point x="694" y="1403"/>
      <point x="826" y="1403" type="curve" smooth="yes"/>
      <point x="1035" y="1403" type="line"/>
      <point x="1035" y="1556" type="line"/>
      <point x="814" y="1556" type="line" smooth="yes"/>
      <point x="575" y="1556"/>
      <point x="466" y="1445"/>
      <point x="466" y="1198" type="curve" smooth="yes"/>
      <point x="466" y="1120" type="line"/>
      <point x="167" y="1120" type="line"/>
      <point x="167" y="977" type="line"/>
      <point x="466" y="977" type="line"/>
      <point x="466" y="0" type="line"/>
    </contour>
  </outline>
</glyph>
<glyph name="l" format="1">
  <advance width="1233"/>
  <unicode hex="006C"/>
  <note>
	l
  </note>
  <outline>
    <contour>
      <point x="1054" y="-8" type="line"/>
      <point x="1054" y="148" type="line"/>
      <point x="839" y="148" type="line" smooth="yes"/>
      <point x="722" y="148"/>
      <point x="659" y="230"/>
      <point x="659" y="398" type="curve" smooth="yes"/>
      <point x="659" y="1556" type="line"/>
      <point x="180" y="1556" type="line"/>
      <point x="180" y="1412" type="line"/>
      <point x="475" y="1412" type="line"/>
      <point x="475" y="398" type="line" smooth="yes"/>
      <point x="475" y="269"/>
      <point x="505" y="169"/>
      <point x="566" y="98" type="curve" smooth="yes"/>
      <point x="629" y="25"/>
      <point x="712" y="-8"/>
      <point x="821" y="-8" type="curve" smooth="yes"/>
    </contour>
  </outline>
</glyph>
<glyph name="m" format="1">
  <advance width="1233"/>
  <unicode hex="006D"/>
  <note>
	m
  </note>
  <outline>
    <contour>
      <point x="276" y="0" type="line"/>
      <point x="276" y="641" type="line" smooth="yes"/>
      <point x="276" y="723"/>
      <point x="279" y="789"/>
      <point x="284" y="838" type="curve" smooth="yes"/>
      <point x="293" y="919"/>
      <point x="308" y="993"/>
      <point x="407" y="993" type="curve" smooth="yes"/>
      <point x="506" y="993"/>
      <point x="521" y="925"/>
      <point x="529" y="849" type="curve" smooth="yes"/>
      <point x="534" y="801"/>
      <point x="537" y="732"/>
      <point x="537" y="641" type="curve" smooth="yes"/>
      <point x="537" y="0" type="line"/>
      <point x="705" y="0" type="line"/>
      <point x="705" y="641" type="line" smooth="yes"/>
      <point x="705" y="724"/>
      <point x="707" y="786"/>
      <point x="712" y="829" type="curve" smooth="yes"/>
      <point x="723" y="921"/>
      <point x="743" y="959"/>
      <point x="777" y="979" type="curve"/>
      <point x="794" y="988"/>
      <point x="815" y="993"/>
      <point x="841" y="993" type="curve" smooth="yes"/>
      <point x="894" y="993"/>
      <point x="924" y="973"/>
      <point x="940" y="936" type="curve" smooth="yes"/>
      <point x="949" y="916"/>
      <point x="956" y="883"/>
      <point x="961" y="837" type="curve" smooth="yes"/>
      <point x="965" y="789"/>
      <point x="967" y="724"/>
      <point x="967" y="641" type="curve" smooth="yes"/>
      <point x="967" y="0" type="line"/>
      <point x="1135" y="0" type="line"/>
      <point x="1135" y="649" type="line" smooth="yes"/>
      <point x="1135" y="843"/>
      <point x="1117" y="974"/>
      <point x="1080" y="1043" type="curve" smooth="yes"/>
      <point x="1044" y="1112"/>
      <point x="980" y="1147"/>
      <point x="889" y="1147" type="curve" smooth="yes"/>
      <point x="790" y="1147"/>
      <point x="723" y="1103"/>
      <point x="676" y="1006" type="curve"/>
      <point x="637" y="1102"/>
      <point x="571" y="1147"/>
      <point x="472" y="1147" type="curve" smooth="yes"/>
      <point x="388" y="1147"/>
      <point x="320" y="1104"/>
      <point x="276" y="1024" type="curve"/>
      <point x="260" y="1120" type="line"/>
      <point x="109" y="1120" type="line"/>
      <point x="109" y="0" type="line"/>
    </contour>
  </outline>
</glyph>
<glyph name="p" format="1">
  <advance width="1233"/>
  <unicode hex="0070"/>
  <note>
	p
  </note>
  <outline>
    <contour>
      <point x="375" y="-426" type="line"/>
      <point x="375" y="141" type="line"/>
      <point x="404" y="87"/>
      <point x="445" y="45"/>
      <point x="496" y="15" type="curve" smooth="yes"/>
      <point x="548" y="-14"/>
      <point x="601" y="-29"/>
      <point x="674" y="-29" type="curve" smooth="yes"/>
      <point x="853" y="-29"/>
      <point x="986" y="67"/>
      <point x="1056" y="243" type="curve" smooth="yes"/>
      <point x="1091" y="331"/>
      <point x="1108" y="436"/>
      <point x="1108" y="557" type="curve" smooth="yes"/>
      <point x="1108" y="925"/>
      <point x="946" y="1147"/>
      <point x="675" y="1147" type="curve" smooth="yes"/>
      <point x="540" y="1147"/>
      <point x="438" y="1089"/>
      <point x="375" y="977" type="curve"/>
      <point x="357" y="1120" type="line"/>
      <point x="190" y="1120" type="line"/>
      <point x="190" y="-426" type="line"/>
    </contour>
    <contour>
      <point x="468" y="127"/>
      <point x="375" y="275"/>
      <point x="375" y="559" type="curve" smooth="yes"/>
      <point x="375" y="843"/>
      <point x="468" y="991"/>
      <point x="647" y="991" type="curve" smooth="yes"/>
      <point x="826" y="991"/>
      <point x="915" y="844"/>
      <point x="915" y="559" type="curve" smooth="yes"/>
      <point x="915" y="274"/>
      <point x="826" y="127"/>
      <point x="647" y="127" type="curve" smooth="yes"/>
    </contour>
  </outline>
</glyph>
<glyph name="q" format="1">
  <advance width="1233"/>
  <unicode hex="0071"/>
  <note>
	q
  </note>
  <outline>
    <contour>
      <point x="1055" y="-430" type="line"/>
      <point x="1055" y="1116" type="line"/>
      <point x="888" y="1116" type="line"/>
      <point x="870" y="973" type="line"/>
      <point x="807" y="1085"/>
      <point x="706" y="1143"/>
      <point x="570" y="1143" type="curve" smooth="yes"/>
      <point x="438" y="1143"/>
      <point x="330" y="1091"/>
      <point x="253" y="987" type="curve" smooth="yes"/>
      <point x="176" y="882"/>
      <point x="137" y="737"/>
      <point x="137" y="551" type="curve" smooth="yes"/>
      <point x="137" y="187"/>
      <point x="304" y="-33"/>
      <point x="569" y="-33" type="curve" smooth="yes"/>
      <point x="708" y="-33"/>
      <point x="807" y="26"/>
      <point x="870" y="139" type="curve"/>
      <point x="870" y="-430" type="line"/>
    </contour>
    <contour>
      <point x="423" y="123"/>
      <point x="332" y="271"/>
      <point x="332" y="555" type="curve" smooth="yes"/>
      <point x="332" y="839"/>
      <point x="423" y="987"/>
      <point x="600" y="987" type="curve" smooth="yes"/>
      <point x="779" y="987"/>
      <point x="870" y="839"/>
      <point x="870" y="555" type="curve" smooth="yes"/>
      <point x="870" y="272"/>
      <point x="778" y="123"/>
      <point x="599" y="123" type="curve" smooth="yes"/>
    </contour>
  </outline>
</glyph>
<glyph name="r" format="1">
  <advance width="1233"/>
  <unicode hex="0072"/>
  <note>
	r
  </note>
  <outline>
    <contour>
      <point x="487" y="0" type="line"/>
      <point x="487" y="557" type="line" smooth="yes"/>
      <point x="487" y="829"/>
      <point x="612" y="977"/>
      <point x="840" y="977" type="curve" smooth="yes"/>
      <point x="937" y="977"/>
      <point x="1020" y="949"/>
      <point x="1095" y="889" type="curve"/>
      <point x="1095" y="1077" type="line"/>
      <point x="1026" y="1125"/>
      <point x="942" y="1147"/>
      <point x="854" y="1147" type="curve" smooth="yes"/>
      <point x="679" y="1147"/>
      <point x="550" y="1060"/>
      <point x="487" y="901" type="curve"/>
      <point x="469" y="1120" type="line"/>
      <point x="302" y="1120" type="line"/>
      <point x="302" y="0" type="line"/>
    </contour>
  </outline>
</glyph>
<glyph name="s" format="1">
  <advance width="1233"/>
  <unicode hex="0073"/>
  <note>
	s
  </note>
  <outline>
    <contour>
      <point x="861" y="-29"/>
      <point x="1030" y="103"/>
      <point x="1030" y="323" type="curve" smooth="yes"/>
      <point x="1030" y="408"/>
      <point x="1007" y="476"/>
      <point x="960" y="527" type="curve" smooth="yes"/>
      <point x="915" y="578"/>
      <point x="846" y="612"/>
      <point x="752" y="631" type="curve" smooth="yes"/>
      <point x="678" y="645" type="line" smooth="yes"/>
      <point x="609" y="658"/>
      <point x="558" y="671"/>
      <point x="526" y="682" type="curve"/>
      <point x="454" y="703"/>
      <point x="430" y="726"/>
      <point x="415" y="764" type="curve" smooth="yes"/>
      <point x="407" y="783"/>
      <point x="403" y="804"/>
      <point x="403" y="828" type="curve" smooth="yes"/>
      <point x="403" y="940"/>
      <point x="486" y="993"/>
      <point x="647" y="993" type="curve" smooth="yes"/>
      <point x="762" y="993"/>
      <point x="866" y="964"/>
      <point x="973" y="901" type="curve"/>
      <point x="973" y="1081" type="line"/>
      <point x="872" y="1122"/>
      <point x="759" y="1147"/>
      <point x="639" y="1147" type="curve" smooth="yes"/>
      <point x="366" y="1147"/>
      <point x="217" y="1028"/>
      <point x="217" y="812" type="curve" smooth="yes"/>
      <point x="217" y="641"/>
      <point x="310" y="549"/>
      <point x="522" y="506" type="curve" smooth="yes"/>
      <point x="591" y="492" type="line"/>
      <point x="599" y="490" type="line"/>
      <point x="768" y="455"/>
      <point x="844" y="399"/>
      <point x="844" y="307" type="curve" smooth="yes"/>
      <point x="844" y="256"/>
      <point x="822" y="208"/>
      <point x="777" y="175" type="curve" smooth="yes"/>
      <point x="732" y="142"/>
      <point x="669" y="125"/>
      <point x="588" y="125" type="curve" smooth="yes"/>
      <point x="534" y="125"/>
      <point x="475" y="134"/>
      <point x="410" y="152" type="curve" smooth="yes"/>
      <point x="349" y="169"/>
      <point x="293" y="191"/>
      <point x="213" y="231" type="curve"/>
      <point x="213" y="41" type="line"/>
      <point x="348" y="-3"/>
      <point x="467" y="-29"/>
      <point x="590" y="-29" type="curve" smooth="yes"/>
    </contour>
  </outline>
</glyph>
<glyph name="t" format="1">
  <advance width="1233"/>
  <unicode hex="0074"/>
  <note>
	t
  </note>
  <outline>
    <contour>
      <point x="1032" y="-4" type="line"/>
      <point x="1032" y="143" type="line"/>
      <point x="825" y="143" type="line" smooth="yes"/>
      <point x="720" y="143"/>
      <point x="661" y="170"/>
      <point x="634" y="234" type="curve" smooth="yes"/>
      <point x="621" y="266"/>
      <point x="614" y="310"/>
      <point x="614" y="365" type="curve" smooth="yes"/>
      <point x="614" y="977" type="line"/>
      <point x="1032" y="977" type="line"/>
      <point x="1032" y="1120" type="line"/>
      <point x="614" y="1120" type="line"/>
      <point x="614" y="1493" type="line"/>
      <point x="430" y="1413" type="line"/>
      <point x="430" y="1120" type="line"/>
      <point x="131" y="1120" type="line"/>
      <point x="131" y="977" type="line"/>
      <point x="430" y="977" type="line"/>
      <point x="430" y="365" type="line" smooth="yes"/>
      <point x="430" y="182"/>
      <point x="477" y="80"/>
      <point x="586" y="32" type="curve" smooth="yes"/>
      <point x="641" y="8"/>
      <point x="714" y="-4"/>
      <point x="807" y="-4" type="curve" smooth="yes"/>
    </contour>
  </outline>
</glyph>
<glyph name="y" format="1">
  <advance width="1233"/>
  <unicode hex="0079"/>
  <note>
	y
  </note>
  <outline>
    <contour>
      <point x="332" y="-426" type="line" smooth="yes"/>
      <point x="393" y="-426"/>
      <point x="447" y="-413"/>
      <point x="493" y="-387" type="curve" smooth="yes"/>
      <point x="544" y="-359"/>
      <point x="577" y="-321"/>
      <point x="608" y="-268" type="curve" smooth="yes"/>
      <point x="623" y="-241"/>
      <point x="637" y="-210"/>
      <point x="652" y="-175" type="curve" smooth="yes"/>
      <point x="673" y="-126"/>
      <point x="703" y="-51"/>
      <point x="741" y="52" type="curve" smooth="yes"/>
      <point x="766" y="119" type="line"/>
      <point x="779" y="156" type="line"/>
      <point x="800" y="211" type="line"/>
      <point x="821" y="264" type="line"/>
      <point x="858" y="360" type="line"/>
      <point x="1153" y="1120" type="line"/>
      <point x="958" y="1120" type="line"/>
      <point x="631" y="244" type="line"/>
      <point x="299" y="1120" type="line"/>
      <point x="104" y="1120" type="line"/>
      <point x="537" y="18" type="line"/>
      <point x="510" y="-57"/>
      <point x="487" y="-112"/>
      <point x="470" y="-146" type="curve" smooth="yes"/>
      <point x="429" y="-226"/>
      <point x="400" y="-272"/>
      <point x="293" y="-272" type="curve" smooth="yes"/>
      <point x="184" y="-272" type="line"/>
      <point x="184" y="-426" type="line"/>
    </contour>
  </outline>
</glyph>
<glyph name="braceleft" format="1">
  <advance width="1233"/>
  <unicode hex="007B"/>
  <note>
	braceleft
  </note>
  <outline>
    <contour>
      <point x="972" y="-253" type="line"/>
      <point x="972" y="-109" type="line"/>
      <point x="902" y="-109" type="line" smooth="yes"/>
      <point x="773" y="-109"/>
      <point x="718" y="-90"/>
      <point x="695" y="-26" type="curve" smooth="yes"/>
      <point x="683" y="5"/>
      <point x="677" y="54"/>
      <point x="677" y="120" type="curve" smooth="yes"/>
      <point x="677" y="368" type="line" smooth="yes"/>
      <point x="677" y="508"/>
      <point x="653" y="590"/>
      <point x="595" y="639" type="curve" smooth="yes"/>
      <point x="566" y="663"/>
      <point x="526" y="681"/>
      <point x="476" y="693" type="curve"/>
      <point x="623" y="726"/>
      <point x="677" y="808"/>
      <point x="677" y="1017" type="curve" smooth="yes"/>
      <point x="677" y="1265" type="line" smooth="yes"/>
      <point x="677" y="1397"/>
      <point x="697" y="1453"/>
      <point x="759" y="1477" type="curve" smooth="yes"/>
      <point x="790" y="1488"/>
      <point x="837" y="1494"/>
      <point x="902" y="1494" type="curve" smooth="yes"/>
      <point x="972" y="1494" type="line"/>
      <point x="972" y="1637" type="line"/>
      <point x="908" y="1637" type="line" smooth="yes"/>
      <point x="679" y="1637"/>
      <point x="573" y="1602"/>
      <point x="526" y="1499" type="curve" smooth="yes"/>
      <point x="502" y="1447"/>
      <point x="490" y="1370"/>
      <point x="490" y="1269" type="curve" smooth="yes"/>
      <point x="490" y="1029" type="line" smooth="yes"/>
      <point x="490" y="894"/>
      <point x="463" y="822"/>
      <point x="392" y="790" type="curve" smooth="yes"/>
      <point x="356" y="773"/>
      <point x="306" y="765"/>
      <point x="243" y="765" type="curve" smooth="yes"/>
      <point x="127" y="765" type="line"/>
      <point x="127" y="622" type="line"/>
      <point x="243" y="622" type="line" smooth="yes"/>
      <point x="370" y="622"/>
      <point x="436" y="591"/>
      <point x="467" y="515" type="curve" smooth="yes"/>
      <point x="482" y="476"/>
      <point x="490" y="423"/>
      <point x="490" y="355" type="curve" smooth="yes"/>
      <point x="490" y="116" type="line" smooth="yes"/>
      <point x="490" y="-87"/>
      <point x="533" y="-181"/>
      <point x="650" y="-222" type="curve" smooth="yes"/>
      <point x="709" y="-243"/>
      <point x="795" y="-253"/>
      <point x="908" y="-253" type="curve" smooth="yes"/>
    </contour>
  </outline>
</glyph>
<glyph name="braceright" format="1">
  <advance width="1233"/>
  <unicode hex="007D"/>
  <note>
	braceright
  </note>
  <outline>
    <contour>
      <point x="323" y="-262" type="line" smooth="yes"/>
      <point x="550" y="-262"/>
      <point x="657" y="-226"/>
      <point x="705" y="-122" type="curve" smooth="yes"/>
      <point x="728" y="-71"/>
      <point x="740" y="6"/>
      <point x="740" y="107" type="curve" smooth="yes"/>
      <point x="740" y="346" type="line" smooth="yes"/>
      <point x="740" y="449"/>
      <point x="767" y="514"/>
      <point x="824" y="555" type="curve" smooth="yes"/>
      <point x="875" y="594"/>
      <point x="950" y="613"/>
      <point x="1048" y="613" type="curve" smooth="yes"/>
      <point x="1112" y="613" type="line"/>
      <point x="1112" y="756" type="line"/>
      <point x="1048" y="756" type="line" smooth="yes"/>
      <point x="950" y="756"/>
      <point x="875" y="775"/>
      <point x="824" y="813" type="curve" smooth="yes"/>
      <point x="767" y="853"/>
      <point x="740" y="917"/>
      <point x="740" y="1020" type="curve" smooth="yes"/>
      <point x="740" y="1260" type="line" smooth="yes"/>
      <point x="740" y="1461"/>
      <point x="699" y="1556"/>
      <point x="582" y="1597" type="curve" smooth="yes"/>
      <point x="523" y="1618"/>
      <point x="437" y="1628"/>
      <point x="323" y="1628" type="curve" smooth="yes"/>
      <point x="261" y="1628" type="line"/>
      <point x="261" y="1485" type="line"/>
      <point x="329" y="1485" type="line" smooth="yes"/>
      <point x="458" y="1485"/>
      <point x="514" y="1465"/>
      <point x="538" y="1402" type="curve" smooth="yes"/>
      <point x="550" y="1370"/>
      <point x="556" y="1321"/>
      <point x="556" y="1256" type="curve" smooth="yes"/>
      <point x="556" y="1008" type="line" smooth="yes"/>
      <point x="556" y="799"/>
      <point x="610" y="719"/>
      <point x="757" y="684" type="curve"/>
      <point x="657" y="660"/>
      <point x="602" y="615"/>
      <point x="576" y="529" type="curve" smooth="yes"/>
      <point x="563" y="486"/>
      <point x="556" y="429"/>
      <point x="556" y="359" type="curve" smooth="yes"/>
      <point x="556" y="111" type="line" smooth="yes"/>
      <point x="556" y="-20"/>
      <point x="536" y="-76"/>
      <point x="473" y="-100" type="curve" smooth="yes"/>
      <point x="442" y="-112"/>
      <point x="394" y="-118"/>
      <point x="329" y="-118" type="curve" smooth="yes"/>
      <point x="261" y="-118" type="line"/>
      <point x="261" y="-262" type="line"/>
    </contour>
  </outline>
</glyph>
<glyph name="cent" format="1">
  <advance width="1233"/>
  <unicode hex="00A2"/>
  <note>
	cent
  </note>
  <outline>
    <contour>
      <point x="801" y="-313" type="line"/>
      <point x="801" y="-27" type="line"/>
      <point x="838" y="-25"/>
      <point x="878" y="-18"/>
      <point x="923" y="-7" type="curve" smooth="yes"/>
      <point x="974" y="6"/>
      <point x="1006" y="17"/>
      <point x="1061" y="41" type="curve"/>
      <point x="1061" y="213" type="line"/>
      <point x="989" y="168"/>
      <point x="880" y="128"/>
      <point x="801" y="123" type="curve"/>
      <point x="801" y="993" type="line"/>
      <point x="889" y="986"/>
      <point x="976" y="956"/>
      <point x="1061" y="905" type="curve"/>
      <point x="1061" y="1077" type="line"/>
      <point x="984" y="1112"/>
      <point x="894" y="1138"/>
      <point x="801" y="1145" type="curve"/>
      <point x="801" y="1432" type="line"/>
      <point x="698" y="1432" type="line"/>
      <point x="698" y="1145" type="line"/>
      <point x="547" y="1130"/>
      <point x="430" y="1071"/>
      <point x="345" y="967" type="curve" smooth="yes"/>
      <point x="260" y="864"/>
      <point x="210" y="718"/>
      <point x="210" y="558" type="curve" smooth="yes"/>
      <point x="210" y="401"/>
      <point x="259" y="256"/>
      <point x="344" y="152" type="curve" smooth="yes"/>
      <point x="431" y="45"/>
      <point x="547" y="-12"/>
      <point x="698" y="-27" type="curve"/>
      <point x="698" y="-313" type="line"/>
    </contour>
    <contour>
      <point x="698" y="127" type="line"/>
      <point x="610" y="136"/>
      <point x="541" y="178"/>
      <point x="486" y="258" type="curve" smooth="yes"/>
      <point x="433" y="337"/>
      <point x="406" y="438"/>
      <point x="406" y="559" type="curve" smooth="yes"/>
      <point x="406" y="720"/>
      <point x="456" y="851"/>
      <point x="544" y="927" type="curve" smooth="yes"/>
      <point x="588" y="964"/>
      <point x="639" y="986"/>
      <point x="698" y="991" type="curve"/>
    </contour>
  </outline>
</glyph>
<glyph name="sterling" format="1">
  <advance width="1233"/>
  <unicode hex="00A3"/>
  <note>
	sterling
  </note>
  <outline>
    <contour>
      <point x="1112" y="0" type="line"/>
      <point x="1112" y="170" type="line"/>
      <point x="575" y="170" type="line"/>
      <point x="575" y="635" type="line"/>
      <point x="946" y="635" type="line"/>
      <point x="946" y="778" type="line"/>
      <point x="575" y="778" type="line"/>
      <point x="575" y="995" type="line" smooth="yes"/>
      <point x="575" y="1251"/>
      <point x="657" y="1366"/>
      <point x="837" y="1366" type="curve" smooth="yes"/>
      <point x="928" y="1366"/>
      <point x="1008" y="1338"/>
      <point x="1092" y="1278" type="curve"/>
      <point x="1092" y="1462" type="line"/>
      <point x="993" y="1501"/>
      <point x="909" y="1520"/>
      <point x="810" y="1520" type="curve" smooth="yes"/>
      <point x="669" y="1520"/>
      <point x="557" y="1478"/>
      <point x="485" y="1395" type="curve" smooth="yes"/>
      <point x="412" y="1312"/>
      <point x="375" y="1185"/>
      <point x="375" y="1016" type="curve" smooth="yes"/>
      <point x="375" y="778" type="line"/>
      <point x="176" y="778" type="line"/>
      <point x="176" y="635" type="line"/>
      <point x="375" y="635" type="line"/>
      <point x="375" y="170" type="line"/>
      <point x="139" y="170" type="line"/>
      <point x="139" y="0" type="line"/>
    </contour>
  </outline>
</glyph>
<glyph name="section" format="1">
  <advance width="1233"/>
  <unicode hex="00A7"/>
  <note>
	section
  </note>
  <outline>
    <contour>
      <point x="710" y="-195"/>
      <point x="801" y="-167"/>
      <point x="869" y="-111" type="curve" smooth="yes"/>
      <point x="937" y="-55"/>
      <point x="971" y="22"/>
      <point x="971" y="111" type="curve" smooth="yes"/>
      <point x="971" y="204"/>
      <point x="932" y="271"/>
      <point x="852" y="340" type="curve"/>
      <point x="976" y="411"/>
      <point x="1036" y="503"/>
      <point x="1036" y="622" type="curve" smooth="yes"/>
      <point x="1036" y="693"/>
      <point x="1014" y="749"/>
      <point x="970" y="801" type="curve" smooth="yes"/>
      <point x="949" y="826"/>
      <point x="918" y="854"/>
      <point x="876" y="885" type="curve" smooth="yes"/>
      <point x="825" y="921"/>
      <point x="764" y="958"/>
      <point x="694" y="997" type="curve" smooth="yes"/>
      <point x="653" y="1020" type="line" smooth="yes"/>
      <point x="580" y="1061"/>
      <point x="528" y="1098"/>
      <point x="497" y="1133" type="curve"/>
      <point x="465" y="1166"/>
      <point x="449" y="1199"/>
      <point x="449" y="1232" type="curve" smooth="yes"/>
      <point x="449" y="1269"/>
      <point x="468" y="1309"/>
      <point x="503" y="1336" type="curve" smooth="yes"/>
      <point x="538" y="1363"/>
      <point x="588" y="1376"/>
      <point x="651" y="1376" type="curve" smooth="yes"/>
      <point x="731" y="1376"/>
      <point x="826" y="1350"/>
      <point x="936" y="1298" type="curve"/>
      <point x="936" y="1462" type="line"/>
      <point x="823" y="1502"/>
      <point x="730" y="1520"/>
      <point x="629" y="1520" type="curve" smooth="yes"/>
      <point x="525" y="1520"/>
      <point x="431" y="1495"/>
      <point x="364" y="1442" type="curve" smooth="yes"/>
      <point x="299" y="1391"/>
      <point x="264" y="1318"/>
      <point x="264" y="1230" type="curve" smooth="yes"/>
      <point x="264" y="1139"/>
      <point x="304" y="1062"/>
      <point x="383" y="1006" type="curve"/>
      <point x="263" y="941"/>
      <point x="199" y="844"/>
      <point x="199" y="724" type="curve" smooth="yes"/>
      <point x="199" y="587"/>
      <point x="281" y="514"/>
      <point x="365" y="457" type="curve" smooth="yes"/>
      <point x="406" y="428"/>
      <point x="465" y="392"/>
      <point x="541" y="348" type="curve" smooth="yes"/>
      <point x="565" y="334" type="line" smooth="yes"/>
      <point x="724" y="242"/>
      <point x="786" y="182"/>
      <point x="786" y="103" type="curve" smooth="yes"/>
      <point x="786" y="59"/>
      <point x="766" y="19"/>
      <point x="730" y="-9" type="curve" smooth="yes"/>
      <point x="693" y="-37"/>
      <point x="641" y="-51"/>
      <point x="573" y="-51" type="curve" smooth="yes"/>
      <point x="494" y="-51"/>
      <point x="396" y="-25"/>
      <point x="279" y="27" type="curve"/>
      <point x="279" y="-137" type="line"/>
      <point x="408" y="-178"/>
      <point x="494" y="-195"/>
      <point x="595" y="-195" type="curve" smooth="yes"/>
    </contour>
    <contour>
      <point x="575" y="505"/>
      <point x="483" y="563"/>
      <point x="434" y="611" type="curve" smooth="yes"/>
      <point x="386" y="656"/>
      <point x="362" y="701"/>
      <point x="362" y="753" type="curve" smooth="yes"/>
      <point x="362" y="788"/>
      <point x="373" y="815"/>
      <point x="393" y="846" type="curve" smooth="yes"/>
      <point x="412" y="875"/>
      <point x="443" y="905"/>
      <point x="485" y="936" type="curve"/>
      <point x="647" y="849"/>
      <point x="752" y="782"/>
      <point x="801" y="736" type="curve" smooth="yes"/>
      <point x="845" y="696"/>
      <point x="872" y="645"/>
      <point x="872" y="592" type="curve" smooth="yes"/>
      <point x="872" y="529"/>
      <point x="833" y="471"/>
      <point x="750" y="410" type="curve"/>
    </contour>
  </outline>
</glyph>
<glyph name="copyright" format="1">
  <advance width="1233"/>
  <unicode hex="00A9"/>
  <note>
	copyright
  </note>
  <outline>
    <contour>
      <point x="787" y="125"/>
      <point x="933" y="188"/>
      <point x="1052" y="307" type="curve" smooth="yes"/>
      <point x="1111" y="366"/>
      <point x="1159" y="437"/>
      <point x="1188" y="508" type="curve" smooth="yes"/>
      <point x="1218" y="579"/>
      <point x="1233" y="657"/>
      <point x="1233" y="742" type="curve" smooth="yes"/>
      <point x="1233" y="913"/>
      <point x="1172" y="1054"/>
      <point x="1051" y="1178" type="curve" smooth="yes"/>
      <point x="934" y="1298"/>
      <point x="785" y="1358"/>
      <point x="616" y="1358" type="curve" smooth="yes"/>
      <point x="449" y="1358"/>
      <point x="297" y="1297"/>
      <point x="182" y="1178" type="curve" smooth="yes"/>
      <point x="65" y="1059"/>
      <point x="0" y="913"/>
      <point x="0" y="741" type="curve" smooth="yes"/>
      <point x="0" y="572"/>
      <point x="65" y="423"/>
      <point x="181" y="307" type="curve" smooth="yes"/>
      <point x="297" y="191"/>
      <point x="447" y="125"/>
      <point x="616" y="125" type="curve" smooth="yes"/>
    </contour>
    <contour>
      <point x="477" y="227"/>
      <point x="354" y="279"/>
      <point x="254" y="379" type="curve" smooth="yes"/>
      <point x="155" y="478"/>
      <point x="102" y="602"/>
      <point x="102" y="742" type="curve" smooth="yes"/>
      <point x="102" y="882"/>
      <point x="153" y="1005"/>
      <point x="254" y="1106" type="curve" smooth="yes"/>
      <point x="353" y="1205"/>
      <point x="474" y="1255"/>
      <point x="616" y="1255" type="curve" smooth="yes"/>
      <point x="761" y="1255"/>
      <point x="880" y="1205"/>
      <point x="980" y="1106" type="curve" smooth="yes"/>
      <point x="1079" y="1006"/>
      <point x="1130" y="881"/>
      <point x="1130" y="741" type="curve" smooth="yes"/>
      <point x="1130" y="669"/>
      <point x="1118" y="604"/>
      <point x="1093" y="546" type="curve" smooth="yes"/>
      <point x="1069" y="487"/>
      <point x="1026" y="425"/>
      <point x="979" y="378" type="curve" smooth="yes"/>
      <point x="883" y="282"/>
      <point x="753" y="227"/>
      <point x="617" y="227" type="curve" smooth="yes"/>
    </contour>
    <contour>
      <point x="713" y="369"/>
      <point x="787" y="381"/>
      <point x="864" y="414" type="curve"/>
      <point x="864" y="518" type="line"/>
      <point x="801" y="485"/>
      <point x="726" y="467"/>
      <point x="657" y="467" type="curve" smooth="yes"/>
      <point x="568" y="467"/>
      <point x="503" y="490"/>
      <point x="455" y="538" type="curve" smooth="yes"/>
      <point x="408" y="585"/>
      <point x="385" y="652"/>
      <point x="385" y="739" type="curve" smooth="yes"/>
      <point x="385" y="826"/>
      <point x="409" y="897"/>
      <point x="453" y="945" type="curve" smooth="yes"/>
      <point x="498" y="994"/>
      <point x="560" y="1018"/>
      <point x="641" y="1018" type="curve" smooth="yes"/>
      <point x="717" y="1018"/>
      <point x="787" y="1000"/>
      <point x="864" y="963" type="curve"/>
      <point x="864" y="1071" type="line"/>
      <point x="788" y="1103"/>
      <point x="713" y="1116"/>
      <point x="638" y="1116" type="curve" smooth="yes"/>
      <point x="519" y="1116"/>
      <point x="422" y="1081"/>
      <point x="354" y="1016" type="curve" smooth="yes"/>
      <point x="286" y="949"/>
      <point x="250" y="854"/>
      <point x="250" y="741" type="curve" smooth="yes"/>
      <point x="250" y="626"/>
      <point x="286" y="533"/>
      <point x="353" y="469" type="curve" smooth="yes"/>
      <point x="423" y="402"/>
      <point x="518" y="369"/>
      <point x="638" y="369" type="curve" smooth="yes"/>
    </contour>
  </outline>
</glyph>
<glyph name="ordfeminine" format="1">
  <advance width="1233"/>
  <unicode hex="00AA"/>
  <note>
	ordfeminine
  </note>
  <outline>
    <contour>
      <point x="663" y="698"/>
      <point x="744" y="742"/>
      <point x="811" y="829" type="curve"/>
      <point x="825" y="717" type="line"/>
      <point x="954" y="717" type="line"/>
      <point x="954" y="1165" type="line" smooth="yes"/>
      <point x="954" y="1290"/>
      <point x="926" y="1377"/>
      <point x="867" y="1434" type="curve" smooth="yes"/>
      <point x="808" y="1491"/>
      <point x="720" y="1520"/>
      <point x="603" y="1520" type="curve" smooth="yes"/>
      <point x="516" y="1520"/>
      <point x="423" y="1503"/>
      <point x="332" y="1464" type="curve"/>
      <point x="332" y="1337" type="line"/>
      <point x="420" y="1380"/>
      <point x="502" y="1405"/>
      <point x="583" y="1405" type="curve" smooth="yes"/>
      <point x="654" y="1405"/>
      <point x="710" y="1390"/>
      <point x="751" y="1359" type="curve" smooth="yes"/>
      <point x="792" y="1328"/>
      <point x="811" y="1284"/>
      <point x="811" y="1223" type="curve" smooth="yes"/>
      <point x="811" y="1219" type="line"/>
      <point x="629" y="1219" type="line" smooth="yes"/>
      <point x="400" y="1219"/>
      <point x="270" y="1121"/>
      <point x="270" y="949" type="curve" smooth="yes"/>
      <point x="270" y="846"/>
      <point x="317" y="769"/>
      <point x="401" y="729" type="curve" smooth="yes"/>
      <point x="442" y="708"/>
      <point x="491" y="698"/>
      <point x="547" y="698" type="curve" smooth="yes"/>
    </contour>
    <contour>
      <point x="480" y="817"/>
      <point x="416" y="871"/>
      <point x="416" y="958" type="curve" smooth="yes"/>
      <point x="416" y="1062"/>
      <point x="492" y="1104"/>
      <point x="684" y="1104" type="curve" smooth="yes"/>
      <point x="811" y="1104" type="line"/>
      <point x="811" y="1075" type="line" smooth="yes"/>
      <point x="811" y="922"/>
      <point x="715" y="817"/>
      <point x="576" y="817" type="curve" smooth="yes"/>
    </contour>
    <contour>
      <point x="961" y="469" type="line"/>
      <point x="961" y="592" type="line"/>
      <point x="293" y="592" type="line"/>
      <point x="293" y="469" type="line"/>
    </contour>
  </outline>
</glyph>
<glyph name="registered" format="1">
  <advance width="1233"/>
  <unicode hex="00AE"/>
  <note>
	registered
  </note>
  <outline>
    <contour>
      <point x="787" y="125"/>
      <point x="933" y="188"/>
      <point x="1052" y="307" type="curve" smooth="yes"/>
      <point x="1111" y="366"/>
      <point x="1159" y="437"/>
      <point x="1188" y="508" type="curve" smooth="yes"/>
      <point x="1218" y="579"/>
      <point x="1233" y="657"/>
      <point x="1233" y="742" type="curve" smooth="yes"/>
      <point x="1233" y="913"/>
      <point x="1172" y="1054"/>
      <point x="1051" y="1178" type="curve" smooth="yes"/>
      <point x="934" y="1298"/>
      <point x="785" y="1358"/>
      <point x="616" y="1358" type="curve" smooth="yes"/>
      <point x="449" y="1358"/>
      <point x="297" y="1297"/>
      <point x="182" y="1178" type="curve" smooth="yes"/>
      <point x="65" y="1059"/>
      <point x="0" y="913"/>
      <point x="0" y="741" type="curve" smooth="yes"/>
      <point x="0" y="572"/>
      <point x="65" y="423"/>
      <point x="181" y="307" type="curve" smooth="yes"/>
      <point x="297" y="191"/>
      <point x="447" y="125"/>
      <point x="616" y="125" type="curve" smooth="yes"/>
    </contour>
    <contour>
      <point x="477" y="227"/>
      <point x="354" y="279"/>
      <point x="254" y="379" type="curve" smooth="yes"/>
      <point x="155" y="478"/>
      <point x="102" y="602"/>
      <point x="102" y="742" type="curve" smooth="yes"/>
      <point x="102" y="882"/>
      <point x="153" y="1005"/>
      <point x="254" y="1106" type="curve" smooth="yes"/>
      <point x="353" y="1205"/>
      <point x="474" y="1255"/>
      <point x="616" y="1255" type="curve" smooth="yes"/>
      <point x="761" y="1255"/>
      <point x="880" y="1205"/>
      <point x="980" y="1106" type="curve" smooth="yes"/>
      <point x="1079" y="1006"/>
      <point x="1130" y="881"/>
      <point x="1130" y="741" type="curve" smooth="yes"/>
      <point x="1130" y="669"/>
      <point x="1118" y="604"/>
      <point x="1093" y="546" type="curve" smooth="yes"/>
      <point x="1069" y="487"/>
      <point x="1026" y="425"/>
      <point x="979" y="378" type="curve" smooth="yes"/>
      <point x="883" y="282"/>
      <point x="753" y="227"/>
      <point x="617" y="227" type="curve" smooth="yes"/>
    </contour>
    <contour>
      <point x="492" y="406" type="line"/>
      <point x="492" y="702" type="line"/>
      <point x="547" y="702" type="line" smooth="yes"/>
      <point x="610" y="702"/>
      <point x="635" y="688"/>
      <point x="702" y="580" type="curve" smooth="yes"/>
      <point x="809" y="406" type="line"/>
      <point x="952" y="406" type="line"/>
      <point x="838" y="592" type="line"/>
      <point x="822" y="616" type="line" smooth="yes"/>
      <point x="802" y="644"/>
      <point x="790" y="661"/>
      <point x="786" y="666" type="curve" smooth="yes"/>
      <point x="771" y="685" type="line"/>
      <point x="750" y="708"/>
      <point x="734" y="720"/>
      <point x="723" y="723" type="curve"/>
      <point x="830" y="742"/>
      <point x="891" y="807"/>
      <point x="891" y="903" type="curve" smooth="yes"/>
      <point x="891" y="1035"/>
      <point x="796" y="1100"/>
      <point x="600" y="1100" type="curve" smooth="yes"/>
      <point x="362" y="1100" type="line"/>
      <point x="362" y="406" type="line"/>
    </contour>
    <contour>
      <point x="492" y="1016" type="line"/>
      <point x="594" y="1016" type="line" smooth="yes"/>
      <point x="713" y="1016"/>
      <point x="758" y="985"/>
      <point x="758" y="900" type="curve" smooth="yes"/>
      <point x="758" y="817"/>
      <point x="713" y="784"/>
      <point x="594" y="784" type="curve" smooth="yes"/>
      <point x="492" y="784" type="line"/>
    </contour>
  </outline>
</glyph>
<glyph name="degree" format="1">
  <advance width="1233"/>
  <unicode hex="00B0"/>
  <note>
	degree
  </note>
  <outline>
    <contour>
      <point x="701" y="885"/>
      <point x="783" y="919"/>
      <point x="842" y="976" type="curve" smooth="yes"/>
      <point x="901" y="1033"/>
      <point x="934" y="1114"/>
      <point x="934" y="1202" type="curve" smooth="yes"/>
      <point x="934" y="1244"/>
      <point x="926" y="1284"/>
      <point x="911" y="1322" type="curve" smooth="yes"/>
      <point x="898" y="1354"/>
      <point x="872" y="1394"/>
      <point x="843" y="1425" type="curve" smooth="yes"/>
      <point x="778" y="1490"/>
      <point x="707" y="1520"/>
      <point x="615" y="1520" type="curve" smooth="yes"/>
      <point x="527" y="1520"/>
      <point x="447" y="1487"/>
      <point x="390" y="1427" type="curve" smooth="yes"/>
      <point x="331" y="1367"/>
      <point x="299" y="1288"/>
      <point x="299" y="1199" type="curve" smooth="yes"/>
      <point x="299" y="1108"/>
      <point x="333" y="1030"/>
      <point x="388" y="975" type="curve" smooth="yes"/>
      <point x="447" y="916"/>
      <point x="527" y="885"/>
      <point x="612" y="885" type="curve" smooth="yes"/>
    </contour>
    <contour>
      <point x="510" y="1012"/>
      <point x="426" y="1094"/>
      <point x="426" y="1199" type="curve" smooth="yes"/>
      <point x="426" y="1251"/>
      <point x="446" y="1301"/>
      <point x="482" y="1337" type="curve" smooth="yes"/>
      <point x="515" y="1370"/>
      <point x="564" y="1391"/>
      <point x="616" y="1391" type="curve" smooth="yes"/>
      <point x="669" y="1391"/>
      <point x="718" y="1369"/>
      <point x="751" y="1336" type="curve" smooth="yes"/>
      <point x="787" y="1300"/>
      <point x="807" y="1252"/>
      <point x="807" y="1201" type="curve" smooth="yes"/>
      <point x="807" y="1148"/>
      <point x="789" y="1104"/>
      <point x="752" y="1067" type="curve" smooth="yes"/>
      <point x="719" y="1034"/>
      <point x="667" y="1012"/>
      <point x="614" y="1012" type="curve" smooth="yes"/>
    </contour>
  </outline>
</glyph>
<glyph name="plusminus" format="1">
  <advance width="1233"/>
  <unicode hex="00B1"/>
  <note>
	plusminus
  </note>
  <outline>
    <contour>
      <point x="700" y="340" type="line"/>
      <point x="700" y="672" type="line"/>
      <point x="1145" y="672" type="line"/>
      <point x="1145" y="842" type="line"/>
      <point x="700" y="842" type="line"/>
      <point x="700" y="1171" type="line"/>
      <point x="532" y="1171" type="line"/>
      <point x="532" y="842" type="line"/>
      <point x="88" y="842" type="line"/>
      <point x="88" y="672" type="line"/>
      <point x="532" y="672" type="line"/>
      <point x="532" y="340" type="line"/>
    </contour>
    <contour>
      <point x="1145" y="0" type="line"/>
      <point x="1145" y="170" type="line"/>
      <point x="88" y="170" type="line"/>
      <point x="88" y="0" type="line"/>
    </contour>
  </outline>
</glyph>
<glyph name="uni00B2" format="1">
  <advance width="1233"/>
  <unicode hex="00B2"/>
  <note>
	uni00B2
  </note>
  <outline>
    <contour>
      <point x="893" y="1120" type="line"/>
      <point x="893" y="1234" type="line"/>
      <point x="483" y="1234" type="line"/>
      <point x="694" y="1439" type="line" smooth="yes"/>
      <point x="768" y="1512"/>
      <point x="820" y="1571"/>
      <point x="850" y="1617" type="curve" smooth="yes"/>
      <point x="875" y="1656"/>
      <point x="887" y="1690"/>
      <point x="887" y="1734" type="curve" smooth="yes"/>
      <point x="887" y="1875"/>
      <point x="763" y="1972"/>
      <point x="576" y="1972" type="curve" smooth="yes"/>
      <point x="496" y="1972"/>
      <point x="417" y="1955"/>
      <point x="328" y="1916" type="curve"/>
      <point x="328" y="1791" type="line"/>
      <point x="412" y="1839"/>
      <point x="488" y="1863"/>
      <point x="555" y="1863" type="curve" smooth="yes"/>
      <point x="662" y="1863"/>
      <point x="735" y="1807"/>
      <point x="735" y="1727" type="curve" smooth="yes"/>
      <point x="735" y="1658"/>
      <point x="692" y="1604"/>
      <point x="645" y="1551" type="curve" smooth="yes"/>
      <point x="629" y="1532"/>
      <point x="598" y="1500"/>
      <point x="553" y="1456" type="curve" smooth="yes"/>
      <point x="322" y="1230" type="line"/>
      <point x="322" y="1120" type="line"/>
    </contour>
  </outline>
</glyph>
<glyph name="uni00B3" format="1">
  <advance width="1233"/>
  <unicode hex="00B3"/>
  <note>
	uni00B3
  </note>
  <outline>
    <contour>
      <point x="670" y="1109"/>
      <point x="781" y="1129"/>
      <point x="863" y="1202" type="curve" smooth="yes"/>
      <point x="904" y="1239"/>
      <point x="924" y="1293"/>
      <point x="924" y="1365" type="curve" smooth="yes"/>
      <point x="924" y="1476"/>
      <point x="856" y="1548"/>
      <point x="731" y="1576" type="curve"/>
      <point x="844" y="1603"/>
      <point x="903" y="1665"/>
      <point x="903" y="1760" type="curve" smooth="yes"/>
      <point x="903" y="1847"/>
      <point x="849" y="1914"/>
      <point x="756" y="1950" type="curve" smooth="yes"/>
      <point x="709" y="1967"/>
      <point x="655" y="1976"/>
      <point x="592" y="1976" type="curve" smooth="yes"/>
      <point x="524" y="1976"/>
      <point x="427" y="1958"/>
      <point x="354" y="1941" type="curve"/>
      <point x="354" y="1820" type="line"/>
      <point x="439" y="1852"/>
      <point x="509" y="1867"/>
      <point x="572" y="1867" type="curve" smooth="yes"/>
      <point x="600" y="1867"/>
      <point x="625" y="1865"/>
      <point x="646" y="1860" type="curve" smooth="yes"/>
      <point x="717" y="1844"/>
      <point x="752" y="1806"/>
      <point x="752" y="1747" type="curve" smooth="yes"/>
      <point x="752" y="1668"/>
      <point x="684" y="1625"/>
      <point x="561" y="1625" type="curve" smooth="yes"/>
      <point x="487" y="1625" type="line"/>
      <point x="487" y="1517" type="line"/>
      <point x="553" y="1517" type="line" smooth="yes"/>
      <point x="697" y="1517"/>
      <point x="772" y="1464"/>
      <point x="772" y="1371" type="curve" smooth="yes"/>
      <point x="772" y="1275"/>
      <point x="685" y="1218"/>
      <point x="556" y="1218" type="curve" smooth="yes"/>
      <point x="485" y="1218"/>
      <point x="410" y="1238"/>
      <point x="326" y="1271" type="curve"/>
      <point x="326" y="1150" type="line"/>
      <point x="407" y="1123"/>
      <point x="483" y="1109"/>
      <point x="562" y="1109" type="curve" smooth="yes"/>
    </contour>
  </outline>
</glyph>
<glyph name="uni03BC.1" format="1">
  <advance width="1233"/>
  <unicode hex="00B5"/>
  <note>
	uni03BC.1
  </note>
  <outline>
    <contour>
      <point x="332" y="-428" type="line"/>
      <point x="332" y="127" type="line"/>
      <point x="391" y="20"/>
      <point x="474" y="-29"/>
      <point x="594" y="-29" type="curve" smooth="yes"/>
      <point x="715" y="-29"/>
      <point x="800" y="21"/>
      <point x="863" y="129" type="curve"/>
      <point x="879" y="24"/>
      <point x="929" y="-29"/>
      <point x="1012" y="-29" type="curve" smooth="yes"/>
      <point x="1052" y="-29"/>
      <point x="1101" y="-15"/>
      <point x="1152" y="16" type="curve"/>
      <point x="1152" y="164" type="line"/>
      <point x="1115" y="145"/>
      <point x="1099" y="141"/>
      <point x="1083" y="141" type="curve" smooth="yes"/>
      <point x="1043" y="141"/>
      <point x="1021" y="177"/>
      <point x="1021" y="256" type="curve" smooth="yes"/>
      <point x="1021" y="1120" type="line"/>
      <point x="836" y="1120" type="line"/>
      <point x="836" y="467" type="line" smooth="yes"/>
      <point x="836" y="246"/>
      <point x="750" y="131"/>
      <point x="582" y="131" type="curve" smooth="yes"/>
      <point x="431" y="131"/>
      <point x="349" y="236"/>
      <point x="349" y="424" type="curve" smooth="yes"/>
      <point x="349" y="1120" type="line"/>
      <point x="165" y="1120" type="line"/>
      <point x="165" y="-428" type="line"/>
    </contour>
  </outline>
</glyph>
<glyph name="paragraph" format="1">
  <advance width="1233"/>
  <unicode hex="00B6"/>
  <note>
	paragraph
  </note>
  <outline>
    <contour>
      <point x="698" y="-197" type="line"/>
      <point x="698" y="1370" type="line"/>
      <point x="889" y="1370" type="line"/>
      <point x="889" y="-197" type="line"/>
      <point x="1030" y="-197" type="line"/>
      <point x="1030" y="1493" type="line"/>
      <point x="582" y="1493" type="line" smooth="yes"/>
      <point x="394" y="1493"/>
      <point x="245" y="1420"/>
      <point x="166" y="1292" type="curve" smooth="yes"/>
      <point x="126" y="1228"/>
      <point x="106" y="1154"/>
      <point x="106" y="1070" type="curve" smooth="yes"/>
      <point x="106" y="945"/>
      <point x="147" y="850"/>
      <point x="224" y="777" type="curve" smooth="yes"/>
      <point x="302" y="703"/>
      <point x="413" y="660"/>
      <point x="557" y="649" type="curve"/>
      <point x="557" y="-197" type="line"/>
    </contour>
  </outline>
</glyph>
<glyph name="periodcentered" format="1">
  <advance width="1233"/>
  <unicode hex="00B7"/>
  <note>
	periodcentered
  </note>
  <outline>
    <contour>
      <point x="676" y="576"/>
      <point x="728" y="606"/>
      <point x="757" y="658" type="curve" smooth="yes"/>
      <point x="771" y="683"/>
      <point x="778" y="712"/>
      <point x="778" y="745" type="curve" smooth="yes"/>
      <point x="778" y="810"/>
      <point x="747" y="864"/>
      <point x="698" y="893" type="curve" smooth="yes"/>
      <point x="673" y="907"/>
      <point x="646" y="914"/>
      <point x="616" y="914" type="curve" smooth="yes"/>
      <point x="556" y="914"/>
      <point x="504" y="884"/>
      <point x="476" y="833" type="curve" smooth="yes"/>
      <point x="461" y="807"/>
      <point x="454" y="778"/>
      <point x="454" y="745" type="curve" smooth="yes"/>
      <point x="454" y="680"/>
      <point x="485" y="626"/>
      <point x="534" y="598" type="curve" smooth="yes"/>
      <point x="559" y="583"/>
      <point x="586" y="576"/>
      <point x="616" y="576" type="curve" smooth="yes"/>
    </contour>
  </outline>
</glyph>
<glyph name="cedilla" format="1">
  <advance width="1233"/>
  <unicode hex="00B8"/>
  <note>
	cedilla
  </note>
  <outline>
    <contour>
      <point x="582" y="0" type="line"/>
      <point x="643" y="-89"/>
      <point x="670" y="-139"/>
      <point x="670" y="-180" type="curve" smooth="yes"/>
      <point x="670" y="-241"/>
      <point x="629" y="-272"/>
      <point x="546" y="-272" type="curve" smooth="yes"/>
      <point x="487" y="-272"/>
      <point x="446" y="-264"/>
      <point x="395" y="-240" type="curve"/>
      <point x="395" y="-371" type="line"/>
      <point x="451" y="-387"/>
      <point x="509" y="-395"/>
      <point x="570" y="-395" type="curve" smooth="yes"/>
      <point x="649" y="-395"/>
      <point x="708" y="-380"/>
      <point x="749" y="-350" type="curve" smooth="yes"/>
      <point x="789" y="-319"/>
      <point x="809" y="-272"/>
      <point x="809" y="-219" type="curve" smooth="yes"/>
      <point x="809" y="-186"/>
      <point x="800" y="-151"/>
      <point x="783" y="-115" type="curve" smooth="yes"/>
      <point x="764" y="-78"/>
      <point x="736" y="-40"/>
      <point x="700" y="0" type="curve"/>
    </contour>
  </outline>
</glyph>
<glyph name="uni00B9" format="1">
  <advance width="1233"/>
  <unicode hex="00B9"/>
  <note>
	uni00B9
  </note>
  <outline>
    <contour>
      <point x="915" y="1120" type="line"/>
      <point x="915" y="1230" type="line"/>
      <point x="711" y="1230" type="line"/>
      <point x="711" y="1955" type="line"/>
      <point x="573" y="1955" type="line"/>
      <point x="344" y="1916" type="line"/>
      <point x="344" y="1800" type="line"/>
      <point x="567" y="1841" type="line"/>
      <point x="567" y="1230" type="line"/>
      <point x="362" y="1230" type="line"/>
      <point x="362" y="1120" type="line"/>
    </contour>
  </outline>
</glyph>
<glyph name="ordmasculine" format="1">
  <advance width="1233"/>
  <unicode hex="00BA"/>
  <note>
	ordmasculine
  </note>
  <outline>
    <contour>
      <point x="844" y="698"/>
      <point x="989" y="860"/>
      <point x="989" y="1108" type="curve" smooth="yes"/>
      <point x="989" y="1357"/>
      <point x="846" y="1520"/>
      <point x="617" y="1520" type="curve" smooth="yes"/>
      <point x="390" y="1520"/>
      <point x="244" y="1357"/>
      <point x="244" y="1108" type="curve" smooth="yes"/>
      <point x="244" y="980"/>
      <point x="280" y="878"/>
      <point x="345" y="809" type="curve" smooth="yes"/>
      <point x="413" y="735"/>
      <point x="503" y="698"/>
      <point x="616" y="698" type="curve" smooth="yes"/>
    </contour>
    <contour>
      <point x="481" y="815"/>
      <point x="399" y="921"/>
      <point x="399" y="1108" type="curve" smooth="yes"/>
      <point x="399" y="1293"/>
      <point x="480" y="1403"/>
      <point x="617" y="1403" type="curve" smooth="yes"/>
      <point x="754" y="1403"/>
      <point x="834" y="1293"/>
      <point x="834" y="1110" type="curve" smooth="yes"/>
      <point x="834" y="1017"/>
      <point x="815" y="944"/>
      <point x="776" y="893" type="curve" smooth="yes"/>
      <point x="737" y="841"/>
      <point x="681" y="815"/>
      <point x="616" y="815" type="curve" smooth="yes"/>
    </contour>
    <contour>
      <point x="952" y="469" type="line"/>
      <point x="952" y="592" type="line"/>
      <point x="276" y="592" type="line"/>
      <point x="276" y="469" type="line"/>
    </contour>
  </outline>
</glyph>
<glyph name="onehalf" format="1">
  <advance width="1233"/>
  <unicode hex="00BD"/>
  <note>
	onehalf
  </note>
  <outline>
    <contour>
      <point x="657" y="824" type="line"/>
      <point x="657" y="934" type="line"/>
      <point x="453" y="934" type="line"/>
      <point x="453" y="1659" type="line"/>
      <point x="315" y="1659" type="line"/>
      <point x="86" y="1620" type="line"/>
      <point x="86" y="1504" type="line"/>
      <point x="309" y="1545" type="line"/>
      <point x="309" y="934" type="line"/>
      <point x="104" y="934" type="line"/>
      <point x="104" y="824" type="line"/>
    </contour>
    <contour>
      <point x="1114" y="766" type="line"/>
      <point x="1087" y="874" type="line"/>
      <point x="27" y="612" type="line"/>
      <point x="51" y="504" type="line"/>
    </contour>
    <contour>
      <point x="1094" y="-270" type="line"/>
      <point x="1094" y="-156" type="line"/>
      <point x="684" y="-156" type="line"/>
      <point x="895" y="49" type="line" smooth="yes"/>
      <point x="969" y="122"/>
      <point x="1021" y="181"/>
      <point x="1051" y="227" type="curve" smooth="yes"/>
      <point x="1076" y="266"/>
      <point x="1088" y="300"/>
      <point x="1088" y="344" type="curve" smooth="yes"/>
      <point x="1088" y="485"/>
      <point x="964" y="582"/>
      <point x="777" y="582" type="curve" smooth="yes"/>
      <point x="697" y="582"/>
      <point x="618" y="563"/>
      <point x="529" y="526" type="curve"/>
      <point x="529" y="401" type="line"/>
      <point x="613" y="449"/>
      <point x="689" y="473"/>
      <point x="756" y="473" type="curve" smooth="yes"/>
      <point x="863" y="473"/>
      <point x="936" y="417"/>
      <point x="936" y="337" type="curve" smooth="yes"/>
      <point x="936" y="268"/>
      <point x="893" y="214"/>
      <point x="846" y="161" type="curve" smooth="yes"/>
      <point x="830" y="142"/>
      <point x="799" y="110"/>
      <point x="754" y="66" type="curve" smooth="yes"/>
      <point x="523" y="-160" type="line"/>
      <point x="523" y="-270" type="line"/>
    </contour>
  </outline>
</glyph>
<glyph name="threequarters" format="1">
  <advance width="1233"/>
  <unicode hex="00BE"/>
  <note>
	threequarters
  </note>
  <outline>
    <contour>
      <point x="443" y="809"/>
      <point x="554" y="829"/>
      <point x="636" y="902" type="curve" smooth="yes"/>
      <point x="677" y="939"/>
      <point x="697" y="993"/>
      <point x="697" y="1065" type="curve" smooth="yes"/>
      <point x="697" y="1176"/>
      <point x="629" y="1248"/>
      <point x="504" y="1276" type="curve"/>
      <point x="617" y="1303"/>
      <point x="676" y="1365"/>
      <point x="676" y="1460" type="curve" smooth="yes"/>
      <point x="676" y="1547"/>
      <point x="622" y="1614"/>
      <point x="529" y="1650" type="curve" smooth="yes"/>
      <point x="482" y="1667"/>
      <point x="428" y="1676"/>
      <point x="365" y="1676" type="curve" smooth="yes"/>
      <point x="297" y="1676"/>
      <point x="200" y="1658"/>
      <point x="127" y="1641" type="curve"/>
      <point x="127" y="1520" type="line"/>
      <point x="212" y="1552"/>
      <point x="282" y="1567"/>
      <point x="345" y="1567" type="curve" smooth="yes"/>
      <point x="373" y="1567"/>
      <point x="398" y="1565"/>
      <point x="419" y="1560" type="curve" smooth="yes"/>
      <point x="490" y="1544"/>
      <point x="525" y="1506"/>
      <point x="525" y="1447" type="curve" smooth="yes"/>
      <point x="525" y="1368"/>
      <point x="457" y="1325"/>
      <point x="334" y="1325" type="curve" smooth="yes"/>
      <point x="260" y="1325" type="line"/>
      <point x="260" y="1217" type="line"/>
      <point x="326" y="1217" type="line" smooth="yes"/>
      <point x="470" y="1217"/>
      <point x="545" y="1164"/>
      <point x="545" y="1071" type="curve" smooth="yes"/>
      <point x="545" y="975"/>
      <point x="458" y="918"/>
      <point x="329" y="918" type="curve" smooth="yes"/>
      <point x="258" y="918"/>
      <point x="183" y="938"/>
      <point x="99" y="971" type="curve"/>
      <point x="99" y="850" type="line"/>
      <point x="180" y="823"/>
      <point x="256" y="809"/>
      <point x="335" y="809" type="curve" smooth="yes"/>
    </contour>
    <contour>
      <point x="1114" y="766" type="line"/>
      <point x="1087" y="874" type="line"/>
      <point x="27" y="612" type="line"/>
      <point x="51" y="504" type="line"/>
    </contour>
    <contour>
      <point x="977" y="-270" type="line"/>
      <point x="977" y="-84" type="line"/>
      <point x="1093" y="-84" type="line"/>
      <point x="1093" y="27" type="line"/>
      <point x="977" y="27" type="line"/>
      <point x="977" y="565" type="line"/>
      <point x="815" y="565" type="line"/>
      <point x="452" y="37" type="line"/>
      <point x="452" y="-84" type="line"/>
      <point x="839" y="-84" type="line"/>
      <point x="839" y="-270" type="line"/>
    </contour>
    <contour>
      <point x="839" y="440" type="line"/>
      <point x="839" y="27" type="line"/>
      <point x="565" y="27" type="line"/>
    </contour>
  </outline>
</glyph>
<glyph name="questiondown" format="1">
  <advance width="1233"/>
  <unicode hex="00BF"/>
  <note>
	questiondown
  </note>
  <outline>
    <contour>
      <point x="709" y="1252"/>
      <point x="756" y="1279"/>
      <point x="782" y="1326" type="curve" smooth="yes"/>
      <point x="795" y="1349"/>
      <point x="801" y="1376"/>
      <point x="801" y="1405" type="curve" smooth="yes"/>
      <point x="801" y="1494"/>
      <point x="738" y="1556"/>
      <point x="655" y="1556" type="curve" smooth="yes"/>
      <point x="612" y="1556"/>
      <point x="576" y="1539"/>
      <point x="551" y="1514" type="curve" smooth="yes"/>
      <point x="523" y="1486"/>
      <point x="509" y="1450"/>
      <point x="509" y="1405" type="curve" smooth="yes"/>
      <point x="509" y="1314"/>
      <point x="573" y="1252"/>
      <point x="656" y="1252" type="curve" smooth="yes"/>
    </contour>
    <contour>
      <point x="741" y="-27"/>
      <point x="861" y="10"/>
      <point x="989" y="86" type="curve"/>
      <point x="989" y="274" type="line"/>
      <point x="860" y="183"/>
      <point x="737" y="137"/>
      <point x="633" y="137" type="curve" smooth="yes"/>
      <point x="561" y="137"/>
      <point x="503" y="155"/>
      <point x="460" y="192" type="curve" smooth="yes"/>
      <point x="420" y="225"/>
      <point x="395" y="276"/>
      <point x="395" y="332" type="curve" smooth="yes"/>
      <point x="395" y="363"/>
      <point x="402" y="400"/>
      <point x="418" y="429" type="curve"/>
      <point x="434" y="461"/>
      <point x="464" y="492"/>
      <point x="504" y="532" type="curve" smooth="yes"/>
      <point x="594" y="621" type="line" smooth="yes"/>
      <point x="670" y="696"/>
      <point x="709" y="755"/>
      <point x="726" y="821" type="curve" smooth="yes"/>
      <point x="735" y="854"/>
      <point x="739" y="893"/>
      <point x="739" y="938" type="curve" smooth="yes"/>
      <point x="739" y="1092" type="line"/>
      <point x="549" y="1092" type="line"/>
      <point x="549" y="969" type="line" smooth="yes"/>
      <point x="549" y="961"/>
      <point x="548" y="947"/>
      <point x="547" y="927" type="curve"/>
      <point x="547" y="922" type="line" smooth="yes"/>
      <point x="547" y="878"/>
      <point x="541" y="843"/>
      <point x="528" y="817" type="curve"/>
      <point x="515" y="786"/>
      <point x="486" y="755"/>
      <point x="442" y="711" type="curve" smooth="yes"/>
      <point x="354" y="625" type="line" smooth="yes"/>
      <point x="230" y="504"/>
      <point x="193" y="429"/>
      <point x="193" y="324" type="curve" smooth="yes"/>
      <point x="193" y="220"/>
      <point x="232" y="131"/>
      <point x="304" y="68" type="curve" smooth="yes"/>
      <point x="377" y="5"/>
      <point x="477" y="-27"/>
      <point x="602" y="-27" type="curve" smooth="yes"/>
    </contour>
  </outline>
</glyph>
<glyph name="Agrave" format="1">
  <advance width="1233"/>
  <unicode hex="00C0"/>
  <note>
	Agrave
  </note>
  <outline>
    <contour>
      <point x="739" y="1585" type="line"/>
      <point x="542" y="1849" type="line"/>
      <point x="358" y="1849" type="line"/>
      <point x="585" y="1585" type="line"/>
    </contour>
    <contour>
      <point x="246" y="0" type="line"/>
      <point x="354" y="389" type="line"/>
      <point x="877" y="389" type="line"/>
      <point x="987" y="0" type="line"/>
      <point x="1196" y="0" type="line"/>
      <point x="739" y="1493" type="line"/>
      <point x="494" y="1493" type="line"/>
      <point x="37" y="0" type="line"/>
    </contour>
    <contour>
      <point x="616" y="1315" type="line"/>
      <point x="829" y="551" type="line"/>
      <point x="403" y="551" type="line"/>
    </contour>
  </outline>
</glyph>
<glyph name="Atilde" format="1">
  <advance width="1233"/>
  <unicode hex="00C3"/>
  <note>
	Atilde
  </note>
  <outline>
    <contour>
      <point x="412" y="1593" type="line" smooth="yes"/>
      <point x="412" y="1652"/>
      <point x="440" y="1688"/>
      <point x="485" y="1688" type="curve" smooth="yes"/>
      <point x="505" y="1688"/>
      <point x="534" y="1676"/>
      <point x="555" y="1663" type="curve" smooth="yes"/>
      <point x="612" y="1630" type="line"/>
      <point x="684" y="1593"/>
      <point x="718" y="1587"/>
      <point x="757" y="1587" type="curve" smooth="yes"/>
      <point x="832" y="1587"/>
      <point x="890" y="1624"/>
      <point x="922" y="1691" type="curve" smooth="yes"/>
      <point x="938" y="1724"/>
      <point x="946" y="1763"/>
      <point x="946" y="1806" type="curve"/>
      <point x="821" y="1806" type="line"/>
      <point x="821" y="1800" type="line" smooth="yes"/>
      <point x="821" y="1747"/>
      <point x="791" y="1708"/>
      <point x="750" y="1708" type="curve" smooth="yes"/>
      <point x="729" y="1708"/>
      <point x="705" y="1716"/>
      <point x="678" y="1733" type="curve"/>
      <point x="621" y="1763" type="line" smooth="yes"/>
      <point x="552" y="1800"/>
      <point x="515" y="1806"/>
      <point x="476" y="1806" type="curve" smooth="yes"/>
      <point x="361" y="1806"/>
      <point x="287" y="1720"/>
      <point x="287" y="1587" type="curve"/>
      <point x="412" y="1587" type="line"/>
    </contour>
    <contour>
      <point x="246" y="0" type="line"/>
      <point x="354" y="389" type="line"/>
      <point x="877" y="389" type="line"/>
      <point x="987" y="0" type="line"/>
      <point x="1196" y="0" type="line"/>
      <point x="739" y="1493" type="line"/>
      <point x="494" y="1493" type="line"/>
      <point x="37" y="0" type="line"/>
    </contour>
    <contour>
      <point x="616" y="1315" type="line"/>
      <point x="829" y="551" type="line"/>
      <point x="403" y="551" type="line"/>
    </contour>
  </outline>
</glyph>
<glyph name="Aring" format="1">
  <advance width="1233"/>
  <unicode hex="00C5"/>
  <note>
	Aring
  </note>
  <outline>
    <contour>
      <point x="246" y="0" type="line"/>
      <point x="354" y="389" type="line"/>
      <point x="877" y="389" type="line"/>
      <point x="987" y="0" type="line"/>
      <point x="1196" y="0" type="line"/>
      <point x="768" y="1399" type="line"/>
      <point x="848" y="1448"/>
      <point x="891" y="1529"/>
      <point x="891" y="1625" type="curve" smooth="yes"/>
      <point x="891" y="1704"/>
      <point x="861" y="1772"/>
      <point x="812" y="1821" type="curve" smooth="yes"/>
      <point x="761" y="1872"/>
      <point x="692" y="1901"/>
      <point x="616" y="1901" type="curve" smooth="yes"/>
      <point x="541" y="1901"/>
      <point x="471" y="1871"/>
      <point x="422" y="1822" type="curve" smooth="yes"/>
      <point x="371" y="1771"/>
      <point x="342" y="1702"/>
      <point x="342" y="1625" type="curve" smooth="yes"/>
      <point x="342" y="1526"/>
      <point x="388" y="1443"/>
      <point x="465" y="1399" type="curve"/>
      <point x="37" y="0" type="line"/>
    </contour>
    <contour>
      <point x="561" y="1475"/>
      <point x="512" y="1503"/>
      <point x="485" y="1550" type="curve" smooth="yes"/>
      <point x="472" y="1573"/>
      <point x="465" y="1599"/>
      <point x="465" y="1626" type="curve" smooth="yes"/>
      <point x="465" y="1683"/>
      <point x="494" y="1731"/>
      <point x="539" y="1758" type="curve" smooth="yes"/>
      <point x="562" y="1771"/>
      <point x="587" y="1778"/>
      <point x="615" y="1778" type="curve" smooth="yes"/>
      <point x="702" y="1778"/>
      <point x="768" y="1711"/>
      <point x="768" y="1626" type="curve" smooth="yes"/>
      <point x="768" y="1542"/>
      <point x="701" y="1475"/>
      <point x="616" y="1475" type="curve" smooth="yes"/>
    </contour>
    <contour>
      <point x="616" y="1311" type="line"/>
      <point x="829" y="551" type="line"/>
      <point x="403" y="551" type="line"/>
    </contour>
  </outline>
</glyph>
<glyph name="AE" format="1">
  <advance width="1233"/>
  <unicode hex="00C6"/>
  <note>
	AE
  </note>
  <outline>
    <contour>
      <point x="184" y="0" type="line"/>
      <point x="285" y="383" type="line"/>
      <point x="637" y="383" type="line"/>
      <point x="637" y="0" type="line"/>
      <point x="1180" y="0" type="line"/>
      <point x="1180" y="170" type="line"/>
      <point x="823" y="170" type="line"/>
      <point x="823" y="711" type="line"/>
      <point x="1130" y="711" type="line"/>
      <point x="1130" y="881" type="line"/>
      <point x="823" y="881" type="line"/>
      <point x="823" y="1323" type="line"/>
      <point x="1161" y="1323" type="line"/>
      <point x="1161" y="1493" type="line"/>
      <point x="410" y="1493" type="line"/>
      <point x="0" y="0" type="line"/>
    </contour>
    <contour>
      <point x="530" y="1323" type="line"/>
      <point x="637" y="1323" type="line"/>
      <point x="637" y="551" type="line"/>
      <point x="328" y="551" type="line"/>
    </contour>
  </outline>
</glyph>
<glyph name="Ccedilla" format="1">
  <advance width="1233"/>
  <unicode hex="00C7"/>
  <note>
	Ccedilla
  </note>
  <outline>
    <contour>
      <point x="856" y="1356"/>
      <point x="974" y="1314"/>
      <point x="1073" y="1231" type="curve"/>
      <point x="1073" y="1438" type="line"/>
      <point x="968" y="1494"/>
      <point x="866" y="1520"/>
      <point x="742" y="1520" type="curve" smooth="yes"/>
      <point x="553" y="1520"/>
      <point x="403" y="1449"/>
      <point x="298" y="1316" type="curve" smooth="yes"/>
      <point x="192" y="1180"/>
      <point x="139" y="989"/>
      <point x="139" y="744" type="curve" smooth="yes"/>
      <point x="139" y="501"/>
      <point x="192" y="311"/>
      <point x="297" y="174" type="curve" smooth="yes"/>
      <point x="394" y="51"/>
      <point x="528" y="-17"/>
      <point x="701" y="-28" type="curve"/>
      <point x="746" y="-95"/>
      <point x="770" y="-140"/>
      <point x="770" y="-180" type="curve" smooth="yes"/>
      <point x="770" y="-241"/>
      <point x="729" y="-272"/>
      <point x="646" y="-272" type="curve" smooth="yes"/>
      <point x="587" y="-272"/>
      <point x="546" y="-264"/>
      <point x="495" y="-240" type="curve"/>
      <point x="495" y="-371" type="line"/>
      <point x="551" y="-387"/>
      <point x="609" y="-395"/>
      <point x="670" y="-395" type="curve" smooth="yes"/>
      <point x="749" y="-395"/>
      <point x="808" y="-380"/>
      <point x="849" y="-350" type="curve" smooth="yes"/>
      <point x="889" y="-319"/>
      <point x="909" y="-272"/>
      <point x="909" y="-219" type="curve" smooth="yes"/>
      <point x="909" y="-152"/>
      <point x="879" y="-94"/>
      <point x="822" y="-25" type="curve"/>
      <point x="851" y="-22"/>
      <point x="882" y="-17"/>
      <point x="915" y="-9" type="curve" smooth="yes"/>
      <point x="968" y="5"/>
      <point x="1020" y="26"/>
      <point x="1073" y="53" type="curve"/>
      <point x="1073" y="260" type="line"/>
      <point x="974" y="177"/>
      <point x="862" y="135"/>
      <point x="742" y="135" type="curve" smooth="yes"/>
      <point x="483" y="135"/>
      <point x="350" y="337"/>
      <point x="350" y="745" type="curve" smooth="yes"/>
      <point x="350" y="1154"/>
      <point x="481" y="1356"/>
      <point x="741" y="1356" type="curve" smooth="yes"/>
    </contour>
  </outline>
</glyph>
<glyph name="Iacute" format="1">
  <advance width="1233"/>
  <unicode hex="00CD"/>
  <note>
	Iacute
  </note>
  <outline>
    <contour>
      <point x="648" y="1592" type="line"/>
      <point x="877" y="1856" type="line"/>
      <point x="691" y="1856" type="line"/>
      <point x="494" y="1592" type="line"/>
    </contour>
    <contour>
      <point x="1030" y="0" type="line"/>
      <point x="1030" y="170" type="line"/>
      <point x="717" y="170" type="line"/>
      <point x="717" y="1323" type="line"/>
      <point x="1030" y="1323" type="line"/>
      <point x="1030" y="1493" type="line"/>
      <point x="201" y="1493" type="line"/>
      <point x="201" y="1323" type="line"/>
      <point x="514" y="1323" type="line"/>
      <point x="514" y="170" type="line"/>
      <point x="201" y="170" type="line"/>
      <point x="201" y="0" type="line"/>
    </contour>
  </outline>
</glyph>
<glyph name="Eth" format="1">
  <advance width="1233"/>
  <unicode hex="00D0"/>
  <note>
	Eth
  </note>
  <outline>
    <contour>
      <point x="436" y="0" type="line" smooth="yes"/>
      <point x="891" y="0"/>
      <point x="1102" y="237"/>
      <point x="1102" y="746" type="curve" smooth="yes"/>
      <point x="1102" y="1087"/>
      <point x="1008" y="1305"/>
      <point x="812" y="1413" type="curve" smooth="yes"/>
      <point x="714" y="1466"/>
      <point x="589" y="1493"/>
      <point x="436" y="1493" type="curve" smooth="yes"/>
      <point x="133" y="1493" type="line"/>
      <point x="133" y="858" type="line"/>
      <point x="8" y="858" type="line"/>
      <point x="8" y="709" type="line"/>
      <point x="133" y="709" type="line"/>
      <point x="133" y="0" type="line"/>
    </contour>
    <contour>
      <point x="340" y="709" type="line"/>
      <point x="604" y="709" type="line"/>
      <point x="604" y="858" type="line"/>
      <point x="340" y="858" type="line"/>
      <point x="340" y="1327" type="line"/>
      <point x="436" y="1327" type="line" smooth="yes"/>
      <point x="611" y="1327"/>
      <point x="721" y="1288"/>
      <point x="792" y="1200" type="curve" smooth="yes"/>
      <point x="861" y="1109"/>
      <point x="893" y="972"/>
      <point x="893" y="748" type="curve" smooth="yes"/>
      <point x="893" y="523"/>
      <point x="860" y="381"/>
      <point x="791" y="293" type="curve" smooth="yes"/>
      <point x="723" y="208"/>
      <point x="612" y="166"/>
      <point x="436" y="166" type="curve" smooth="yes"/>
      <point x="340" y="166" type="line"/>
    </contour>
  </outline>
</glyph>
<glyph name="Ntilde" format="1">
  <advance width="1233"/>
  <unicode hex="00D1"/>
  <note>
	Ntilde
  </note>
  <outline>
    <contour>
      <point x="412" y="1639" type="line" smooth="yes"/>
      <point x="412" y="1698"/>
      <point x="440" y="1734"/>
      <point x="485" y="1734" type="curve" smooth="yes"/>
      <point x="505" y="1734"/>
      <point x="534" y="1722"/>
      <point x="555" y="1709" type="curve" smooth="yes"/>
      <point x="612" y="1676" type="line"/>
      <point x="684" y="1639"/>
      <point x="718" y="1633"/>
      <point x="757" y="1633" type="curve" smooth="yes"/>
      <point x="832" y="1633"/>
      <point x="890" y="1670"/>
      <point x="922" y="1737" type="curve" smooth="yes"/>
      <point x="938" y="1770"/>
      <point x="946" y="1809"/>
      <point x="946" y="1852" type="curve"/>
      <point x="821" y="1852" type="line"/>
      <point x="821" y="1846" type="line" smooth="yes"/>
      <point x="821" y="1793"/>
      <point x="791" y="1754"/>
      <point x="750" y="1754" type="curve" smooth="yes"/>
      <point x="729" y="1754"/>
      <point x="705" y="1762"/>
      <point x="678" y="1779" type="curve"/>
      <point x="621" y="1809" type="line" smooth="yes"/>
      <point x="552" y="1846"/>
      <point x="515" y="1852"/>
      <point x="476" y="1852" type="curve" smooth="yes"/>
      <point x="361" y="1852"/>
      <point x="287" y="1766"/>
      <point x="287" y="1633" type="curve"/>
      <point x="412" y="1633" type="line"/>
    </contour>
    <contour>
      <point x="334" y="0" type="line"/>
      <point x="334" y="1229" type="line"/>
      <point x="838" y="0" type="line"/>
      <point x="1094" y="0" type="line"/>
      <point x="1094" y="1493" type="line"/>
      <point x="899" y="1493" type="line"/>
      <point x="899" y="264" type="line"/>
      <point x="395" y="1493" type="line"/>
      <point x="139" y="1493" type="line"/>
      <point x="139" y="0" type="line"/>
    </contour>
  </outline>
</glyph>
<glyph name="Otilde" format="1">
  <advance width="1233"/>
  <unicode hex="00D5"/>
  <note>
	Otilde
  </note>
  <outline>
    <contour>
      <point x="412" y="1639" type="line" smooth="yes"/>
      <point x="412" y="1698"/>
      <point x="440" y="1734"/>
      <point x="485" y="1734" type="curve" smooth="yes"/>
      <point x="505" y="1734"/>
      <point x="534" y="1722"/>
      <point x="555" y="1709" type="curve" smooth="yes"/>
      <point x="612" y="1676" type="line"/>
      <point x="684" y="1639"/>
      <point x="718" y="1633"/>
      <point x="757" y="1633" type="curve" smooth="yes"/>
      <point x="832" y="1633"/>
      <point x="890" y="1670"/>
      <point x="922" y="1737" type="curve" smooth="yes"/>
      <point x="938" y="1770"/>
      <point x="946" y="1809"/>
      <point x="946" y="1852" type="curve"/>
      <point x="821" y="1852" type="line"/>
      <point x="821" y="1846" type="line" smooth="yes"/>
      <point x="821" y="1793"/>
      <point x="791" y="1754"/>
      <point x="750" y="1754" type="curve" smooth="yes"/>
      <point x="729" y="1754"/>
      <point x="705" y="1762"/>
      <point x="678" y="1779" type="curve"/>
      <point x="621" y="1809" type="line" smooth="yes"/>
      <point x="552" y="1846"/>
      <point x="515" y="1852"/>
      <point x="476" y="1852" type="curve" smooth="yes"/>
      <point x="361" y="1852"/>
      <point x="287" y="1766"/>
      <point x="287" y="1633" type="curve"/>
      <point x="412" y="1633" type="line"/>
    </contour>
    <contour>
      <point x="955" y="-29"/>
      <point x="1116" y="225"/>
      <point x="1116" y="745" type="curve" smooth="yes"/>
      <point x="1116" y="1266"/>
      <point x="955" y="1520"/>
      <point x="616" y="1520" type="curve" smooth="yes"/>
      <point x="445" y="1520"/>
      <point x="325" y="1457"/>
      <point x="241" y="1328" type="curve" smooth="yes"/>
      <point x="158" y="1201"/>
      <point x="117" y="1007"/>
      <point x="117" y="745" type="curve" smooth="yes"/>
      <point x="117" y="221"/>
      <point x="279" y="-29"/>
      <point x="616" y="-29" type="curve" smooth="yes"/>
    </contour>
    <contour>
      <point x="515" y="135"/>
      <point x="441" y="182"/>
      <point x="396" y="276" type="curve" smooth="yes"/>
      <point x="351" y="372"/>
      <point x="328" y="528"/>
      <point x="328" y="745" type="curve" smooth="yes"/>
      <point x="328" y="962"/>
      <point x="351" y="1119"/>
      <point x="396" y="1215" type="curve" smooth="yes"/>
      <point x="441" y="1309"/>
      <point x="515" y="1356"/>
      <point x="616" y="1356" type="curve" smooth="yes"/>
      <point x="719" y="1356"/>
      <point x="793" y="1309"/>
      <point x="838" y="1215" type="curve" smooth="yes"/>
      <point x="883" y="1123"/>
      <point x="905" y="966"/>
      <point x="905" y="745" type="curve" smooth="yes"/>
      <point x="905" y="524"/>
      <point x="883" y="367"/>
      <point x="838" y="276" type="curve" smooth="yes"/>
      <point x="793" y="182"/>
      <point x="719" y="135"/>
      <point x="616" y="135" type="curve" smooth="yes"/>
    </contour>
  </outline>
</glyph>
<glyph name="Odieresis" format="1">
  <advance width="1233"/>
  <unicode hex="00D6"/>
  <note>
	Odieresis
  </note>
  <outline>
    <contour>
      <point x="492" y="1647" type="line" smooth="yes"/>
      <point x="512" y="1647"/>
      <point x="522" y="1657"/>
      <point x="522" y="1677" type="curve" smooth="yes"/>
      <point x="522" y="1820" type="line" smooth="yes"/>
      <point x="522" y="1840"/>
      <point x="512" y="1850"/>
      <point x="492" y="1850" type="curve" smooth="yes"/>
      <point x="349" y="1850" type="line" smooth="yes"/>
      <point x="329" y="1850"/>
      <point x="319" y="1840"/>
      <point x="319" y="1820" type="curve" smooth="yes"/>
      <point x="319" y="1677" type="line" smooth="yes"/>
      <point x="319" y="1657"/>
      <point x="329" y="1647"/>
      <point x="349" y="1647" type="curve" smooth="yes"/>
    </contour>
    <contour>
      <point x="883" y="1647" type="line" smooth="yes"/>
      <point x="903" y="1647"/>
      <point x="913" y="1657"/>
      <point x="913" y="1677" type="curve" smooth="yes"/>
      <point x="913" y="1820" type="line" smooth="yes"/>
      <point x="913" y="1840"/>
      <point x="903" y="1850"/>
      <point x="883" y="1850" type="curve" smooth="yes"/>
      <point x="741" y="1850" type="line" smooth="yes"/>
      <point x="721" y="1850"/>
      <point x="711" y="1840"/>
      <point x="711" y="1820" type="curve" smooth="yes"/>
      <point x="711" y="1677" type="line" smooth="yes"/>
      <point x="711" y="1657"/>
      <point x="721" y="1647"/>
      <point x="741" y="1647" type="curve" smooth="yes"/>
    </contour>
    <contour>
      <point x="955" y="-29"/>
      <point x="1116" y="225"/>
      <point x="1116" y="745" type="curve" smooth="yes"/>
      <point x="1116" y="1266"/>
      <point x="955" y="1520"/>
      <point x="616" y="1520" type="curve" smooth="yes"/>
      <point x="445" y="1520"/>
      <point x="325" y="1457"/>
      <point x="241" y="1328" type="curve" smooth="yes"/>
      <point x="158" y="1201"/>
      <point x="117" y="1007"/>
      <point x="117" y="745" type="curve" smooth="yes"/>
      <point x="117" y="221"/>
      <point x="279" y="-29"/>
      <point x="616" y="-29" type="curve" smooth="yes"/>
    </contour>
    <contour>
      <point x="515" y="135"/>
      <point x="441" y="182"/>
      <point x="396" y="276" type="curve" smooth="yes"/>
      <point x="351" y="372"/>
      <point x="328" y="528"/>
      <point x="328" y="745" type="curve" smooth="yes"/>
      <point x="328" y="962"/>
      <point x="351" y="1119"/>
      <point x="396" y="1215" type="curve" smooth="yes"/>
      <point x="441" y="1309"/>
      <point x="515" y="1356"/>
      <point x="616" y="1356" type="curve" smooth="yes"/>
      <point x="719" y="1356"/>
      <point x="793" y="1309"/>
      <point x="838" y="1215" type="curve" smooth="yes"/>
      <point x="883" y="1123"/>
      <point x="905" y="966"/>
      <point x="905" y="745" type="curve" smooth="yes"/>
      <point x="905" y="524"/>
      <point x="883" y="367"/>
      <point x="838" y="276" type="curve" smooth="yes"/>
      <point x="793" y="182"/>
      <point x="719" y="135"/>
      <point x="616" y="135" type="curve" smooth="yes"/>
    </contour>
  </outline>
</glyph>
<glyph name="Oslash" format="1">
  <advance width="1233"/>
  <unicode hex="00D8"/>
  <note>
	Oslash
  </note>
  <outline>
    <contour>
      <point x="254" y="133" type="line"/>
      <point x="335" y="25"/>
      <point x="456" y="-29"/>
      <point x="612" y="-29" type="curve" smooth="yes"/>
      <point x="788" y="-29"/>
      <point x="912" y="36"/>
      <point x="993" y="163" type="curve" smooth="yes"/>
      <point x="1075" y="291"/>
      <point x="1116" y="485"/>
      <point x="1116" y="744" type="curve" smooth="yes"/>
      <point x="1116" y="969"/>
      <point x="1083" y="1148"/>
      <point x="1032" y="1247" type="curve"/>
      <point x="1200" y="1485" type="line"/>
      <point x="1100" y="1559" type="line"/>
      <point x="961" y="1358" type="line"/>
      <point x="884" y="1466"/>
      <point x="766" y="1520"/>
      <point x="615" y="1520" type="curve" smooth="yes"/>
      <point x="448" y="1520"/>
      <point x="325" y="1459"/>
      <point x="241" y="1328" type="curve" smooth="yes"/>
      <point x="157" y="1199"/>
      <point x="117" y="1011"/>
      <point x="117" y="740" type="curve" smooth="yes"/>
      <point x="117" y="639"/>
      <point x="123" y="545"/>
      <point x="136" y="456" type="curve" smooth="yes"/>
      <point x="149" y="363"/>
      <point x="163" y="303"/>
      <point x="186" y="252" type="curve"/>
      <point x="8" y="0" type="line"/>
      <point x="111" y="-70" type="line"/>
    </contour>
    <contour>
      <point x="338" y="471" type="line"/>
      <point x="335" y="496"/>
      <point x="333" y="514"/>
      <point x="333" y="524" type="curve"/>
      <point x="331" y="556" type="line"/>
      <point x="330" y="563"/>
      <point x="330" y="573"/>
      <point x="330" y="586" type="curve"/>
      <point x="329" y="611"/>
      <point x="328" y="632"/>
      <point x="328" y="647" type="curve" smooth="yes"/>
      <point x="328" y="686" type="line" smooth="yes"/>
      <point x="328" y="951"/>
      <point x="349" y="1108"/>
      <point x="394" y="1208" type="curve" smooth="yes"/>
      <point x="438" y="1307"/>
      <point x="506" y="1356"/>
      <point x="615" y="1356" type="curve" smooth="yes"/>
      <point x="734" y="1356"/>
      <point x="810" y="1295"/>
      <point x="842" y="1190" type="curve"/>
    </contour>
    <contour>
      <point x="504" y="135"/>
      <point x="411" y="199"/>
      <point x="371" y="303" type="curve"/>
      <point x="885" y="1036" type="line"/>
      <point x="898" y="976"/>
      <point x="905" y="881"/>
      <point x="905" y="748" type="curve" smooth="yes"/>
      <point x="905" y="513"/>
      <point x="882" y="369"/>
      <point x="838" y="277" type="curve" smooth="yes"/>
      <point x="794" y="184"/>
      <point x="724" y="135"/>
      <point x="617" y="135" type="curve" smooth="yes"/>
    </contour>
  </outline>
</glyph>
<glyph name="Udieresis" format="1">
  <advance width="1233"/>
  <unicode hex="00DC"/>
  <note>
	Udieresis
  </note>
  <outline>
    <contour>
      <point x="492" y="1647" type="line" smooth="yes"/>
      <point x="512" y="1647"/>
      <point x="522" y="1657"/>
      <point x="522" y="1677" type="curve" smooth="yes"/>
      <point x="522" y="1820" type="line" smooth="yes"/>
      <point x="522" y="1840"/>
      <point x="512" y="1850"/>
      <point x="492" y="1850" type="curve" smooth="yes"/>
      <point x="349" y="1850" type="line" smooth="yes"/>
      <point x="329" y="1850"/>
      <point x="319" y="1840"/>
      <point x="319" y="1820" type="curve" smooth="yes"/>
      <point x="319" y="1677" type="line" smooth="yes"/>
      <point x="319" y="1657"/>
      <point x="329" y="1647"/>
      <point x="349" y="1647" type="curve" smooth="yes"/>
    </contour>
    <contour>
      <point x="883" y="1647" type="line" smooth="yes"/>
      <point x="903" y="1647"/>
      <point x="913" y="1657"/>
      <point x="913" y="1677" type="curve" smooth="yes"/>
      <point x="913" y="1820" type="line" smooth="yes"/>
      <point x="913" y="1840"/>
      <point x="903" y="1850"/>
      <point x="883" y="1850" type="curve" smooth="yes"/>
      <point x="741" y="1850" type="line" smooth="yes"/>
      <point x="721" y="1850"/>
      <point x="711" y="1840"/>
      <point x="711" y="1820" type="curve" smooth="yes"/>
      <point x="711" y="1677" type="line" smooth="yes"/>
      <point x="711" y="1657"/>
      <point x="721" y="1647"/>
      <point x="741" y="1647" type="curve" smooth="yes"/>
    </contour>
    <contour>
      <point x="757" y="-29"/>
      <point x="880" y="16"/>
      <point x="959" y="88" type="curve" smooth="yes"/>
      <point x="1054" y="173"/>
      <point x="1070" y="280"/>
      <point x="1078" y="368" type="curve" smooth="yes"/>
      <point x="1083" y="427"/>
      <point x="1085" y="496"/>
      <point x="1085" y="573" type="curve" smooth="yes"/>
      <point x="1085" y="1493" type="line"/>
      <point x="883" y="1493" type="line"/>
      <point x="883" y="479" type="line" smooth="yes"/>
      <point x="883" y="408"/>
      <point x="881" y="356"/>
      <point x="877" y="325" type="curve" smooth="yes"/>
      <point x="870" y="269"/>
      <point x="845" y="206"/>
      <point x="764" y="166" type="curve" smooth="yes"/>
      <point x="723" y="145"/>
      <point x="674" y="135"/>
      <point x="616" y="135" type="curve" smooth="yes"/>
      <point x="501" y="135"/>
      <point x="423" y="180"/>
      <point x="389" y="233" type="curve" smooth="yes"/>
      <point x="355" y="286"/>
      <point x="350" y="337"/>
      <point x="350" y="481" type="curve" smooth="yes"/>
      <point x="350" y="1493" type="line"/>
      <point x="147" y="1493" type="line"/>
      <point x="147" y="573" type="line" smooth="yes"/>
      <point x="147" y="420"/>
      <point x="156" y="313"/>
      <point x="177" y="249" type="curve" smooth="yes"/>
      <point x="200" y="176"/>
      <point x="230" y="127"/>
      <point x="273" y="88" type="curve" smooth="yes"/>
      <point x="312" y="53"/>
      <point x="364" y="23"/>
      <point x="427" y="0" type="curve" smooth="yes"/>
      <point x="484" y="-19"/>
      <point x="547" y="-29"/>
      <point x="616" y="-29" type="curve" smooth="yes"/>
    </contour>
  </outline>
</glyph>
<glyph name="Thorn" format="1">
  <advance width="1233"/>
  <unicode hex="00DE"/>
  <note>
	Thorn
  </note>
  <outline>
    <contour>
      <point x="403" y="0" type="line"/>
      <point x="403" y="367" type="line"/>
      <point x="657" y="367" type="line" smooth="yes"/>
      <point x="1004" y="367"/>
      <point x="1165" y="503"/>
      <point x="1165" y="794" type="curve" smooth="yes"/>
      <point x="1165" y="1086"/>
      <point x="1002" y="1223"/>
      <point x="657" y="1223" type="curve" smooth="yes"/>
      <point x="403" y="1223" type="line"/>
      <point x="403" y="1493" type="line"/>
      <point x="201" y="1493" type="line"/>
      <point x="201" y="0" type="line"/>
    </contour>
    <contour>
      <point x="403" y="1057" type="line"/>
      <point x="637" y="1057" type="line" smooth="yes"/>
      <point x="849" y="1057"/>
      <point x="952" y="971"/>
      <point x="952" y="795" type="curve" smooth="yes"/>
      <point x="952" y="620"/>
      <point x="847" y="532"/>
      <point x="637" y="532" type="curve" smooth="yes"/>
      <point x="403" y="532" type="line"/>
    </contour>
  </outline>
</glyph>
<glyph name="germandbls" format="1">
  <advance width="1233"/>
  <unicode hex="00DF"/>
  <note>
	germandbls
  </note>
  <outline>
    <contour>
      <point x="858" y="-29"/>
      <point x="964" y="2"/>
      <point x="1037" y="59" type="curve" smooth="yes"/>
      <point x="1112" y="118"/>
      <point x="1149" y="200"/>
      <point x="1149" y="306" type="curve" smooth="yes"/>
      <point x="1149" y="381"/>
      <point x="1131" y="446"/>
      <point x="1094" y="501" type="curve" smooth="yes"/>
      <point x="1057" y="557"/>
      <point x="998" y="605"/>
      <point x="887" y="676" type="curve" smooth="yes"/>
      <point x="829" y="713" type="line" smooth="yes"/>
      <point x="782" y="744"/>
      <point x="756" y="765"/>
      <point x="735" y="794" type="curve" smooth="yes"/>
      <point x="715" y="822"/>
      <point x="707" y="847"/>
      <point x="707" y="883" type="curve" smooth="yes"/>
      <point x="707" y="1015"/>
      <point x="826" y="1102"/>
      <point x="1030" y="1119" type="curve"/>
      <point x="1029" y="1407"/>
      <point x="887" y="1556"/>
      <point x="610" y="1556" type="curve" smooth="yes"/>
      <point x="329" y="1556"/>
      <point x="188" y="1421"/>
      <point x="188" y="1137" type="curve" smooth="yes"/>
      <point x="188" y="0" type="line"/>
      <point x="375" y="0" type="line"/>
      <point x="375" y="1133" type="line" smooth="yes"/>
      <point x="375" y="1318"/>
      <point x="449" y="1403"/>
      <point x="610" y="1403" type="curve" smooth="yes"/>
      <point x="759" y="1403"/>
      <point x="843" y="1325"/>
      <point x="846" y="1182" type="curve"/>
      <point x="741" y="1159"/>
      <point x="662" y="1119"/>
      <point x="609" y="1062" type="curve" smooth="yes"/>
      <point x="554" y="1006"/>
      <point x="528" y="932"/>
      <point x="528" y="851" type="curve" smooth="yes"/>
      <point x="528" y="792"/>
      <point x="542" y="750"/>
      <point x="574" y="703" type="curve" smooth="yes"/>
      <point x="607" y="654"/>
      <point x="652" y="613"/>
      <point x="711" y="580" type="curve" smooth="yes"/>
      <point x="778" y="541" type="line" smooth="yes"/>
      <point x="853" y="496"/>
      <point x="898" y="462"/>
      <point x="929" y="419" type="curve" smooth="yes"/>
      <point x="954" y="384"/>
      <point x="963" y="354"/>
      <point x="963" y="310" type="curve" smooth="yes"/>
      <point x="963" y="249"/>
      <point x="944" y="206"/>
      <point x="899" y="171" type="curve" smooth="yes"/>
      <point x="857" y="139"/>
      <point x="800" y="123"/>
      <point x="728" y="123" type="curve" smooth="yes"/>
      <point x="648" y="123"/>
      <point x="558" y="143"/>
      <point x="459" y="184" type="curve"/>
      <point x="459" y="20" type="line"/>
      <point x="488" y="9"/>
      <point x="517" y="0"/>
      <point x="546" y="-6" type="curve"/>
      <point x="574" y="-13"/>
      <point x="590" y="-16"/>
      <point x="593" y="-17" type="curve"/>
      <point x="636" y="-25"/>
      <point x="682" y="-29"/>
      <point x="731" y="-29" type="curve" smooth="yes"/>
    </contour>
  </outline>
</glyph>
<glyph name="atilde" format="1">
  <advance width="1233"/>
  <unicode hex="00E3"/>
  <note>
	atilde
  </note>
  <outline>
    <contour>
      <point x="414" y="1339" type="line"/>
      <point x="415" y="1393"/>
      <point x="422" y="1432"/>
      <point x="434" y="1457" type="curve" smooth="yes"/>
      <point x="446" y="1482"/>
      <point x="465" y="1494"/>
      <point x="490" y="1494" type="curve" smooth="yes"/>
      <point x="510" y="1494"/>
      <point x="531" y="1480"/>
      <point x="558" y="1455" type="curve" smooth="yes"/>
      <point x="615" y="1400" type="line"/>
      <point x="667" y="1355"/>
      <point x="704" y="1339"/>
      <point x="756" y="1339" type="curve" smooth="yes"/>
      <point x="876" y="1339"/>
      <point x="946" y="1441"/>
      <point x="949" y="1621" type="curve"/>
      <point x="824" y="1621" type="line"/>
      <point x="823" y="1568"/>
      <point x="817" y="1528"/>
      <point x="805" y="1503" type="curve" smooth="yes"/>
      <point x="793" y="1478"/>
      <point x="774" y="1466"/>
      <point x="749" y="1466" type="curve" smooth="yes"/>
      <point x="738" y="1466"/>
      <point x="732" y="1468"/>
      <point x="719" y="1476" type="curve" smooth="yes"/>
      <point x="708" y="1483"/>
      <point x="696" y="1492"/>
      <point x="681" y="1505" type="curve"/>
      <point x="624" y="1560" type="line"/>
      <point x="572" y="1605"/>
      <point x="535" y="1621"/>
      <point x="483" y="1621" type="curve" smooth="yes"/>
      <point x="363" y="1621"/>
      <point x="293" y="1519"/>
      <point x="290" y="1339" type="curve"/>
    </contour>
    <contour>
      <point x="595" y="-29"/>
      <point x="667" y="-13"/>
      <point x="729" y="19" type="curve" smooth="yes"/>
      <point x="793" y="52"/>
      <point x="856" y="107"/>
      <point x="893" y="170" type="curve"/>
      <point x="901" y="115"/>
      <point x="919" y="40"/>
      <point x="936" y="0" type="curve"/>
      <point x="1121" y="0" type="line"/>
      <point x="1110" y="33" type="line" smooth="yes"/>
      <point x="1089" y="98"/>
      <point x="1066" y="216"/>
      <point x="1065" y="308" type="curve" smooth="yes"/>
      <point x="1062" y="410" type="line"/>
      <point x="1062" y="639" type="line" smooth="yes"/>
      <point x="1062" y="839"/>
      <point x="1044" y="912"/>
      <point x="992" y="984" type="curve" smooth="yes"/>
      <point x="917" y="1085"/>
      <point x="780" y="1147"/>
      <point x="597" y="1147" type="curve" smooth="yes"/>
      <point x="472" y="1147"/>
      <point x="357" y="1121"/>
      <point x="218" y="1069" type="curve"/>
      <point x="218" y="885" type="line"/>
      <point x="338" y="954"/>
      <point x="469" y="991"/>
      <point x="596" y="991" type="curve" smooth="yes"/>
      <point x="694" y="991"/>
      <point x="765" y="971"/>
      <point x="809" y="931" type="curve" smooth="yes"/>
      <point x="853" y="891"/>
      <point x="877" y="821"/>
      <point x="877" y="736" type="curve" smooth="yes"/>
      <point x="877" y="707" type="line"/>
      <point x="630" y="707" type="line" smooth="yes"/>
      <point x="306" y="707"/>
      <point x="136" y="575"/>
      <point x="136" y="327" type="curve" smooth="yes"/>
      <point x="136" y="214"/>
      <point x="171" y="132"/>
      <point x="238" y="68" type="curve" smooth="yes"/>
      <point x="305" y="3"/>
      <point x="396" y="-29"/>
      <point x="513" y="-29" type="curve" smooth="yes"/>
    </contour>
    <contour>
      <point x="407" y="125"/>
      <point x="320" y="204"/>
      <point x="320" y="337" type="curve" smooth="yes"/>
      <point x="320" y="413"/>
      <point x="346" y="468"/>
      <point x="402" y="507" type="curve" smooth="yes"/>
      <point x="457" y="544"/>
      <point x="538" y="563"/>
      <point x="644" y="563" type="curve" smooth="yes"/>
      <point x="877" y="563" type="line"/>
      <point x="877" y="522" type="line" smooth="yes"/>
      <point x="877" y="361"/>
      <point x="823" y="238"/>
      <point x="725" y="174" type="curve" smooth="yes"/>
      <point x="676" y="141"/>
      <point x="618" y="125"/>
      <point x="551" y="125" type="curve" smooth="yes"/>
    </contour>
  </outline>
</glyph>
<glyph name="adieresis" format="1">
  <advance width="1233"/>
  <unicode hex="00E4"/>
  <note>
	adieresis
  </note>
  <outline>
    <contour>
      <point x="495" y="1350" type="line" smooth="yes"/>
      <point x="515" y="1350"/>
      <point x="525" y="1360"/>
      <point x="525" y="1380" type="curve" smooth="yes"/>
      <point x="525" y="1522" type="line" smooth="yes"/>
      <point x="525" y="1542"/>
      <point x="515" y="1552"/>
      <point x="495" y="1552" type="curve" smooth="yes"/>
      <point x="352" y="1552" type="line" smooth="yes"/>
      <point x="332" y="1552"/>
      <point x="322" y="1542"/>
      <point x="322" y="1522" type="curve" smooth="yes"/>
      <point x="322" y="1380" type="line" smooth="yes"/>
      <point x="322" y="1360"/>
      <point x="332" y="1350"/>
      <point x="352" y="1350" type="curve" smooth="yes"/>
    </contour>
    <contour>
      <point x="886" y="1350" type="line" smooth="yes"/>
      <point x="906" y="1350"/>
      <point x="916" y="1360"/>
      <point x="916" y="1380" type="curve" smooth="yes"/>
      <point x="916" y="1522" type="line" smooth="yes"/>
      <point x="916" y="1542"/>
      <point x="906" y="1552"/>
      <point x="886" y="1552" type="curve" smooth="yes"/>
      <point x="744" y="1552" type="line" smooth="yes"/>
      <point x="724" y="1552"/>
      <point x="714" y="1542"/>
      <point x="714" y="1522" type="curve" smooth="yes"/>
      <point x="714" y="1380" type="line" smooth="yes"/>
      <point x="714" y="1360"/>
      <point x="724" y="1350"/>
      <point x="744" y="1350" type="curve" smooth="yes"/>
    </contour>
    <contour>
      <point x="595" y="-29"/>
      <point x="667" y="-13"/>
      <point x="729" y="19" type="curve" smooth="yes"/>
      <point x="793" y="52"/>
      <point x="856" y="107"/>
      <point x="893" y="170" type="curve"/>
      <point x="901" y="115"/>
      <point x="919" y="40"/>
      <point x="936" y="0" type="curve"/>
      <point x="1121" y="0" type="line"/>
      <point x="1110" y="33" type="line" smooth="yes"/>
      <point x="1089" y="98"/>
      <point x="1066" y="216"/>
      <point x="1065" y="308" type="curve" smooth="yes"/>
      <point x="1062" y="410" type="line"/>
      <point x="1062" y="639" type="line" smooth="yes"/>
      <point x="1062" y="839"/>
      <point x="1044" y="912"/>
      <point x="992" y="984" type="curve" smooth="yes"/>
      <point x="917" y="1085"/>
      <point x="780" y="1147"/>
      <point x="597" y="1147" type="curve" smooth="yes"/>
      <point x="472" y="1147"/>
      <point x="357" y="1121"/>
      <point x="218" y="1069" type="curve"/>
      <point x="218" y="885" type="line"/>
      <point x="338" y="954"/>
      <point x="469" y="991"/>
      <point x="596" y="991" type="curve" smooth="yes"/>
      <point x="694" y="991"/>
      <point x="765" y="971"/>
      <point x="809" y="931" type="curve" smooth="yes"/>
      <point x="853" y="891"/>
      <point x="877" y="821"/>
      <point x="877" y="736" type="curve" smooth="yes"/>
      <point x="877" y="707" type="line"/>
      <point x="630" y="707" type="line" smooth="yes"/>
      <point x="306" y="707"/>
      <point x="136" y="575"/>
      <point x="136" y="327" type="curve" smooth="yes"/>
      <point x="136" y="214"/>
      <point x="171" y="132"/>
      <point x="238" y="68" type="curve" smooth="yes"/>
      <point x="305" y="3"/>
      <point x="396" y="-29"/>
      <point x="513" y="-29" type="curve" smooth="yes"/>
    </contour>
    <contour>
      <point x="407" y="125"/>
      <point x="320" y="204"/>
      <point x="320" y="337" type="curve" smooth="yes"/>
      <point x="320" y="413"/>
      <point x="346" y="468"/>
      <point x="402" y="507" type="curve" smooth="yes"/>
      <point x="457" y="544"/>
      <point x="538" y="563"/>
      <point x="644" y="563" type="curve" smooth="yes"/>
      <point x="877" y="563" type="line"/>
      <point x="877" y="522" type="line" smooth="yes"/>
      <point x="877" y="361"/>
      <point x="823" y="238"/>
      <point x="725" y="174" type="curve" smooth="yes"/>
      <point x="676" y="141"/>
      <point x="618" y="125"/>
      <point x="551" y="125" type="curve" smooth="yes"/>
    </contour>
  </outline>
</glyph>
<glyph name="ae" format="1">
  <advance width="1233"/>
  <unicode hex="00E6"/>
  <note>
	ae
  </note>
  <outline>
    <contour>
      <point x="490" y="-29"/>
      <point x="577" y="26"/>
      <point x="629" y="131" type="curve"/>
      <point x="672" y="27"/>
      <point x="774" y="-29"/>
      <point x="917" y="-29" type="curve" smooth="yes"/>
      <point x="1020" y="-29"/>
      <point x="1099" y="-1"/>
      <point x="1178" y="55" type="curve"/>
      <point x="1178" y="227" type="line"/>
      <point x="1114" y="160"/>
      <point x="1023" y="125"/>
      <point x="923" y="125" type="curve" smooth="yes"/>
      <point x="846" y="125"/>
      <point x="793" y="147"/>
      <point x="758" y="196" type="curve" smooth="yes"/>
      <point x="725" y="243"/>
      <point x="707" y="318"/>
      <point x="707" y="443" type="curve" smooth="yes"/>
      <point x="707" y="460"/>
      <point x="707" y="470"/>
      <point x="708" y="473" type="curve"/>
      <point x="708" y="482" type="line"/>
      <point x="708" y="498" type="line" smooth="yes"/>
      <point x="708" y="505"/>
      <point x="708" y="511"/>
      <point x="709" y="514" type="curve"/>
      <point x="1200" y="514" type="line"/>
      <point x="1200" y="604" type="line" smooth="yes"/>
      <point x="1200" y="1013"/>
      <point x="1115" y="1147"/>
      <point x="882" y="1147" type="curve" smooth="yes"/>
      <point x="762" y="1147"/>
      <point x="671" y="1101"/>
      <point x="627" y="1020" type="curve"/>
      <point x="575" y="1105"/>
      <point x="496" y="1147"/>
      <point x="376" y="1147" type="curve" smooth="yes"/>
      <point x="291" y="1147"/>
      <point x="214" y="1127"/>
      <point x="106" y="1079" type="curve"/>
      <point x="106" y="911" type="line"/>
      <point x="183" y="962"/>
      <point x="277" y="993"/>
      <point x="357" y="993" type="curve" smooth="yes"/>
      <point x="482" y="993"/>
      <point x="549" y="905"/>
      <point x="549" y="745" type="curve" smooth="yes"/>
      <point x="549" y="657" type="line"/>
      <point x="432" y="657" type="line" smooth="yes"/>
      <point x="305" y="657"/>
      <point x="208" y="627"/>
      <point x="141" y="568" type="curve" smooth="yes"/>
      <point x="72" y="507"/>
      <point x="41" y="420"/>
      <point x="41" y="304" type="curve" smooth="yes"/>
      <point x="41" y="89"/>
      <point x="153" y="-29"/>
      <point x="358" y="-29" type="curve" smooth="yes"/>
    </contour>
    <contour>
      <point x="709" y="700" type="line" smooth="yes"/>
      <point x="709" y="840"/>
      <point x="730" y="923"/>
      <point x="778" y="963" type="curve" smooth="yes"/>
      <point x="801" y="983"/>
      <point x="833" y="993"/>
      <point x="872" y="993" type="curve" smooth="yes"/>
      <point x="989" y="993"/>
      <point x="1036" y="909"/>
      <point x="1036" y="709" type="curve" smooth="yes"/>
      <point x="1036" y="657" type="line"/>
      <point x="709" y="657" type="line"/>
    </contour>
    <contour>
      <point x="267" y="125"/>
      <point x="205" y="193"/>
      <point x="205" y="313" type="curve" smooth="yes"/>
      <point x="205" y="460"/>
      <point x="269" y="514"/>
      <point x="494" y="514" type="curve" smooth="yes"/>
      <point x="543" y="514" type="line"/>
      <point x="543" y="442" type="line" smooth="yes"/>
      <point x="543" y="373"/>
      <point x="540" y="319"/>
      <point x="533" y="282" type="curve" smooth="yes"/>
      <point x="522" y="217"/>
      <point x="509" y="175"/>
      <point x="466" y="147" type="curve" smooth="yes"/>
      <point x="444" y="132"/>
      <point x="414" y="125"/>
      <point x="375" y="125" type="curve" smooth="yes"/>
    </contour>
  </outline>
</glyph>
<glyph name="ccedilla" format="1">
  <advance width="1233"/>
  <unicode hex="00E7"/>
  <note>
	ccedilla
  </note>
  <outline>
    <contour>
      <point x="838" y="991"/>
      <point x="929" y="957"/>
      <point x="1030" y="868" type="curve"/>
      <point x="1030" y="1061" type="line"/>
      <point x="921" y="1121"/>
      <point x="834" y="1147"/>
      <point x="713" y="1147" type="curve" smooth="yes"/>
      <point x="374" y="1147"/>
      <point x="164" y="928"/>
      <point x="164" y="559" type="curve" smooth="yes"/>
      <point x="164" y="376"/>
      <point x="214" y="230"/>
      <point x="310" y="127" type="curve" smooth="yes"/>
      <point x="398" y="32"/>
      <point x="523" y="-20"/>
      <point x="674" y="-28" type="curve"/>
      <point x="719" y="-95"/>
      <point x="743" y="-140"/>
      <point x="743" y="-180" type="curve" smooth="yes"/>
      <point x="743" y="-241"/>
      <point x="702" y="-272"/>
      <point x="619" y="-272" type="curve" smooth="yes"/>
      <point x="560" y="-272"/>
      <point x="519" y="-264"/>
      <point x="468" y="-240" type="curve"/>
      <point x="468" y="-371" type="line"/>
      <point x="524" y="-387"/>
      <point x="582" y="-395"/>
      <point x="643" y="-395" type="curve" smooth="yes"/>
      <point x="722" y="-395"/>
      <point x="781" y="-380"/>
      <point x="822" y="-350" type="curve" smooth="yes"/>
      <point x="862" y="-319"/>
      <point x="882" y="-272"/>
      <point x="882" y="-219" type="curve" smooth="yes"/>
      <point x="882" y="-152"/>
      <point x="846" y="-85"/>
      <point x="794" y="-24" type="curve"/>
      <point x="818" y="-22"/>
      <point x="846" y="-17"/>
      <point x="878" y="-8" type="curve" smooth="yes"/>
      <point x="935" y="9"/>
      <point x="986" y="30"/>
      <point x="1030" y="57" type="curve"/>
      <point x="1030" y="248" type="line"/>
      <point x="986" y="207"/>
      <point x="946" y="178"/>
      <point x="889" y="157" type="curve" smooth="yes"/>
      <point x="840" y="137"/>
      <point x="784" y="127"/>
      <point x="721" y="127" type="curve" smooth="yes"/>
      <point x="488" y="127"/>
      <point x="358" y="281"/>
      <point x="358" y="560" type="curve" smooth="yes"/>
      <point x="358" y="836"/>
      <point x="486" y="991"/>
      <point x="718" y="991" type="curve" smooth="yes"/>
    </contour>
  </outline>
</glyph>
<glyph name="iacute" format="1">
  <advance width="1233"/>
  <unicode hex="00ED"/>
  <note>
	iacute
  </note>
  <outline>
    <contour>
      <point x="667" y="1271" type="line"/>
      <point x="992" y="1647" type="line"/>
      <point x="794" y="1647" type="line"/>
      <point x="513" y="1271" type="line"/>
    </contour>
    <contour>
      <point x="1092" y="148" type="line"/>
      <point x="877" y="148" type="line" smooth="yes"/>
      <point x="760" y="148"/>
      <point x="697" y="230"/>
      <point x="697" y="398" type="curve" smooth="yes"/>
      <point x="697" y="1120" type="line"/>
      <point x="268" y="1120" type="line"/>
      <point x="268" y="976" type="line"/>
      <point x="513" y="976" type="line"/>
      <point x="513" y="398" type="line" smooth="yes"/>
      <point x="513" y="269"/>
      <point x="543" y="169"/>
      <point x="604" y="98" type="curve" smooth="yes"/>
      <point x="667" y="25"/>
      <point x="750" y="-8"/>
      <point x="859" y="-8" type="curve" smooth="yes"/>
      <point x="1092" y="-8" type="line"/>
    </contour>
  </outline>
</glyph>
<glyph name="idieresis" format="1">
  <advance width="1233"/>
  <unicode hex="00EF"/>
  <note>
	idieresis
  </note>
  <outline>
    <contour>
      <point x="471" y="1350" type="line" smooth="yes"/>
      <point x="491" y="1350"/>
      <point x="501" y="1360"/>
      <point x="501" y="1380" type="curve" smooth="yes"/>
      <point x="501" y="1522" type="line" smooth="yes"/>
      <point x="501" y="1542"/>
      <point x="491" y="1552"/>
      <point x="471" y="1552" type="curve" smooth="yes"/>
      <point x="328" y="1552" type="line" smooth="yes"/>
      <point x="308" y="1552"/>
      <point x="298" y="1542"/>
      <point x="298" y="1522" type="curve" smooth="yes"/>
      <point x="298" y="1380" type="line" smooth="yes"/>
      <point x="298" y="1360"/>
      <point x="308" y="1350"/>
      <point x="328" y="1350" type="curve" smooth="yes"/>
    </contour>
    <contour>
      <point x="862" y="1350" type="line" smooth="yes"/>
      <point x="882" y="1350"/>
      <point x="892" y="1360"/>
      <point x="892" y="1380" type="curve" smooth="yes"/>
      <point x="892" y="1522" type="line" smooth="yes"/>
      <point x="892" y="1542"/>
      <point x="882" y="1552"/>
      <point x="862" y="1552" type="curve" smooth="yes"/>
      <point x="720" y="1552" type="line" smooth="yes"/>
      <point x="700" y="1552"/>
      <point x="690" y="1542"/>
      <point x="690" y="1522" type="curve" smooth="yes"/>
      <point x="690" y="1380" type="line" smooth="yes"/>
      <point x="690" y="1360"/>
      <point x="700" y="1350"/>
      <point x="720" y="1350" type="curve" smooth="yes"/>
    </contour>
    <contour>
      <point x="1092" y="148" type="line"/>
      <point x="877" y="148" type="line" smooth="yes"/>
      <point x="760" y="148"/>
      <point x="697" y="230"/>
      <point x="697" y="398" type="curve" smooth="yes"/>
      <point x="697" y="1120" type="line"/>
      <point x="268" y="1120" type="line"/>
      <point x="268" y="976" type="line"/>
      <point x="513" y="976" type="line"/>
      <point x="513" y="398" type="line" smooth="yes"/>
      <point x="513" y="269"/>
      <point x="543" y="169"/>
      <point x="604" y="98" type="curve" smooth="yes"/>
      <point x="667" y="25"/>
      <point x="750" y="-8"/>
      <point x="859" y="-8" type="curve" smooth="yes"/>
      <point x="1092" y="-8" type="line"/>
    </contour>
  </outline>
</glyph>
<glyph name="eth" format="1">
  <advance width="1233"/>
  <unicode hex="00F0"/>
  <note>
	eth
  </note>
  <outline>
    <contour>
      <point x="922" y="-29"/>
      <point x="1096" y="181"/>
      <point x="1096" y="528" type="curve" smooth="yes"/>
      <point x="1096" y="671"/>
      <point x="1066" y="796"/>
      <point x="1005" y="925" type="curve" smooth="yes"/>
      <point x="944" y="1052"/>
      <point x="848" y="1186"/>
      <point x="717" y="1327" type="curve"/>
      <point x="967" y="1407" type="line"/>
      <point x="934" y="1505" type="line"/>
      <point x="645" y="1411" type="line"/>
      <point x="518" y="1556" type="line"/>
      <point x="299" y="1556" type="line"/>
      <point x="481" y="1356" type="line"/>
      <point x="244" y="1276" type="line"/>
      <point x="274" y="1178" type="line"/>
      <point x="553" y="1270" type="line"/>
      <point x="568" y="1253" type="line" smooth="yes"/>
      <point x="595" y="1222"/>
      <point x="614" y="1199"/>
      <point x="627" y="1182" type="curve" smooth="yes"/>
      <point x="648" y="1156" type="line"/>
      <point x="668" y="1129" type="line"/>
      <point x="686" y="1106" type="line"/>
      <point x="696" y="1092" type="line"/>
      <point x="686" y="1093" type="line"/>
      <point x="685" y="1093"/>
      <point x="684" y="1093"/>
      <point x="683" y="1094" type="curve"/>
      <point x="678" y="1094" type="line"/>
      <point x="655" y="1096" type="line"/>
      <point x="631" y="1096" type="line" smooth="yes"/>
      <point x="463" y="1096"/>
      <point x="345" y="1049"/>
      <point x="262" y="949" type="curve" smooth="yes"/>
      <point x="179" y="850"/>
      <point x="137" y="711"/>
      <point x="137" y="533" type="curve" smooth="yes"/>
      <point x="137" y="356"/>
      <point x="179" y="218"/>
      <point x="262" y="119" type="curve" smooth="yes"/>
      <point x="347" y="20"/>
      <point x="465" y="-29"/>
      <point x="617" y="-29" type="curve" smooth="yes"/>
    </contour>
    <contour>
      <point x="433" y="127"/>
      <point x="332" y="274"/>
      <point x="332" y="534" type="curve" smooth="yes"/>
      <point x="332" y="799"/>
      <point x="433" y="944"/>
      <point x="638" y="944" type="curve" smooth="yes"/>
      <point x="689" y="944"/>
      <point x="748" y="935"/>
      <point x="793" y="918" type="curve"/>
      <point x="862" y="819"/>
      <point x="901" y="680"/>
      <point x="901" y="531" type="curve" smooth="yes"/>
      <point x="901" y="406"/>
      <point x="878" y="286"/>
      <point x="799" y="195" type="curve" smooth="yes"/>
      <point x="759" y="150"/>
      <point x="698" y="127"/>
      <point x="616" y="127" type="curve" smooth="yes"/>
    </contour>
  </outline>
</glyph>
<glyph name="ntilde" format="1">
  <advance width="1233"/>
  <unicode hex="00F1"/>
  <note>
	ntilde
  </note>
  <outline>
    <contour>
      <point x="411" y="1286" type="line"/>
      <point x="412" y="1340"/>
      <point x="419" y="1379"/>
      <point x="431" y="1404" type="curve" smooth="yes"/>
      <point x="443" y="1429"/>
      <point x="462" y="1441"/>
      <point x="487" y="1441" type="curve" smooth="yes"/>
      <point x="507" y="1441"/>
      <point x="528" y="1427"/>
      <point x="555" y="1402" type="curve" smooth="yes"/>
      <point x="612" y="1347" type="line"/>
      <point x="664" y="1302"/>
      <point x="701" y="1286"/>
      <point x="753" y="1286" type="curve" smooth="yes"/>
      <point x="873" y="1286"/>
      <point x="943" y="1388"/>
      <point x="946" y="1568" type="curve"/>
      <point x="821" y="1568" type="line"/>
      <point x="820" y="1515"/>
      <point x="814" y="1475"/>
      <point x="802" y="1450" type="curve" smooth="yes"/>
      <point x="790" y="1425"/>
      <point x="771" y="1413"/>
      <point x="746" y="1413" type="curve" smooth="yes"/>
      <point x="735" y="1413"/>
      <point x="729" y="1415"/>
      <point x="716" y="1423" type="curve" smooth="yes"/>
      <point x="705" y="1430"/>
      <point x="693" y="1439"/>
      <point x="678" y="1452" type="curve"/>
      <point x="621" y="1507" type="line"/>
      <point x="569" y="1552"/>
      <point x="532" y="1568"/>
      <point x="480" y="1568" type="curve" smooth="yes"/>
      <point x="360" y="1568"/>
      <point x="290" y="1466"/>
      <point x="287" y="1286" type="curve"/>
    </contour>
    <contour>
      <point x="379" y="0" type="line"/>
      <point x="379" y="633" type="line" smooth="yes"/>
      <point x="379" y="862"/>
      <point x="474" y="987"/>
      <point x="646" y="987" type="curve" smooth="yes"/>
      <point x="798" y="987"/>
      <point x="866" y="895"/>
      <point x="866" y="694" type="curve" smooth="yes"/>
      <point x="866" y="0" type="line"/>
      <point x="1051" y="0" type="line"/>
      <point x="1051" y="694" type="line" smooth="yes"/>
      <point x="1051" y="846"/>
      <point x="1023" y="960"/>
      <point x="967" y="1035" type="curve" smooth="yes"/>
      <point x="910" y="1110"/>
      <point x="824" y="1147"/>
      <point x="710" y="1147" type="curve" smooth="yes"/>
      <point x="557" y="1147"/>
      <point x="446" y="1082"/>
      <point x="379" y="952" type="curve"/>
      <point x="361" y="1120" type="line"/>
      <point x="195" y="1120" type="line"/>
      <point x="195" y="0" type="line"/>
    </contour>
  </outline>
</glyph>
<glyph name="ograve" format="1">
  <advance width="1233"/>
  <unicode hex="00F2"/>
  <note>
	ograve
  </note>
  <outline>
    <contour>
      <point x="758" y="1297" type="line"/>
      <point x="477" y="1673" type="line"/>
      <point x="279" y="1673" type="line"/>
      <point x="604" y="1297" type="line"/>
    </contour>
    <contour>
      <point x="773" y="-29"/>
      <point x="892" y="21"/>
      <point x="973" y="121" type="curve" smooth="yes"/>
      <point x="1055" y="220"/>
      <point x="1096" y="366"/>
      <point x="1096" y="561" type="curve" smooth="yes"/>
      <point x="1096" y="940"/>
      <point x="929" y="1147"/>
      <point x="616" y="1147" type="curve" smooth="yes"/>
      <point x="305" y="1147"/>
      <point x="137" y="940"/>
      <point x="137" y="560" type="curve" smooth="yes"/>
      <point x="137" y="369"/>
      <point x="178" y="222"/>
      <point x="260" y="121" type="curve" smooth="yes"/>
      <point x="343" y="21"/>
      <point x="462" y="-29"/>
      <point x="616" y="-29" type="curve" smooth="yes"/>
    </contour>
    <contour>
      <point x="429" y="127"/>
      <point x="332" y="275"/>
      <point x="332" y="559" type="curve" smooth="yes"/>
      <point x="332" y="843"/>
      <point x="429" y="991"/>
      <point x="616" y="991" type="curve" smooth="yes"/>
      <point x="804" y="991"/>
      <point x="901" y="843"/>
      <point x="901" y="559" type="curve" smooth="yes"/>
      <point x="901" y="275"/>
      <point x="804" y="127"/>
      <point x="616" y="127" type="curve" smooth="yes"/>
    </contour>
  </outline>
</glyph>
<glyph name="odieresis" format="1">
  <advance width="1233"/>
  <unicode hex="00F6"/>
  <note>
	odieresis
  </note>
  <outline>
    <contour>
      <point x="492" y="1350" type="line" smooth="yes"/>
      <point x="512" y="1350"/>
      <point x="522" y="1360"/>
      <point x="522" y="1380" type="curve" smooth="yes"/>
      <point x="522" y="1522" type="line" smooth="yes"/>
      <point x="522" y="1542"/>
      <point x="512" y="1552"/>
      <point x="492" y="1552" type="curve" smooth="yes"/>
      <point x="349" y="1552" type="line" smooth="yes"/>
      <point x="329" y="1552"/>
      <point x="319" y="1542"/>
      <point x="319" y="1522" type="curve" smooth="yes"/>
      <point x="319" y="1380" type="line" smooth="yes"/>
      <point x="319" y="1360"/>
      <point x="329" y="1350"/>
      <point x="349" y="1350" type="curve" smooth="yes"/>
    </contour>
    <contour>
      <point x="883" y="1350" type="line" smooth="yes"/>
      <point x="903" y="1350"/>
      <point x="913" y="1360"/>
      <point x="913" y="1380" type="curve" smooth="yes"/>
      <point x="913" y="1522" type="line" smooth="yes"/>
      <point x="913" y="1542"/>
      <point x="903" y="1552"/>
      <point x="883" y="1552" type="curve" smooth="yes"/>
      <point x="741" y="1552" type="line" smooth="yes"/>
      <point x="721" y="1552"/>
      <point x="711" y="1542"/>
      <point x="711" y="1522" type="curve" smooth="yes"/>
      <point x="711" y="1380" type="line" smooth="yes"/>
      <point x="711" y="1360"/>
      <point x="721" y="1350"/>
      <point x="741" y="1350" type="curve" smooth="yes"/>
    </contour>
    <contour>
      <point x="773" y="-29"/>
      <point x="892" y="21"/>
      <point x="973" y="121" type="curve" smooth="yes"/>
      <point x="1055" y="220"/>
      <point x="1096" y="366"/>
      <point x="1096" y="561" type="curve" smooth="yes"/>
      <point x="1096" y="940"/>
      <point x="929" y="1147"/>
      <point x="616" y="1147" type="curve" smooth="yes"/>
      <point x="305" y="1147"/>
      <point x="137" y="940"/>
      <point x="137" y="560" type="curve" smooth="yes"/>
      <point x="137" y="369"/>
      <point x="178" y="222"/>
      <point x="260" y="121" type="curve" smooth="yes"/>
      <point x="343" y="21"/>
      <point x="462" y="-29"/>
      <point x="616" y="-29" type="curve" smooth="yes"/>
    </contour>
    <contour>
      <point x="429" y="127"/>
      <point x="332" y="275"/>
      <point x="332" y="559" type="curve" smooth="yes"/>
      <point x="332" y="843"/>
      <point x="429" y="991"/>
      <point x="616" y="991" type="curve" smooth="yes"/>
      <point x="804" y="991"/>
      <point x="901" y="843"/>
      <point x="901" y="559" type="curve" smooth="yes"/>
      <point x="901" y="275"/>
      <point x="804" y="127"/>
      <point x="616" y="127" type="curve" smooth="yes"/>
    </contour>
  </outline>
</glyph>
<glyph name="oslash" format="1">
  <advance width="1233"/>
  <unicode hex="00F8"/>
  <note>
	oslash
  </note>
  <outline>
    <contour>
      <point x="299" y="90" type="line"/>
      <point x="339" y="47"/>
      <point x="379" y="21"/>
      <point x="435" y="1" type="curve" smooth="yes"/>
      <point x="489" y="-19"/>
      <point x="549" y="-29"/>
      <point x="615" y="-29" type="curve" smooth="yes"/>
      <point x="928" y="-29"/>
      <point x="1096" y="172"/>
      <point x="1096" y="561" type="curve" smooth="yes"/>
      <point x="1096" y="596"/>
      <point x="1094" y="634"/>
      <point x="1091" y="675" type="curve" smooth="yes"/>
      <point x="1079" y="786"/>
      <point x="1052" y="874"/>
      <point x="1010" y="940" type="curve"/>
      <point x="1174" y="1135" type="line"/>
      <point x="1081" y="1212" type="line"/>
      <point x="934" y="1036" type="line"/>
      <point x="855" y="1111"/>
      <point x="759" y="1147"/>
      <point x="615" y="1147" type="curve" smooth="yes"/>
      <point x="306" y="1147"/>
      <point x="137" y="939"/>
      <point x="137" y="559" type="curve" smooth="yes"/>
      <point x="137" y="482"/>
      <point x="144" y="412"/>
      <point x="158" y="349" type="curve" smooth="yes"/>
      <point x="171" y="281"/>
      <point x="188" y="233"/>
      <point x="217" y="180" type="curve"/>
      <point x="47" y="-20" type="line"/>
      <point x="139" y="-96" type="line"/>
    </contour>
    <contour>
      <point x="356" y="340" type="line"/>
      <point x="337" y="435"/>
      <point x="328" y="506"/>
      <point x="328" y="579" type="curve" smooth="yes"/>
      <point x="328" y="714"/>
      <point x="354" y="835"/>
      <point x="434" y="924" type="curve" smooth="yes"/>
      <point x="473" y="969"/>
      <point x="534" y="991"/>
      <point x="616" y="991" type="curve" smooth="yes"/>
      <point x="705" y="991"/>
      <point x="770" y="961"/>
      <point x="817" y="897" type="curve"/>
    </contour>
    <contour>
      <point x="574" y="127"/>
      <point x="536" y="135"/>
      <point x="501" y="151" type="curve" smooth="yes"/>
      <point x="466" y="167"/>
      <point x="442" y="186"/>
      <point x="414" y="221" type="curve"/>
      <point x="877" y="780" type="line"/>
      <point x="892" y="716"/>
      <point x="901" y="631"/>
      <point x="901" y="556" type="curve" smooth="yes"/>
      <point x="901" y="419"/>
      <point x="880" y="290"/>
      <point x="801" y="197" type="curve" smooth="yes"/>
      <point x="761" y="150"/>
      <point x="699" y="127"/>
      <point x="615" y="127" type="curve" smooth="yes"/>
    </contour>
  </outline>
</glyph>
<glyph name="yacute" format="1">
  <advance width="1233"/>
  <unicode hex="00FD"/>
  <note>
	yacute
  </note>
  <outline>
    <contour>
      <point x="629" y="1270" type="line"/>
      <point x="954" y="1646" type="line"/>
      <point x="756" y="1646" type="line"/>
      <point x="475" y="1270" type="line"/>
    </contour>
    <contour>
      <point x="332" y="-426" type="line" smooth="yes"/>
      <point x="388" y="-426"/>
      <point x="447" y="-412"/>
      <point x="494" y="-388" type="curve" smooth="yes"/>
      <point x="537" y="-365"/>
      <point x="567" y="-335"/>
      <point x="606" y="-267" type="curve" smooth="yes"/>
      <point x="609" y="-262"/>
      <point x="615" y="-250"/>
      <point x="626" y="-229" type="curve" smooth="yes"/>
      <point x="637" y="-209"/>
      <point x="648" y="-185"/>
      <point x="660" y="-158" type="curve" smooth="yes"/>
      <point x="683" y="-107"/>
      <point x="710" y="-37"/>
      <point x="741" y="52" type="curve" smooth="yes"/>
      <point x="747" y="71"/>
      <point x="758" y="101"/>
      <point x="774" y="143" type="curve" smooth="yes"/>
      <point x="801" y="213"/>
      <point x="829" y="285"/>
      <point x="858" y="360" type="curve" smooth="yes"/>
      <point x="1153" y="1120" type="line"/>
      <point x="958" y="1120" type="line"/>
      <point x="631" y="244" type="line"/>
      <point x="299" y="1120" type="line"/>
      <point x="104" y="1120" type="line"/>
      <point x="537" y="18" type="line"/>
      <point x="510" y="-57"/>
      <point x="487" y="-112"/>
      <point x="470" y="-146" type="curve" smooth="yes"/>
      <point x="429" y="-226"/>
      <point x="400" y="-272"/>
      <point x="293" y="-272" type="curve" smooth="yes"/>
      <point x="184" y="-272" type="line"/>
      <point x="184" y="-426" type="line"/>
    </contour>
  </outline>
</glyph>
<glyph name="ydieresis" format="1">
  <advance width="1233"/>
  <unicode hex="00FF"/>
  <note>
	ydieresis
  </note>
  <outline>
    <contour>
      <point x="492" y="1320" type="line" smooth="yes"/>
      <point x="512" y="1320"/>
      <point x="522" y="1330"/>
      <point x="522" y="1350" type="curve" smooth="yes"/>
      <point x="522" y="1492" type="line" smooth="yes"/>
      <point x="522" y="1512"/>
      <point x="512" y="1522"/>
      <point x="492" y="1522" type="curve" smooth="yes"/>
      <point x="349" y="1522" type="line" smooth="yes"/>
      <point x="329" y="1522"/>
      <point x="319" y="1512"/>
      <point x="319" y="1492" type="curve" smooth="yes"/>
      <point x="319" y="1350" type="line" smooth="yes"/>
      <point x="319" y="1330"/>
      <point x="329" y="1320"/>
      <point x="349" y="1320" type="curve" smooth="yes"/>
    </contour>
    <contour>
      <point x="883" y="1320" type="line" smooth="yes"/>
      <point x="903" y="1320"/>
      <point x="913" y="1330"/>
      <point x="913" y="1350" type="curve" smooth="yes"/>
      <point x="913" y="1492" type="line" smooth="yes"/>
      <point x="913" y="1512"/>
      <point x="903" y="1522"/>
      <point x="883" y="1522" type="curve" smooth="yes"/>
      <point x="741" y="1522" type="line" smooth="yes"/>
      <point x="721" y="1522"/>
      <point x="711" y="1512"/>
      <point x="711" y="1492" type="curve" smooth="yes"/>
      <point x="711" y="1350" type="line" smooth="yes"/>
      <point x="711" y="1330"/>
      <point x="721" y="1320"/>
      <point x="741" y="1320" type="curve" smooth="yes"/>
    </contour>
    <contour>
      <point x="332" y="-426" type="line" smooth="yes"/>
      <point x="393" y="-426"/>
      <point x="447" y="-413"/>
      <point x="493" y="-387" type="curve" smooth="yes"/>
      <point x="544" y="-359"/>
      <point x="577" y="-321"/>
      <point x="608" y="-268" type="curve" smooth="yes"/>
      <point x="623" y="-241"/>
      <point x="637" y="-210"/>
      <point x="652" y="-175" type="curve" smooth="yes"/>
      <point x="673" y="-126"/>
      <point x="703" y="-51"/>
      <point x="741" y="52" type="curve" smooth="yes"/>
      <point x="766" y="119" type="line"/>
      <point x="779" y="156" type="line"/>
      <point x="800" y="211" type="line"/>
      <point x="821" y="264" type="line"/>
      <point x="858" y="360" type="line"/>
      <point x="1153" y="1120" type="line"/>
      <point x="958" y="1120" type="line"/>
      <point x="631" y="244" type="line"/>
      <point x="299" y="1120" type="line"/>
      <point x="104" y="1120" type="line"/>
      <point x="537" y="18" type="line"/>
      <point x="510" y="-57"/>
      <point x="487" y="-112"/>
      <point x="470" y="-146" type="curve" smooth="yes"/>
      <point x="429" y="-226"/>
      <point x="400" y="-272"/>
      <point x="293" y="-272" type="curve" smooth="yes"/>
      <point x="184" y="-272" type="line"/>
      <point x="184" y="-426" type="line"/>
    </contour>
  </outline>
</glyph>
<glyph name="amacron" format="1">
  <advance width="1233"/>
  <unicode hex="0101"/>
  <note>
	amacron
  </note>
  <outline>
    <contour>
      <point x="918" y="1348" type="line"/>
      <point x="918" y="1496" type="line"/>
      <point x="320" y="1496" type="line"/>
      <point x="320" y="1348" type="line"/>
    </contour>
    <contour>
      <point x="595" y="-29"/>
      <point x="667" y="-13"/>
      <point x="729" y="19" type="curve" smooth="yes"/>
      <point x="793" y="52"/>
      <point x="856" y="107"/>
      <point x="893" y="170" type="curve"/>
      <point x="901" y="115"/>
      <point x="919" y="40"/>
      <point x="936" y="0" type="curve"/>
      <point x="1121" y="0" type="line"/>
      <point x="1110" y="33" type="line" smooth="yes"/>
      <point x="1089" y="98"/>
      <point x="1066" y="216"/>
      <point x="1065" y="308" type="curve" smooth="yes"/>
      <point x="1062" y="410" type="line"/>
      <point x="1062" y="639" type="line" smooth="yes"/>
      <point x="1062" y="839"/>
      <point x="1044" y="912"/>
      <point x="992" y="984" type="curve" smooth="yes"/>
      <point x="917" y="1085"/>
      <point x="780" y="1147"/>
      <point x="597" y="1147" type="curve" smooth="yes"/>
      <point x="472" y="1147"/>
      <point x="357" y="1121"/>
      <point x="218" y="1069" type="curve"/>
      <point x="218" y="885" type="line"/>
      <point x="338" y="954"/>
      <point x="469" y="991"/>
      <point x="596" y="991" type="curve" smooth="yes"/>
      <point x="694" y="991"/>
      <point x="765" y="971"/>
      <point x="809" y="931" type="curve" smooth="yes"/>
      <point x="853" y="891"/>
      <point x="877" y="821"/>
      <point x="877" y="736" type="curve" smooth="yes"/>
      <point x="877" y="707" type="line"/>
      <point x="630" y="707" type="line" smooth="yes"/>
      <point x="306" y="707"/>
      <point x="136" y="575"/>
      <point x="136" y="327" type="curve" smooth="yes"/>
      <point x="136" y="214"/>
      <point x="171" y="132"/>
      <point x="238" y="68" type="curve" smooth="yes"/>
      <point x="305" y="3"/>
      <point x="396" y="-29"/>
      <point x="513" y="-29" type="curve" smooth="yes"/>
    </contour>
    <contour>
      <point x="407" y="125"/>
      <point x="320" y="204"/>
      <point x="320" y="337" type="curve" smooth="yes"/>
      <point x="320" y="413"/>
      <point x="346" y="468"/>
      <point x="402" y="507" type="curve" smooth="yes"/>
      <point x="457" y="544"/>
      <point x="538" y="563"/>
      <point x="644" y="563" type="curve" smooth="yes"/>
      <point x="877" y="563" type="line"/>
      <point x="877" y="522" type="line" smooth="yes"/>
      <point x="877" y="361"/>
      <point x="823" y="238"/>
      <point x="725" y="174" type="curve" smooth="yes"/>
      <point x="676" y="141"/>
      <point x="618" y="125"/>
      <point x="551" y="125" type="curve" smooth="yes"/>
    </contour>
  </outline>
</glyph>
<glyph name="abreve" format="1">
  <advance width="1233"/>
  <unicode hex="0103"/>
  <note>
	abreve
  </note>
  <outline>
    <contour>
      <point x="813" y="1296"/>
      <point x="918" y="1392"/>
      <point x="933" y="1583" type="curve"/>
      <point x="814" y="1583" type="line"/>
      <point x="795" y="1482"/>
      <point x="733" y="1433"/>
      <point x="618" y="1433" type="curve" smooth="yes"/>
      <point x="501" y="1433"/>
      <point x="441" y="1484"/>
      <point x="425" y="1583" type="curve"/>
      <point x="306" y="1583" type="line"/>
      <point x="321" y="1392"/>
      <point x="426" y="1296"/>
      <point x="619" y="1296" type="curve" smooth="yes"/>
    </contour>
    <contour>
      <point x="595" y="-29"/>
      <point x="667" y="-13"/>
      <point x="729" y="19" type="curve" smooth="yes"/>
      <point x="793" y="52"/>
      <point x="856" y="107"/>
      <point x="893" y="170" type="curve"/>
      <point x="901" y="115"/>
      <point x="919" y="40"/>
      <point x="936" y="0" type="curve"/>
      <point x="1121" y="0" type="line"/>
      <point x="1110" y="33" type="line" smooth="yes"/>
      <point x="1089" y="98"/>
      <point x="1066" y="216"/>
      <point x="1065" y="308" type="curve" smooth="yes"/>
      <point x="1062" y="410" type="line"/>
      <point x="1062" y="639" type="line" smooth="yes"/>
      <point x="1062" y="839"/>
      <point x="1044" y="912"/>
      <point x="992" y="984" type="curve" smooth="yes"/>
      <point x="917" y="1085"/>
      <point x="780" y="1147"/>
      <point x="597" y="1147" type="curve" smooth="yes"/>
      <point x="472" y="1147"/>
      <point x="357" y="1121"/>
      <point x="218" y="1069" type="curve"/>
      <point x="218" y="885" type="line"/>
      <point x="338" y="954"/>
      <point x="469" y="991"/>
      <point x="596" y="991" type="curve" smooth="yes"/>
      <point x="694" y="991"/>
      <point x="765" y="971"/>
      <point x="809" y="931" type="curve" smooth="yes"/>
      <point x="853" y="891"/>
      <point x="877" y="821"/>
      <point x="877" y="736" type="curve" smooth="yes"/>
      <point x="877" y="707" type="line"/>
      <point x="630" y="707" type="line" smooth="yes"/>
      <point x="306" y="707"/>
      <point x="136" y="575"/>
      <point x="136" y="327" type="curve" smooth="yes"/>
      <point x="136" y="214"/>
      <point x="171" y="132"/>
      <point x="238" y="68" type="curve" smooth="yes"/>
      <point x="305" y="3"/>
      <point x="396" y="-29"/>
      <point x="513" y="-29" type="curve" smooth="yes"/>
    </contour>
    <contour>
      <point x="407" y="125"/>
      <point x="320" y="204"/>
      <point x="320" y="337" type="curve" smooth="yes"/>
      <point x="320" y="413"/>
      <point x="346" y="468"/>
      <point x="402" y="507" type="curve" smooth="yes"/>
      <point x="457" y="544"/>
      <point x="538" y="563"/>
      <point x="644" y="563" type="curve" smooth="yes"/>
      <point x="877" y="563" type="line"/>
      <point x="877" y="522" type="line" smooth="yes"/>
      <point x="877" y="361"/>
      <point x="823" y="238"/>
      <point x="725" y="174" type="curve" smooth="yes"/>
      <point x="676" y="141"/>
      <point x="618" y="125"/>
      <point x="551" y="125" type="curve" smooth="yes"/>
    </contour>
  </outline>
</glyph>
<glyph name="Cacute" format="1">
  <advance width="1233"/>
  <unicode hex="0106"/>
  <note>
	Cacute
  </note>
  <outline>
    <contour>
      <point x="719" y="1588" type="line"/>
      <point x="948" y="1852" type="line"/>
      <point x="762" y="1852" type="line"/>
      <point x="565" y="1588" type="line"/>
    </contour>
    <contour>
      <point x="866" y="-29"/>
      <point x="968" y="-2"/>
      <point x="1073" y="53" type="curve"/>
      <point x="1073" y="260" type="line"/>
      <point x="974" y="177"/>
      <point x="862" y="135"/>
      <point x="742" y="135" type="curve" smooth="yes"/>
      <point x="483" y="135"/>
      <point x="350" y="337"/>
      <point x="350" y="745" type="curve" smooth="yes"/>
      <point x="350" y="1154"/>
      <point x="481" y="1356"/>
      <point x="741" y="1356" type="curve" smooth="yes"/>
      <point x="856" y="1356"/>
      <point x="974" y="1314"/>
      <point x="1073" y="1231" type="curve"/>
      <point x="1073" y="1438" type="line"/>
      <point x="968" y="1494"/>
      <point x="866" y="1520"/>
      <point x="742" y="1520" type="curve" smooth="yes"/>
      <point x="553" y="1520"/>
      <point x="403" y="1449"/>
      <point x="298" y="1316" type="curve" smooth="yes"/>
      <point x="192" y="1180"/>
      <point x="139" y="989"/>
      <point x="139" y="744" type="curve" smooth="yes"/>
      <point x="139" y="501"/>
      <point x="192" y="311"/>
      <point x="297" y="174" type="curve" smooth="yes"/>
      <point x="401" y="41"/>
      <point x="551" y="-29"/>
      <point x="742" y="-29" type="curve" smooth="yes"/>
    </contour>
  </outline>
</glyph>
<glyph name="ccircumflex" format="1">
  <advance width="1233"/>
  <unicode hex="0109"/>
  <note>
	ccircumflex
  </note>
  <outline>
    <contour>
      <point x="471" y="1297" type="line"/>
      <point x="651" y="1542" type="line"/>
      <point x="832" y="1297" type="line"/>
      <point x="971" y="1297" type="line"/>
      <point x="725" y="1673" type="line"/>
      <point x="578" y="1673" type="line"/>
      <point x="332" y="1297" type="line"/>
    </contour>
    <contour>
      <point x="832" y="-29"/>
      <point x="942" y="4"/>
      <point x="1030" y="57" type="curve"/>
      <point x="1030" y="248" type="line"/>
      <point x="986" y="207"/>
      <point x="946" y="178"/>
      <point x="889" y="157" type="curve" smooth="yes"/>
      <point x="840" y="137"/>
      <point x="784" y="127"/>
      <point x="721" y="127" type="curve" smooth="yes"/>
      <point x="488" y="127"/>
      <point x="358" y="281"/>
      <point x="358" y="560" type="curve" smooth="yes"/>
      <point x="358" y="836"/>
      <point x="486" y="991"/>
      <point x="718" y="991" type="curve" smooth="yes"/>
      <point x="838" y="991"/>
      <point x="929" y="957"/>
      <point x="1030" y="868" type="curve"/>
      <point x="1030" y="1061" type="line"/>
      <point x="921" y="1121"/>
      <point x="834" y="1147"/>
      <point x="713" y="1147" type="curve" smooth="yes"/>
      <point x="374" y="1147"/>
      <point x="164" y="928"/>
      <point x="164" y="559" type="curve" smooth="yes"/>
      <point x="164" y="376"/>
      <point x="213" y="232"/>
      <point x="310" y="127" type="curve" smooth="yes"/>
      <point x="406" y="24"/>
      <point x="544" y="-29"/>
      <point x="712" y="-29" type="curve" smooth="yes"/>
    </contour>
  </outline>
</glyph>
<glyph name="cdotaccent" format="1">
  <advance width="1233"/>
  <unicode hex="010B"/>
  <note>
	cdotaccent
  </note>
  <outline>
    <contour>
      <point x="732" y="1348" type="line" smooth="yes"/>
      <point x="752" y="1348"/>
      <point x="762" y="1358"/>
      <point x="762" y="1378" type="curve" smooth="yes"/>
      <point x="762" y="1522" type="line" smooth="yes"/>
      <point x="762" y="1542"/>
      <point x="752" y="1552"/>
      <point x="732" y="1552" type="curve" smooth="yes"/>
      <point x="587" y="1552" type="line" smooth="yes"/>
      <point x="567" y="1552"/>
      <point x="557" y="1542"/>
      <point x="557" y="1522" type="curve" smooth="yes"/>
      <point x="557" y="1378" type="line" smooth="yes"/>
      <point x="557" y="1358"/>
      <point x="567" y="1348"/>
      <point x="587" y="1348" type="curve" smooth="yes"/>
    </contour>
    <contour>
      <point x="826" y="-29"/>
      <point x="931" y="0"/>
      <point x="1030" y="57" type="curve"/>
      <point x="1030" y="248" type="line"/>
      <point x="942" y="164"/>
      <point x="846" y="127"/>
      <point x="717" y="127" type="curve" smooth="yes"/>
      <point x="486" y="127"/>
      <point x="358" y="282"/>
      <point x="358" y="559" type="curve" smooth="yes"/>
      <point x="358" y="838"/>
      <point x="485" y="991"/>
      <point x="717" y="991" type="curve" smooth="yes"/>
      <point x="841" y="991"/>
      <point x="933" y="955"/>
      <point x="1030" y="868" type="curve"/>
      <point x="1030" y="1061" type="line"/>
      <point x="927" y="1120"/>
      <point x="826" y="1147"/>
      <point x="717" y="1147" type="curve" smooth="yes"/>
      <point x="545" y="1147"/>
      <point x="407" y="1092"/>
      <point x="311" y="991" type="curve" smooth="yes"/>
      <point x="215" y="890"/>
      <point x="164" y="742"/>
      <point x="164" y="559" type="curve" smooth="yes"/>
      <point x="164" y="376"/>
      <point x="215" y="228"/>
      <point x="311" y="127" type="curve" smooth="yes"/>
      <point x="407" y="26"/>
      <point x="545" y="-29"/>
      <point x="717" y="-29" type="curve" smooth="yes"/>
    </contour>
  </outline>
</glyph>
<glyph name="Dcaron" format="1">
  <advance width="1233"/>
  <unicode hex="010E"/>
  <note>
	Dcaron
  </note>
  <outline>
    <contour>
      <point x="633" y="1586" type="line"/>
      <point x="844" y="1852" type="line"/>
      <point x="704" y="1852" type="line"/>
      <point x="538" y="1674" type="line"/>
      <point x="373" y="1852" type="line"/>
      <point x="233" y="1852" type="line"/>
      <point x="444" y="1586" type="line"/>
    </contour>
    <contour>
      <point x="440" y="0" type="line" smooth="yes"/>
      <point x="669" y="0"/>
      <point x="837" y="61"/>
      <point x="944" y="182" type="curve" smooth="yes"/>
      <point x="1053" y="305"/>
      <point x="1106" y="491"/>
      <point x="1106" y="747" type="curve" smooth="yes"/>
      <point x="1106" y="1255"/>
      <point x="897" y="1493"/>
      <point x="440" y="1493" type="curve" smooth="yes"/>
      <point x="137" y="1493" type="line"/>
      <point x="137" y="0" type="line"/>
    </contour>
    <contour>
      <point x="340" y="1327" type="line"/>
      <point x="436" y="1327" type="line" smooth="yes"/>
      <point x="609" y="1327"/>
      <point x="721" y="1290"/>
      <point x="792" y="1202" type="curve" smooth="yes"/>
      <point x="863" y="1114"/>
      <point x="893" y="970"/>
      <point x="893" y="746" type="curve" smooth="yes"/>
      <point x="893" y="523"/>
      <point x="862" y="381"/>
      <point x="793" y="292" type="curve" smooth="yes"/>
      <point x="722" y="204"/>
      <point x="611" y="166"/>
      <point x="436" y="166" type="curve" smooth="yes"/>
      <point x="340" y="166" type="line"/>
    </contour>
  </outline>
</glyph>
<glyph name="Dcroat" format="1">
  <advance width="1233"/>
  <unicode hex="0110"/>
  <note>
	Dcroat
  </note>
  <outline>
    <contour>
      <point x="436" y="0" type="line" smooth="yes"/>
      <point x="893" y="0"/>
      <point x="1102" y="238"/>
      <point x="1102" y="746" type="curve" smooth="yes"/>
      <point x="1102" y="1003"/>
      <point x="1049" y="1188"/>
      <point x="940" y="1311" type="curve" smooth="yes"/>
      <point x="831" y="1434"/>
      <point x="664" y="1493"/>
      <point x="436" y="1493" type="curve" smooth="yes"/>
      <point x="133" y="1493" type="line"/>
      <point x="133" y="858" type="line"/>
      <point x="8" y="858" type="line"/>
      <point x="8" y="709" type="line"/>
      <point x="133" y="709" type="line"/>
      <point x="133" y="0" type="line"/>
    </contour>
    <contour>
      <point x="340" y="709" type="line"/>
      <point x="604" y="709" type="line"/>
      <point x="604" y="858" type="line"/>
      <point x="340" y="858" type="line"/>
      <point x="340" y="1327" type="line"/>
      <point x="436" y="1327" type="line" smooth="yes"/>
      <point x="609" y="1327"/>
      <point x="721" y="1290"/>
      <point x="792" y="1202" type="curve" smooth="yes"/>
      <point x="863" y="1114"/>
      <point x="893" y="970"/>
      <point x="893" y="746" type="curve" smooth="yes"/>
      <point x="893" y="523"/>
      <point x="862" y="381"/>
      <point x="793" y="292" type="curve" smooth="yes"/>
      <point x="722" y="204"/>
      <point x="611" y="166"/>
      <point x="436" y="166" type="curve" smooth="yes"/>
      <point x="340" y="166" type="line"/>
    </contour>
  </outline>
</glyph>
<glyph name="dcroat" format="1">
  <advance width="1233"/>
  <unicode hex="0111"/>
  <note>
	dcroat
  </note>
  <outline>
    <contour>
      <point x="626" y="-29"/>
      <point x="685" y="-14"/>
      <point x="736" y="15" type="curve" smooth="yes"/>
      <point x="788" y="44"/>
      <point x="825" y="85"/>
      <point x="858" y="141" type="curve"/>
      <point x="876" y="0" type="line"/>
      <point x="1042" y="0" type="line"/>
      <point x="1042" y="1286" type="line"/>
      <point x="1233" y="1286" type="line"/>
      <point x="1233" y="1407" type="line"/>
      <point x="1042" y="1407" type="line"/>
      <point x="1042" y="1556" type="line"/>
      <point x="858" y="1556" type="line"/>
      <point x="858" y="1407" type="line"/>
      <point x="553" y="1407" type="line"/>
      <point x="553" y="1286" type="line"/>
      <point x="858" y="1286" type="line"/>
      <point x="858" y="977" type="line"/>
      <point x="799" y="1088"/>
      <point x="695" y="1147"/>
      <point x="559" y="1147" type="curve" smooth="yes"/>
      <point x="428" y="1147"/>
      <point x="318" y="1095"/>
      <point x="239" y="992" type="curve" smooth="yes"/>
      <point x="162" y="889"/>
      <point x="123" y="742"/>
      <point x="123" y="562" type="curve" smooth="yes"/>
      <point x="123" y="382"/>
      <point x="162" y="233"/>
      <point x="239" y="129" type="curve" smooth="yes"/>
      <point x="312" y="28"/>
      <point x="422" y="-29"/>
      <point x="559" y="-29" type="curve" smooth="yes"/>
    </contour>
    <contour>
      <point x="408" y="127"/>
      <point x="317" y="275"/>
      <point x="317" y="559" type="curve" smooth="yes"/>
      <point x="317" y="844"/>
      <point x="407" y="991"/>
      <point x="586" y="991" type="curve" smooth="yes"/>
      <point x="765" y="991"/>
      <point x="858" y="844"/>
      <point x="858" y="559" type="curve" smooth="yes"/>
      <point x="858" y="275"/>
      <point x="765" y="127"/>
      <point x="585" y="127" type="curve" smooth="yes"/>
    </contour>
  </outline>
</glyph>
